<svg viewBox="0 0 40 40" version="1.1" xmlns="http://www.w3.org/2000/svg" xmlns:xlink="http://www.w3.org/1999/xlink">
    <g transform="translate(7.000000, 2.000000)">
        <path d="M24.5,16.5 L21.5,16.5 L21.5,13.5 C21.5,12.671 20.828,12 20,12 C19.172,12 18.5,12.671 18.5,13.5 L18.5,16.5 L15.5,16.5 C14.672,16.5 14,17.171 14,18 C14,18.829 14.672,19.5 15.5,19.5 L18.5,19.5 L18.5,22.5 C18.5,23.328 19.172,24 20,24 C20.828,24 21.5,23.328 21.5,22.5 L21.5,19.5 L24.5,19.5 C25.328,19.5 26,18.829 26,18 C26,17.171 25.328,16.5 24.5,16.5"></path>
        <path d="M23,28.5 L23,32 C23,32.553 22.553,33 22,33 L4,33 C3.447,33 3,32.553 3,32 L3,4 C3,3.448 3.447,3 4,3 L22,3 C22.553,3 23,3.448 23,4 L23,7.5 C23,8.329 23.672,9 24.5,9 C25.328,9 26,8.329 26,7.5 L26,4 C26,1.791 24.209,0 22,0 L4,0 C1.791,0 0,1.791 0,4 L0,32 C0,34.209 1.791,36 4,36 L22,36 C24.209,36 26,34.209 26,32 L26,28.5 C26,27.672 25.328,27 24.5,27 C23.672,27 23,27.672 23,28.5"></path>
    </g>
</svg>
