<svg viewBox="0 0 40 40" version="1.1" xmlns="http://www.w3.org/2000/svg" xmlns:xlink="http://www.w3.org/1999/xlink">
    <g>
        <path transform="translate(5.000000, 5.000000)" d="M28.5,13.4998 L16.5,13.4998 L16.5,1.4998 C16.5,0.6718 15.829,-0.0002 15,-0.0002 C14.171,-0.0002 13.5,0.6718 13.5,1.4998 L13.5,13.4998 L1.5,13.4998 C0.671,13.4998 0,14.1718 0,14.9998 C0,15.8288 0.671,16.4998 1.5,16.4998 L13.5,16.4998 L13.5,28.4998 C13.5,29.3288 14.171,29.9998 15,29.9998 C15.829,29.9998 16.5,29.3288 16.5,28.4998 L16.5,16.4998 L28.5,16.4998 C29.329,16.4998 30,15.8288 30,14.9998 C30,14.1718 29.329,13.4998 28.5,13.4998"></path>
    </g>
</svg>
