<svg xmlns="http://www.w3.org/2000/svg" viewBox="0 0 40 40">

        <path fill="#311E9D" transform="translate(2 2)"
               d="M24.643 31.429c1.893-3.036 3.137-7.34 3.322-12.18h4.972c-.444 5.35-3.705 9.9-8.294 12.18zM19.5 32.565V19.25h5.467c-.284 6.694-2.802 11.85-5.467 13.315zm0-29.13c2.599 1.43 5.06 6.365 5.445 12.815H19.5V3.436zM32.889 16.25h-4.937c-.25-4.636-1.481-8.746-3.31-11.678 4.446 2.208 7.647 6.545 8.247 11.678zm-16.39 0h-5.443C11.44 9.8 13.9 4.865 16.5 3.436V16.25zm0 16.315c-2.665-1.465-5.181-6.621-5.465-13.315H16.5v13.315zM3.065 19.25h4.972c.184 4.839 1.428 9.143 3.322 12.179-4.59-2.28-7.85-6.83-8.294-12.18zm8.294-14.678c-1.83 2.932-3.06 7.042-3.31 11.678H3.112c.6-5.133 3.802-9.47 8.247-11.678zM18 0C8.059 0 0 8.059 0 18c0 9.942 8.059 18 18 18 9.94 0 18-8.058 18-18 0-9.941-8.06-18-18-18z"/>
</svg>
