<svg viewBox="0 0 40 40" version="1.1" xmlns="http://www.w3.org/2000/svg" xmlns:xlink="http://www.w3.org/1999/xlink">
    <g>
        <path d="M18.3841,25.5015 L18.3841,13.5015 C18.3841,12.6735 19.0561,12.0015 19.8841,12.0015 C20.7121,12.0015 21.3841,12.6735 21.3841,13.5015 L21.3841,25.5015 C21.3841,26.3305 20.7121,27.0015 19.8841,27.0015 C19.0561,27.0015 18.3841,26.3305 18.3841,25.5015"></path>
        <path d="M21.8841,31.0015 C21.8841,29.8975 20.9881,29.0015 19.8841,29.0015 C18.7801,29.0015 17.8841,29.8975 17.8841,31.0015 C17.8841,32.1065 18.7801,33.0015 19.8841,33.0015 C20.9881,33.0015 21.8841,32.1065 21.8841,31.0015"></path>
        <path d="M19.8841,2.5 C18.5371,2.5 17.1901,3.167 16.4201,4.5 L0.5421,32.001 C-0.9979,34.668 0.9271,38.001 4.0061,38.001 L35.7621,38.001 C38.8411,38.001 40.7661,34.668 39.2261,32.001 L23.3481,4.5 C22.5781,3.167 21.2311,2.5 19.8841,2.5 M19.8841,5.5 C20.1001,5.5 20.4991,5.565 20.7501,6 L36.6281,33.501 C36.8791,33.937 36.7361,34.315 36.6281,34.501 C36.5211,34.688 36.2651,35.001 35.7621,35.001 L4.0061,35.001 C3.5031,35.001 3.2471,34.688 3.1401,34.501 C3.0321,34.315 2.8891,33.937 3.1401,33.501 L19.0181,6 C19.2691,5.565 19.6681,5.5 19.8841,5.5"></path>
    </g>
</svg>
