<svg xmlns="http://www.w3.org/2000/svg" viewBox="0 0 40 40">
    <path fill-rule="evenodd" d="M21.2523 29.9128v-3.804c0-.684.354-1.343.967-1.649.25-.124.487-.269.71-.433.594-.433 1.39-.461 2.027-.093l3.192 1.843c-1.584 2.228-4.055 3.779-6.896 4.136zm-4.252-9.913c0-1.654 1.346-3 3-3 1.653 0 3 1.346 3 3s-1.347 3-3 3c-1.654 0-3-1.346-3-3zm2.071 9.953c-2.863-.265-5.373-1.745-7.024-3.915l3.276-1.892c.596-.343 1.346-.358 1.92.021.235.155.484.29.744.405.669.294 1.084.974 1.084 1.705v3.676zm-8.149-5.784c-.586-1.271-.922-2.68-.922-4.169 0-1.373.278-2.683.782-3.876l3.289 1.899c.618.357.978 1.03.936 1.743-.005.077-.007.155-.007.234 0 .145.007.288.021.43.076.769-.256 1.52-.925 1.907l-3.174 1.832zm7.825-14.082v3.805c0 .684-.354 1.342-.967 1.648-.25.125-.486.269-.71.433-.593.434-1.39.461-2.027.093l-3.191-1.842c1.585-2.229 4.054-3.779 6.895-4.137zm2.181-.04c2.863.265 5.373 1.745 7.024 3.916l-3.275 1.891c-.597.344-1.346.359-1.92-.02a4.9959 4.9959 0 0 0-.744-.405c-.67-.294-1.085-.974-1.085-1.705v-3.677zm8.149 5.784c.586 1.271.923 2.68.923 4.169 0 1.374-.279 2.684-.782 3.876l-3.289-1.899a1.878 1.878 0 0 1-.936-1.742c.004-.078.007-.156.007-.235 0-.145-.008-.288-.021-.429-.077-.769.255-1.521.924-1.908l3.174-1.832zm2.923 4.169c0-6.627-5.373-12-12-12-6.628 0-12 5.373-12 12 0 6.628 5.372 12 12 12 6.627 0 12-5.372 12-12zm-.792 7.514c-2.268 3.372-6.017 5.655-10.306 5.941v1c4.666-.289 8.736-2.768 11.177-6.438l-.871-.503zm-11.208 8.486c-8.823 0-16-7.177-16-16 0-8.822 7.177-16 16-16 8.822 0 16 7.178 16 16 0 8.823-7.178 16-16 16zm0-34c-9.941 0-18 8.059-18 18s8.059 18 18 18c9.94 0 18-8.059 18-18s-8.06-18-18-18zm-.903 4.546v-1c-4.666.288-8.736 2.768-11.176 6.438l.87.502c2.268-3.371 6.017-5.654 10.306-5.94z"/>
</svg>
