<svg xmlns="http://www.w3.org/2000/svg" viewBox="0 0 40 40">
    <path fill-rule="evenodd" d="M22.81 26.269l.705.706 6.44-6.44-.706-.705-6.44 6.439zm7.12-8.531l-.705-.706-9.213 9.213.705.705 9.213-9.212zM28.89 30H15.07A13.062 13.062 0 0 1 12 27.33v-3.69C13.76 27.4 17.57 30 21.98 30c6.08 0 11-4.92 11-11 0-6.07-4.92-11-11-11-6.07 0-11 4.93-11 11 0 .84.09 1.66.28 2.45a1.95 1.95 0 0 0-.76-.38v-7.73c0-.11-.02-.22-.06-.32C12.61 8.85 16.97 6 21.98 6c7.17 0 13 5.83 13 13 0 4.63-2.43 8.7-6.09 11zM11.98 19c0-5.51 4.49-10 10-10 5.52 0 10 4.49 10 10 0 5.52-4.48 10-10 10-5.51 0-10-4.48-10-10zM4 34h6V23H4v11zm.5-13h5v-7.66h-5V21zm1-14.12l3-1.8v7.26h-3V6.88zM32.18 30a14.97 14.97 0 0 0 4.8-11c0-8.28-6.71-15-15-15-5.2 0-9.79 2.65-12.48 6.68v-5.6c0-.58-.48-1-1-1-.18 0-.35.05-.52.14l-3 1.8c-.3.19-.48.51-.48.86v5.46c-.55 0-1 .45-1 1v7.73c-.87.22-1.5 1-1.5 1.93v11c0 1.11.89 2 2 2h6c1.1 0 2-.89 2-2h22.99a2 2 0 0 0 2-2v-2h-4.81z"/>
</svg>
