<svg viewBox="0 0 40 40" version="1.1" xmlns="http://www.w3.org/2000/svg">
    <g id="Icons/Items/Case" stroke="none" stroke-width="1" fill-rule="evenodd">
        <path d="M34.8615,17.5906 C34.8095,17.6066 34.7575,17.6166 34.7065,17.6376 L20.0175,23.7226 L5.2875,17.6206 C5.2365,17.5996 5.1835,17.5886 5.1325,17.5726 L5.1325,15.5006 C5.1325,15.0216 5.5215,14.6306 6.0025,14.6306 L11.3325,14.6306 L14.0425,14.6306 L26.6225,14.6306 L29.3325,14.6306 L34.0025,14.6306 C34.4815,14.6306 34.8615,15.0216 34.8615,15.5006 L34.8615,17.5906 Z M34.8615,31.5006 C34.8615,31.9816 34.4815,32.3706 34.0025,32.3706 L6.0025,32.3706 C5.5215,32.3706 5.1325,31.9816 5.1325,31.5006 L5.1325,20.8036 L19.4355,26.7286 C19.5305,26.7686 19.6295,26.7976 19.7305,26.8176 C19.7395,26.8196 19.7485,26.8196 19.7575,26.8196 C19.8435,26.8356 19.9305,26.8446 20.0185,26.8446 L20.0245,26.8446 C20.0335,26.8446 20.0425,26.8426 20.0505,26.8426 C20.2315,26.8386 20.4145,26.8056 20.5905,26.7326 L34.8615,20.8206 L34.8615,31.5006 Z M14.0425,8.1116 C14.0425,7.6116 14.4415,7.2006 14.9415,7.2006 L25.7215,7.2006 C26.2215,7.2006 26.6225,7.6116 26.6225,8.1116 L26.6225,11.5006 L14.0425,11.5006 L14.0425,8.1116 Z M34.0025,11.5006 L29.3325,11.5006 L29.3325,8.1116 C29.3325,6.1116 27.7125,4.5006 25.7215,4.5006 L14.9415,4.5006 C12.9525,4.5006 11.3325,6.1116 11.3325,8.1116 L11.3325,11.5006 L6.0025,11.5006 C3.7925,11.5006 2.0025,13.2906 2.0025,15.5006 L2.0025,31.5006 C2.0025,33.7106 3.7925,35.5006 6.0025,35.5006 L34.0025,35.5006 C36.2125,35.5006 38.0025,33.7106 38.0025,31.5006 L38.0025,15.5006 C38.0025,13.2906 36.2125,11.5006 34.0025,11.5006 L34.0025,11.5006 Z" id="Fill-3"></path>
    </g>
</svg>
