<svg viewBox="0 0 40 40" version="1.1" xmlns="http://www.w3.org/2000/svg">
    <g>
            <path d="M29.0094,31.9906 C27.3554,31.9906 26.0094,30.6446 26.0094,28.9906 C26.0094,27.3366 27.3554,25.9906 29.0094,25.9906 C30.6634,25.9906 32.0094,27.3366 32.0094,28.9906 C32.0094,30.6446 30.6634,31.9906 29.0094,31.9906 M29.0094,22.9906 C25.6964,22.9906 23.0094,25.6776 23.0094,28.9906 C23.0094,32.3036 25.6964,34.9906 29.0094,34.9906 C32.3224,34.9906 35.0094,32.3036 35.0094,28.9906 C35.0094,25.6776 32.3224,22.9906 29.0094,22.9906 M32.7284,7.2536 C32.1424,6.6686 31.1924,6.6686 30.6074,7.2536 L7.2724,30.5886 C6.6864,31.1746 6.6864,32.1236 7.2724,32.7096 C7.8584,33.2956 8.8074,33.2956 9.3934,32.7096 L32.7284,9.3756 C33.3144,8.7896 33.3144,7.8396 32.7284,7.2536 M8.0184,11.0006 C8.0184,9.3456 9.3634,8.0006 11.0184,8.0006 C12.6724,8.0006 14.0184,9.3456 14.0184,11.0006 C14.0184,12.6546 12.6724,14.0006 11.0184,14.0006 C9.3634,14.0006 8.0184,12.6546 8.0184,11.0006 M17.0184,11.0006 C17.0184,7.6856 14.3324,5.0006 11.0184,5.0006 C7.7044,5.0006 5.0184,7.6856 5.0184,11.0006 C5.0184,14.3136 7.7044,17.0006 11.0184,17.0006 C14.3324,17.0006 17.0184,14.3136 17.0184,11.0006"></path>
    </g>
</svg>