<svg viewBox="0 0 40 40" version="1.1" xmlns="http://www.w3.org/2000/svg">
    <g transform="translate(2.000000, 4.000000)">
        <path d="M34.4996,30.9906 L1.4996,30.9906 C0.6716,30.9906 -0.0004,31.6626 -0.0004,32.4906 C-0.0004,33.3196 0.6716,33.9906 1.4996,33.9906 L34.4996,33.9906 C35.3286,33.9906 35.9996,33.3196 35.9996,32.4906 C35.9996,31.6626 35.3286,30.9906 34.4996,30.9906 M2.5616,20.4176 L11.9996,10.9776 L18.4386,17.4176 C19.0246,18.0036 19.9756,18.0036 20.5616,17.4176 C20.5616,17.4166 20.5616,17.4146 20.5636,17.4126 C20.5646,17.4116 20.5666,17.4116 20.5676,17.4096 L35.4176,2.5606 C36.0036,1.9746 36.0036,1.0246 35.4176,0.4396 C34.8316,-0.1464 33.8816,-0.1464 33.2966,0.4396 L19.4996,14.2356 L13.0616,7.7966 C12.4756,7.2106 11.5246,7.2106 10.9386,7.7966 L0.4386,18.2966 C-0.1464,18.8826 -0.1464,19.8316 0.4386,20.4176 C1.0246,21.0036 1.9756,21.0036 2.5616,20.4176"></path>
    </g>
</svg>
