<svg viewBox="0 0 40 40" version="1.1" xmlns="http://www.w3.org/2000/svg">
    <g transform="translate(5.000000, 2.000000)">
        <path d="M26.9996,32.0003 C26.9996,32.5513 26.5516,33.0003 25.9996,33.0003 C25.4486,33.0003 24.9996,32.5513 24.9996,32.0003 L24.9996,16.0003 C24.9996,15.4483 25.4486,15.0003 25.9996,15.0003 C26.5516,15.0003 26.9996,15.4483 26.9996,16.0003 L26.9996,32.0003 Z M25.9996,12.0003 C23.7906,12.0003 21.9996,13.7903 21.9996,16.0003 L21.9996,32.0003 C21.9996,34.2093 23.7906,36.0003 25.9996,36.0003 C28.2096,36.0003 29.9996,34.2093 29.9996,32.0003 L29.9996,16.0003 C29.9996,13.7903 28.2096,12.0003 25.9996,12.0003 Z M15.9996,32.0003 C15.9996,32.5513 15.5516,33.0003 14.9996,33.0003 C14.4486,33.0003 13.9996,32.5513 13.9996,32.0003 L13.9996,4.0003 C13.9996,3.4483 14.4486,3.0003 14.9996,3.0003 C15.5516,3.0003 15.9996,3.4483 15.9996,4.0003 L15.9996,32.0003 Z M14.9996,0.0003 C12.7906,0.0003 10.9996,1.7903 10.9996,4.0003 L10.9996,32.0003 C10.9996,34.2093 12.7906,36.0003 14.9996,36.0003 C17.2096,36.0003 18.9996,34.2093 18.9996,32.0003 L18.9996,4.0003 C18.9996,1.7903 17.2096,0.0003 14.9996,0.0003 Z M4.9996,32.0003 C4.9996,32.5513 4.5516,33.0003 3.9996,33.0003 C3.4486,33.0003 2.9996,32.5513 2.9996,32.0003 L2.9996,24.0003 C2.9996,23.4483 3.4486,23.0003 3.9996,23.0003 C4.5516,23.0003 4.9996,23.4483 4.9996,24.0003 L4.9996,32.0003 Z M3.9996,20.0003 C1.7906,20.0003 -0.0004,21.7903 -0.0004,24.0003 L-0.0004,32.0003 C-0.0004,34.2093 1.7906,36.0003 3.9996,36.0003 C6.2096,36.0003 7.9996,34.2093 7.9996,32.0003 L7.9996,24.0003 C7.9996,21.7903 6.2096,20.0003 3.9996,20.0003 Z"></path>
    </g>
</svg>
