<svg version="1.1" xmlns="http://www.w3.org/2000/svg"   viewBox="0 0 32 32">
    <path d="M28.571 28.705c-0.034 0-0.068-0.013-0.094-0.039l-25.143-25.143c-0.052-0.052-0.052-0.136 0-0.189s0.136-0.052 0.189 0l25.143 25.143c0.052 0.052 0.052 0.136 0 0.189-0.026 0.026-0.060 0.039-0.094 0.039zM28.571 29.038c-0.124 0-0.241-0.048-0.329-0.136l-25.143-25.144c-0.182-0.182-0.182-0.478-0-0.66 0.177-0.177 0.484-0.176 0.66-0l25.143 25.143c0.182 0.182 0.182 0.478 0 0.66-0.089 0.088-0.206 0.137-0.33 0.137zM28.571 29.171c-0.16 0-0.31-0.062-0.423-0.175l-25.144-25.144c-0.234-0.234-0.234-0.615-0-0.848 0.114-0.114 0.264-0.176 0.425-0.176s0.311 0.062 0.424 0.175l25.143 25.143c0.234 0.234 0.234 0.614 0 0.848-0.114 0.114-0.265 0.176-0.425 0.176zM28.571 29.505c-0.248 0-0.482-0.097-0.658-0.272l-25.145-25.144c-0.363-0.364-0.364-0.956-0-1.32 0.177-0.177 0.411-0.274 0.66-0.274s0.483 0.097 0.66 0.273l25.143 25.143c0.364 0.363 0.364 0.955 0.001 1.319-0.177 0.177-0.411 0.274-0.661 0.274zM3.429 3.162c-0.072 0-0.138 0.027-0.189 0.079-0.103 0.104-0.103 0.273 0.001 0.377l25.144 25.144c0.101 0.101 0.274 0.101 0.377-0.001 0.104-0.104 0.104-0.273-0-0.377l-25.143-25.143c-0.051-0.051-0.116-0.078-0.188-0.078zM3.429 28.705c-0.034 0-0.068-0.013-0.094-0.039-0.052-0.052-0.052-0.136 0-0.189l25.143-25.143c0.052-0.052 0.136-0.052 0.189 0s0.052 0.136 0 0.189l-25.143 25.143c-0.026 0.026-0.060 0.039-0.094 0.039zM3.429 29.038c-0.124 0-0.241-0.048-0.329-0.136-0.183-0.183-0.182-0.479-0.001-0.661l25.143-25.143c0.176-0.176 0.483-0.176 0.66-0 0.182 0.182 0.182 0.478 0 0.66l-25.143 25.143c-0.088 0.088-0.205 0.137-0.33 0.137zM3.429 29.171c-0.16 0-0.31-0.062-0.423-0.175-0.235-0.235-0.234-0.616-0.001-0.849l25.143-25.143c0.113-0.113 0.264-0.176 0.424-0.176s0.311 0.062 0.424 0.175c0.234 0.234 0.234 0.615 0.001 0.849l-25.143 25.143c-0.113 0.113-0.264 0.176-0.424 0.176zM3.429 29.505c-0.248 0-0.482-0.097-0.659-0.272-0.365-0.366-0.365-0.958-0.001-1.321l25.143-25.143c0.176-0.176 0.411-0.273 0.66-0.273s0.483 0.097 0.659 0.273c0.364 0.364 0.364 0.956 0.001 1.32l-25.143 25.143c-0.176 0.176-0.41 0.273-0.66 0.273zM28.571 3.162c-0.072 0-0.137 0.027-0.189 0.078l-25.143 25.143c-0.104 0.104-0.103 0.274 0.001 0.378 0.101 0.1 0.275 0.101 0.376-0.001l25.144-25.143c0.104-0.104 0.103-0.273-0.001-0.377-0.051-0.051-0.116-0.077-0.188-0.077z"></path>
</svg>
