<svg version="1.1" xmlns="http://www.w3.org/2000/svg"   viewBox="0 0 32 32">
<path d="M16 1.143c-8.229 0-14.857 6.629-14.857 14.857s6.629 14.857 14.857 14.857 14.857-6.629 14.857-14.857-6.629-14.857-14.857-14.857zM10.857 4.571c-0.686 1.029-1.143 2.171-1.6 3.429h-2.971c1.257-1.486 2.857-2.629 4.571-3.429zM4.8 10.286h3.771c-0.343 1.371-0.457 2.971-0.571 4.571h-4.571c0.229-1.6 0.686-3.2 1.371-4.571zM4.8 21.714c-0.686-1.371-1.143-2.971-1.257-4.571h4.571c0.114 1.6 0.229 3.2 0.571 4.571h-3.886zM6.286 24h2.857c0.457 1.371 1.029 2.514 1.6 3.429-1.6-0.8-3.2-1.943-4.457-3.429zM14.857 28.229c-1.143-0.571-2.286-2.057-3.2-4.229h3.2v4.229zM14.857 21.714h-3.886c-0.343-1.371-0.571-2.857-0.686-4.571h4.571v4.571zM14.857 14.857h-4.571c0.114-1.714 0.343-3.2 0.686-4.571h3.886v4.571zM14.857 8h-3.2c0.914-2.171 2.057-3.657 3.2-4.229v4.229zM27.2 10.286c0.686 1.371 1.143 2.971 1.371 4.571h-4.571c-0.114-1.6-0.229-3.2-0.571-4.571h3.771zM25.714 8h-2.857c-0.457-1.371-1.029-2.514-1.6-3.429 1.6 0.8 3.2 1.943 4.457 3.429zM17.143 3.771c1.143 0.571 2.286 2.057 3.2 4.229h-3.2v-4.229zM17.143 10.286h3.886c0.343 1.371 0.571 2.857 0.686 4.571h-4.571v-4.571zM17.143 28.229v-4.229h3.2c-0.914 2.171-2.057 3.657-3.2 4.229zM17.143 21.714v-4.571h4.571c-0.114 1.714-0.343 3.2-0.686 4.571h-3.886zM21.143 27.429c0.686-1.029 1.143-2.171 1.6-3.429h2.857c-1.143 1.486-2.743 2.629-4.457 3.429zM27.2 21.714h-3.771c0.343-1.371 0.457-2.971 0.571-4.571h4.571c-0.229 1.6-0.686 3.2-1.371 4.571z"></path>
</svg>
