<svg xmlns="http://www.w3.org/2000/svg">
  <path d="m8,1.63c4.3,0 7.8,2.593 7.8,5.782c0,3.188 -3.5,5.782 -7.8,5.782c-0.625,0 -1.247,-0.055 -1.85,-0.163c-0.107,0.07 -0.3,0.256 -0.432,0.384c-0.411,0.397 -0.99,0.955 -1.677,0.955c-0.175,0 -0.357,-0.036 -0.545,-0.12c-0.998,-0.448 -0.924,-1.563 -0.88,-2.23c0.009,-0.123 0.02,-0.295 0.017,-0.404c-1.548,-1.086 -2.433,-2.61 -2.433,-4.204c0,-3.189 3.5,-5.782 7.8,-5.782zm3.6,4.606c-0.663,0 -1.2,0.538 -1.2,1.2c0,0.663 0.537,1.2 1.2,1.2c0.662,0 1.2,-0.537 1.2,-1.2c0,-0.662 -0.538,-1.2 -1.2,-1.2zm-3.6,0c-0.663,0 -1.2,0.538 -1.2,1.2c0,0.663 0.537,1.2 1.2,1.2c0.662,0 1.2,-0.537 1.2,-1.2c0,-0.662 -0.538,-1.2 -1.2,-1.2zm-3.6,0c-0.663,0 -1.2,0.538 -1.2,1.2c0,0.663 0.537,1.2 1.2,1.2c0.662,0 1.2,-0.537 1.2,-1.2c0,-0.662 -0.538,-1.2 -1.2,-1.2z"/>
</svg>
