<svg viewBox="0 0 40 40" version="1.1" xmlns="http://www.w3.org/2000/svg">
    <title>Icons/Actions/Compare</title>
    <g id="Icons/Actions/Compare" stroke="none" stroke-width="1" fill-rule="evenodd">
        <path d="M14,3.5 C14.828,3.5 15.5,4.172 15.5,5 L15.4931292,5.14439324 C15.4204014,5.90473356 14.7792941,6.5 14,6.5 L6,6.5 C5.448,6.5 5,6.948 5,7.5 L5,32.5 C5,33.052 5.448,33.5 6,33.5 L14,33.5 C14.828,33.5 15.5,34.172 15.5,35 L15.4931292,35.1443932 C15.4204014,35.9047336 14.7792941,36.5 14,36.5 L6,36.5 C3.791,36.5 2,34.709 2,32.5 L2,7.5 C2,5.291 3.791,3.5 6,3.5 L14,3.5 Z M30.5,18.5 L26,18.5 C25.172,18.5 24.5,19.172 24.5,20 C24.5,20.828 25.172,21.5 26,21.5 L30.5,21.5 C31.328,21.5 32,20.828 32,20 C32,19.172 31.328,18.5 30.5,18.5 Z M30.5,24.5 L26,24.5 C25.172,24.5 24.5,25.172 24.5,26 C24.5,26.828 25.172,27.5 26,27.5 L30.5,27.5 C31.328,27.5 32,26.828 32,26 C32,25.172 31.328,24.5 30.5,24.5 Z M30.5,12.5 L26,12.5 C25.172,12.5 24.5,13.172 24.5,14 C24.5,14.828 25.172,15.5 26,15.5 L30.5,15.5 C31.328,15.5 32,14.828 32,14 C32,13.172 31.328,12.5 30.5,12.5 Z M21.5,38.3333333 L21.5,1.66666667 C21.5,0.746666667 20.828,0 20,0 C19.172,0 18.5,0.746666667 18.5,1.66666667 L18.5,38.3333333 C18.5,39.2533333 19.172,40 20,40 C20.828,40 21.5,39.2533333 21.5,38.3333333 Z M36.5,21.5 C35.672,21.5 35,22.172 35,23 L35,26 C35,26.828 35.672,27.5 36.5,27.5 C37.328,27.5 38,26.828 38,26 L38,23 C38,22.172 37.328,21.5 36.5,21.5 Z M35,14 L35,17 C35,17.828 35.672,18.5 36.5,18.5 C37.328,18.5 38,17.828 38,17 L38,14 C38,13.172 37.328,12.5 36.5,12.5 C35.672,12.5 35,13.172 35,14 Z M26,6.5 L27.5011597,6.5 C28.2804538,6.5 28.9215611,5.90473356 28.9942889,5.14439324 L29.0011597,5 C29.0011597,4.172 28.3291597,3.5 27.5011597,3.5 L26,3.5 C25.172,3.5 24.5,4.172 24.5,5 C24.5,5.828 25.172,6.5 26,6.5 Z M29,35 C29,34.172 28.328,33.5 27.5,33.5 L26,33.5 C25.172,33.5 24.5,34.172 24.5,35 C24.5,35.828 25.172,36.5 26,36.5 L27.5,36.5 C28.328,36.5 29,35.828 29,35 Z M34,3.5 L33.5,3.5 C32.672,3.5 32,4.172 32,5 C32,5.828 32.672,6.5 33.5,6.5 L34,6.5 C34.552,6.5 35,6.948 35,7.5 L35,8 C35,8.828 35.672,9.5 36.5,9.5 C37.328,9.5 38,8.828 38,8 L38,7.5 C38,5.291 36.209,3.5 34,3.5 Z M36.5,30.5 C35.672,30.5 35,31.172 35,32 L35,32.5 C35,33.052 34.552,33.5 34,33.5 L33.5,33.5 C32.672,33.5 32,34.172 32,35 C32,35.828 32.672,36.5 33.5,36.5 L34,36.5 C36.209,36.5 38,34.709 38,32.5 L38,32 C38,31.172 37.328,30.5 36.5,30.5 Z" id="Icon_Compare"></path>
    </g>
</svg>
