<svg xmlns="http://www.w3.org/2000/svg" viewBox="0 0 40 40">
    <path fill-rule="evenodd" d="M29.5 2h-10a4 4 0 0 0-4 4v.5a1.5 1.5 0 0 0 3 0V6a1 1 0 0 1 1-1h10a1 1 0 0 1 1 1v19a1 1 0 0 1-1 1h-10a1 1 0 0 1-1-1v-6.5a1.5 1.5 0 0 0-3 0V25a4 4 0 0 0 4 4h10a4 4 0 0 0 4-4V6a4 4 0 0 0-4-4M23 32a1.5 1.5 0 0 0-1.5 1.5v.5a1 1 0 0 1-1 1h-10a1 1 0 0 1-1-1V15a1 1 0 0 1 1-1h10a1 1 0 0 1 1 1v6.5a1.5 1.5 0 0 0 3 0V15a4 4 0 0 0-4-4h-10a4 4 0 0 0-4 4v19a4 4 0 0 0 4 4h10a4 4 0 0 0 4-4v-.5A1.5 1.5 0 0 0 23 32"/>
</svg>
