<svg xmlns="http://www.w3.org/2000/svg" viewBox="0 0 50 50">
    <g fill-rule="evenodd" transform="translate(6.25 6.25)">
        <path d="M18.75 0C29.105 0 37.5 8.395 37.5 18.75c0 10.356-8.395 18.75-18.75 18.75S0 29.106 0 18.75C0 8.395 8.395 0 18.75 0zm5.304 10.795l-5.304 5.304-5.303-5.304a1.874 1.874 0 1 0-2.652 2.651l5.303 5.304-5.303 5.303a1.874 1.874 0 1 0 2.652 2.652l5.303-5.303 5.304 5.303a1.874 1.874 0 1 0 2.651-2.651l-5.303-5.304 5.303-5.304a1.874 1.874 0 1 0-2.651-2.651z"/>
    </g>
</svg>
