<svg xmlns="http://www.w3.org/2000/svg" viewBox="0 0 40 40">
    <g fill-rule="evenodd">
        <path d="M29.5 9A1.5 1.5 0 0 0 31 7.5V6h3c.551 0 1 .448 1 1v27c0 .551-.449 1-1 1H6c-.551 0-1-.449-1-1V7c0-.552.449-1 1-1h3v1.5a1.5 1.5 0 1 0 3 0V6h16v1.5A1.5 1.5 0 0 0 29.5 9m0-9A1.5 1.5 0 0 0 28 1.5V3H12V1.5a1.5 1.5 0 1 0-3 0V3H6a4 4 0 0 0-4 4v27a4 4 0 0 0 4 4h28a4 4 0 0 0 4-4V7a4 4 0 0 0-4-4h-3V1.5A1.5 1.5 0 0 0 29.5 0"/>
        <path d="M24 19a2 2 0 0 1-2-2v-2a2 2 0 0 1 2-2h2a2 2 0 0 1 2 2v2a2 2 0 0 1-2 2h-2zM26 29h-2a2 2 0 0 1-2-2v-2a2 2 0 0 1 2-2h2a2 2 0 0 1 2 2v2a2 2 0 0 1-2 2M16 19h-2a2 2 0 0 1-2-2v-2a2 2 0 0 1 2-2h2a2 2 0 0 1 2 2v2a2 2 0 0 1-2 2M16 29h-2a2 2 0 0 1-2-2v-2a2 2 0 0 1 2-2h2a2 2 0 0 1 2 2v2a2 2 0 0 1-2 2"/>
    </g>
</svg>
