<svg xmlns="http://www.w3.org/2000/svg" viewBox="0 0 40 40">
    <path fill-rule="evenodd" d="M20.002 35.002c-8.27 0-15-6.73-15-15 0-6.7 4.42-12.4 10.5-14.31v17.31c0 .83.67 1.5 1.5 1.5h17.31c-1.91 6.08-7.61 10.5-14.31 10.5zm15.067-13.5H18.502V4.935c0-1.56-1.46-2.757-2.97-2.371l-.03.008A18.005 18.005 0 0 0 2.129 22.167c.952 8.165 7.543 14.756 15.707 15.709a18.006 18.006 0 0 0 19.603-13.403c.387-1.512-.81-2.971-2.37-2.971zM24.502 5.692a15.07 15.07 0 0 1 9.81 9.81h-9.81v-9.81zm-1.5 12.81h12.067c1.56 0 2.757-1.46 2.37-2.97-.001-.01-.004-.02-.007-.03-1.62-6.32-6.61-11.31-12.93-12.93l-.03-.008c-1.511-.386-2.97.81-2.97 2.37v12.068a1.5 1.5 0 0 0 1.5 1.5z"/>
</svg>
