<svg xmlns="http://www.w3.org/2000/svg" viewBox="0 0 20 20">
        <path transform="translate(1)" d="M13.75 0c.415 0 .75.336.75.75v.75H16c1.105 0 2 .896 2 2V17c0 1.105-.895 2-2 2H2c-1.105 0-2-.895-2-2V3.5c0-1.104.895-2 2-2h1.5V.75c0-.414.336-.75.75-.75.415 0 .75.336.75.75v.75h8V.75c0-.414.335-.75.75-.75zM3.5 3H2c-.276 0-.5.224-.5.5V17c0 .276.224.5.5.5h14c.276 0 .5-.224.5-.5V3.5c0-.276-.224-.5-.5-.5h-1.5v.75c0 .415-.335.75-.75.75S13 4.165 13 3.75V3H5v.75c0 .415-.335.75-.75.75-.414 0-.75-.335-.75-.75V3zm5.536 4.385c.585 0 1.062.172 1.422.505.37.333.55.765.55 1.278 0 .558-.226 1.071-.667 1.548l-1.458 1.621v.018h2.034c.063 0 .09.027.09.09v1.08c0 .064-.027.09-.09.09H7.082c-.063 0-.09-.026-.09-.09v-1.008c0-.045.018-.09.045-.126L9.19 9.978c.225-.242.333-.495.333-.756 0-.36-.198-.594-.549-.594-.37 0-.567.225-.612.684 0 .063-.036.09-.1.081l-1.188-.18c-.063-.009-.08-.045-.072-.108.027-.495.234-.91.603-1.233.37-.324.847-.487 1.432-.487z"/>
</svg>
