<svg xmlns="http://www.w3.org/2000/svg" viewBox="0 0 20 20">
        <path transform="translate(1)" d="M13.75 0c.415 0 .75.336.75.75v.75H16c1.105 0 2 .896 2 2V17c0 1.105-.895 2-2 2H2c-1.105 0-2-.895-2-2V3.5c0-1.104.895-2 2-2h1.5V.75c0-.414.336-.75.75-.75.415 0 .75.336.75.75v.75h8V.75c0-.414.335-.75.75-.75zM3.5 3H2c-.276 0-.5.225-.5.5V17c0 .276.224.5.5.5h14c.276 0 .5-.224.5-.5V3.5c0-.275-.224-.5-.5-.5h-1.5v.75c0 .415-.335.75-.75.75S13 4.165 13 3.75V3H5v.75c0 .415-.335.75-.75.75-.414 0-.75-.335-.75-.75V3zm6.743 4.042c.063 0 .09.027.09.09v5.942c0 .063-.027.09-.09.09H8.919c-.063 0-.09-.027-.09-.09V8.681h-.018l-1.035.684c-.063.036-.108.018-.108-.054V7.997c0-.045.018-.09.063-.126l1.098-.775c.045-.036.1-.054.162-.054h1.252z"/>
</svg>
