<svg viewBox="0 0 40 40" version="1.1" xmlns="http://www.w3.org/2000/svg">
    <g>
        <path d="M35,34 C35,34.551 34.551,35 34,35 L6,35 C5.449,35 5,34.551 5,34 L5,7 C5,6.448 5.449,6 6,6 L9,6 L9,7.5 C9,8.328 9.671,9 10.5,9 C11.329,9 12,8.328 12,7.5 L12,6 L28,6 L28,7.5 C28,8.328 28.671,9 29.5,9 C30.329,9 31,8.328 31,7.5 L31,6 L34,6 C34.551,6 35,6.448 35,7 L35,34 Z M34,3 L31,3 L31,1.5 C31,0.671 30.329,0 29.5,0 C28.671,0 28,0.671 28,1.5 L28,3 L12,3 L12,1.5 C12,0.671 11.329,0 10.5,0 C9.671,0 9,0.671 9,1.5 L9,3 L6,3 C3.791,3 2,4.79 2,7 L2,34 C2,36.209 3.791,38 6,38 L34,38 C36.209,38 38,36.209 38,34 L38,7 C38,4.79 36.209,3 34,3 Z M26.875,13.002 L21.775,13.002 L28.875,20.102 L28.875,15.002 C28.875,13.897 27.979,13.002 26.875,13.002 Z M10.875,27 C10.875,28.104 11.771,29 12.875,29 L17.975,29 L10.875,21.9 L10.875,27 Z M13.29,13.002 L28.476,28.188 C28.724,27.854 28.875,27.446 28.875,27 L28.875,22.93 L18.947,13.002 L13.29,13.002 Z M10.875,15.002 L10.875,19.071 L20.803,29 L26.46,29 L11.274,13.813 C11.026,14.146 10.875,14.555 10.875,15.002 Z"></path>
    </g>
</svg>