<svg viewBox="0 0 40 40" version="1.1" xmlns="http://www.w3.org/2000/svg" xmlns:xlink="http://www.w3.org/1999/xlink">
            <g transform="translate(3.000000, 3.000000)">
                <path d="M6.4998,14.0768 L6.4998,2.0768 C6.4998,1.2488 7.1718,0.5768 7.9998,0.5768 C8.8288,0.5768 9.4998,1.2488 9.4998,2.0768 L9.4998,14.0768 C9.4998,14.9058 8.8288,15.5768 7.9998,15.5768 C7.1718,15.5768 6.4998,14.9058 6.4998,14.0768"></path>
                <path d="M1.9998,6.5768 L13.9998,6.5768 C14.8288,6.5768 15.4998,7.2488 15.4998,8.0768 C15.4998,8.9058 14.8288,9.5768 13.9998,9.5768 L1.9998,9.5768 C1.1718,9.5768 0.4998,8.9058 0.4998,8.0768 C0.4998,7.2488 1.1718,6.5768 1.9998,6.5768"></path>
                <path d="M20.1747,24.7516 L32.1747,24.7516 C33.0037,24.7516 33.6747,25.4236 33.6747,26.2516 C33.6747,27.0796 33.0037,27.7516 32.1747,27.7516 L20.1747,27.7516 C19.3457,27.7516 18.6747,27.0796 18.6747,26.2516 C18.6747,25.4236 19.3457,24.7516 20.1747,24.7516"></path>
                <path d="M30.2845,5.8835 L6.9495,29.2175 C6.3645,29.8035 5.4145,29.8035 4.8285,29.2175 C4.2425,28.6315 4.2425,27.6825 4.8285,27.0965 L28.1625,3.7615 C28.7485,3.1755 29.6985,3.1755 30.2845,3.7615 C30.8695,4.3475 30.8695,5.2975 30.2845,5.8835"></path>
            </g>
</svg>