<svg viewBox="0 0 40 40" version="1.1" xmlns="http://www.w3.org/2000/svg" xmlns:xlink="http://www.w3.org/1999/xlink">
    <g>
        <path d="M24.6586,2.6134 C23.6986,2.3554 22.7116,2.9254 22.4546,3.8854 L14.0686,35.1814 C13.8106,36.1424 14.3816,37.1294 15.3416,37.3864 C16.3016,37.6434 17.2886,37.0744 17.5466,36.1144 L25.9306,4.8174 C26.1886,3.8574 25.6186,2.8704 24.6586,2.6134 M29.9606,9.4164 C29.1716,9.1964 28.3566,9.6924 28.1446,10.4824 C27.9376,11.2544 28.3656,12.0804 29.1356,12.2934 C32.6746,13.2744 35.2356,16.6304 34.9826,20.5314 C34.7066,24.7914 30.9556,28.0004 26.6866,28.0004 L24.6016,28.0004 C23.9236,28.0004 23.3296,28.4564 23.1536,29.1114 C22.8976,30.0644 23.6156,31.0004 24.6016,31.0004 L26.6206,31.0004 C32.6136,31.0004 37.7916,26.3694 37.9936,20.3804 C38.1696,15.1654 34.7126,10.7404 29.9606,9.4164 M13.3136,12.0004 L15.4086,12.0004 C16.0886,12.0004 16.6816,11.5444 16.8576,10.8874 C17.1126,9.9354 16.3946,9.0004 15.4086,9.0004 L13.3806,9.0004 C7.3856,9.0004 2.2056,13.6334 2.0066,19.6244 C1.8326,24.8414 5.2956,29.2674 10.0516,30.5874 C10.8406,30.8054 11.6536,30.3104 11.8656,29.5194 C12.0726,28.7474 11.6436,27.9214 10.8736,27.7084 C7.3316,26.7304 4.7656,23.3764 5.0166,19.4734 C5.2916,15.2124 9.0436,12.0004 13.3136,12.0004"></path>
    </g>
</svg>
