<svg xmlns="http://www.w3.org/2000/svg" xmlns:xlink="http://www.w3.org/1999/xlink" viewBox="0 0 20 20">

        <path transform="translate(1 1)"
              d="M17.25 11.5a.75.75 0 0 1 .75.75V16a2 2 0 0 1-2 2H2a2 2 0 0 1-2-2v-3.75a.75.75 0 1 1 1.5 0V16a.5.5 0 0 0 .5.5h14a.5.5 0 0 0 .5-.5v-3.75a.75.75 0 0 1 .75-.75zM9 0a.75.75 0 0 1 .75.75v9.19l3.316-3.316a.75.75 0 1 1 1.06 1.06L9.53 12.28a.752.752 0 0 1-.245.164c-.004 0-.007.001-.011.003l-.088.028a.74.74 0 0 1-.46-.029l-.005-.001a.75.75 0 0 1-.251-.165L3.874 7.684a.75.75 0 1 1 1.06-1.06L8.25 9.94V.75A.75.75 0 0 1 9 0z"/>
</svg>
