<svg xmlns="http://www.w3.org/2000/svg" viewBox="0 0 40 40">
    <path fill-rule="evenodd" d="M23.519 5.485a1 1 0 1 0-.001 2 1 1 0 0 0 0-2zm8.48 3.498H8V6a2 2 0 0 1 2-2v1.98c0 1.11.892 2 2 2h6.312a2 2 0 0 0 2-2V4H30c1.1 0 2 .9 2 2v2.983zM8 33.009h24V9.979H8v23.03zm24 1c-.008 1.1-.9 1.99-2 1.99H10c-1.108 0-1.99-.89-2-1.99v-.003h24v.004zM11 4h8.312v1.98c0 .56-.45 1-1 1H12a.99.99 0 0 1-1-1V4zm19-2H10C7.79 2 6 3.79 6 6v28c0 2.21 1.79 4 4 4h20c2.202 0 4-1.79 4-4V6c0-2.21-1.798-4-4-4zM20 13.49c2.5 0 4.732 1.15 6.21 2.96-.25.23-.478.492-.69.76a6.938 6.938 0 0 0-1.47 4.28c0 1.24.322 2.39.88 3.4.17.31.36.6.59.88.2.28.432.53.69.77A8.019 8.019 0 0 1 20 29.49c-4.418 0-8-3.58-8-8 0-4.41 3.582-8 8-8zm8 8c0 1.55-.438 3-1.21 4.22-.25-.25-.478-.53-.678-.82a6.04 6.04 0 0 1-.591-1.06 6.07 6.07 0 0 1-.47-2.34c0-.82.17-1.61.47-2.33.16-.37.36-.73.59-1.06.2-.29.43-.57.68-.82A7.865 7.865 0 0 1 28 21.49zm-8 10a9.977 9.977 0 0 0 8.42-4.61c1-1.55 1.58-3.4 1.58-5.39 0-1.98-.58-3.83-1.58-5.38-.178-.29-.37-.57-.588-.83A9.972 9.972 0 0 0 20 11.49c-5.53 0-10 4.48-10 10 0 5.53 4.47 10 10 10zm9.52-26.004a1 1 0 1 0-.001 2 1 1 0 0 0 0-2zm-3 0a1 1 0 1 0-.001 2 1 1 0 0 0 0-2zm-6.85 10.035v-1a6.95 6.95 0 0 0-6.63 6.34h.992a5.988 5.988 0 0 1 5.639-5.34z"/>
</svg>
