<svg viewBox="0 0 40 40" version="1.1" xmlns="http://www.w3.org/2000/svg" xmlns:xlink="http://www.w3.org/1999/xlink">
    <g>
        <path d="M22.1211,20.0002 L27.4251,14.6962 C28.0111,14.1112 28.0111,13.1612 27.4251,12.5752 C26.8391,11.9892 25.8891,11.9892 25.3041,12.5752 L20.0001,17.8782 L14.6961,12.5752 C14.1111,11.9892 13.1611,11.9892 12.5751,12.5752 C11.9891,13.1612 11.9891,14.1112 12.5751,14.6962 L17.8791,20.0002 L12.5751,25.3032 C11.9891,25.8892 11.9891,26.8392 12.5751,27.4242 C13.1611,28.0102 14.1111,28.0102 14.6961,27.4242 L20.0001,22.1212 L25.3041,27.4242 C25.8891,28.0102 26.8391,28.0102 27.4251,27.4242 C28.0111,26.8392 28.0111,25.8892 27.4251,25.3032 L22.1211,20.0002 Z"></path>
        <path d="M20,0.0002 C8.954,0.0002 0,8.9542 0,20.0002 C0,31.0452 8.954,40.0002 20,40.0002 C31.046,40.0002 40,31.0452 40,20.0002 C40,8.9542 31.046,0.0002 20,0.0002 M20,3.0002 C29.374,3.0002 37,10.6262 37,20.0002 C37,29.3742 29.374,37.0002 20,37.0002 C10.626,37.0002 3,29.3742 3,20.0002 C3,10.6262 10.626,3.0002 20,3.0002"></path>
    </g>
</svg>
