<svg viewBox="0 0 40 40" version="1.1" xmlns="http://www.w3.org/2000/svg" xmlns:xlink="http://www.w3.org/1999/xlink">
    <g fill-rule="evenodd">
        <path d="M33,24.5 L33,32 C33,32.553 32.553,33 32,33 L4,33 C3.448,33 3,32.553 3,32 L3,24.5 C3,23.672 2.329,23 1.5,23 C0.671,23 0,23.672 0,24.5 L0,32 C0,34.209 1.791,36 4,36 L32,36 C34.209,36 36,34.209 36,32 L36,24.5 C36,23.672 35.328,23 34.5,23 C33.672,23 33,23.672 33,24.5"></path>
        <path d="M19.0635004,0.44 C18.9245004,0.3 18.7575004,0.19 18.5725004,0.114 C18.3795004,0.04 18.1965004,0 18.0035004,0 C17.8085004,0 17.6255004,0.04 17.4555004,0.107 C17.2475004,0.19 17.0805004,0.3 16.9425004,0.44 L7.74950042,9.632 C7.16350042,10.218 7.16350042,11.167 7.74950042,11.753 C8.33550042,12.339 9.28450042,12.339 9.87050042,11.753 L16.5025004,5.121 L16.5025004,23.5 C16.5025004,24.328 17.1735004,25 18.0025004,25 C18.8305004,25 19.5025004,24.328 19.5025004,23.5 L19.5025004,5.121 L26.1345004,11.753 C26.7205004,12.339 27.6695004,12.339 28.2555004,11.753 C28.8415004,11.167 28.8415004,10.218 28.2555004,9.632 L19.0635004,0.44 Z"></path>
    </g>
</svg>
