<svg xmlns="http://www.w3.org/2000/svg" viewBox="0 0 40 40">
    <path fill-rule="evenodd" d="M15.879 15.364h7.625v-.998h-7.625v.998zm18.714-1.354l-1.71 1.71-1.66 1.66-.72-.72 2.149-2.15 1.391-1.39.439.44.281.28-.17.17zm-5 1.73V8.68l3.74 3.74-1 1-2.53 2.53-.21-.21zm-2 15.9h-16V6.88c.91-.69 1.92-1.25 3-1.68v.05c0 2.76 2.24 5 5 5 2.759 0 5-2.24 5-5V5.2c1.08.43 2.089.99 3 1.68v24.76zm-16 2h16v-1.002h-16v1.002zm8-27.41c1.36 0 2.71-.24 3.99-.69-.151 2.07-1.891 3.71-3.99 3.71-2.111 0-3.84-1.64-3.991-3.71 1.281.45 2.63.69 3.991.69zm-10 9.51l-.21.21-2.54-2.53-1-1 3.75-3.76v7.08zm-1.64 1.64l-1.65-1.66-1.71-1.71-.17-.17.28-.28.439-.44 1.391 1.39 2.14 2.15-.72.72zm28.93-4.25L30.652 6.9c-.13-.12-.25-.24-.369-.37-.221-.21-.45-.42-.69-.62-.191-.16-.38-.31-.58-.46-1.371-1.07-2.93-1.9-4.621-2.45-.089.05-.179.09-.269.14-.29.15-.601.29-.91.41-1.12.44-2.34.68-3.62.68-1.271 0-2.5-.24-3.62-.68-.311-.12-.611-.26-.911-.41-.089-.04-.179-.09-.269-.14-1.691.55-3.25 1.39-4.631 2.45-.189.15-.379.3-.569.45-.3.27-.601.54-.88.82l-6.42 6.41c-.391.4-.391 1.03 0 1.42l1.91 1.91 1.979 1.98 1.06 1.06c.2.19.461.29.711.29.26 0 .51-.1.709-.29l.931-.93v15.07c0 1.1.889 2 2 2h16c1.099 0 2-.9 2-2V18.57l.929.93c.191.19.451.29.701.29.259 0 .519-.1.709-.29l1.081-1.08 1.969-1.97 1.901-1.9c.389-.39.389-1.02 0-1.42zM14.91 18.919h9.561v-2.558H14.91v2.558z"/>
</svg>
