<svg xmlns="http://www.w3.org/2000/svg" viewBox="0 0 40 40">
        <path fill="#FFF" d="M20 40c1.098 0 2.176-.089 3.226-.259C32.738 38.2 31.079 29.947 31.079 20 31.08 8.954 31.046 4.412 20 4.412c-11.046 0-9.602 6.844-9.602 17.89 0 5.67-1.402 10.467-.122 13.04.64 1.286 2.431 3.748 6.537 4.405 1.038.167 2.102.253 3.187.253z"/>
        <path fill="#1877F2" d="M20 0C8.954 0 0 8.954 0 20c0 9.983 7.314 18.257 16.875 19.757V25.78h-5.078V20h5.078v-4.406c0-5.013 2.986-7.781 7.554-7.781 2.189 0 4.477.39 4.477.39v4.922h-2.522c-2.484 0-3.259 1.542-3.259 3.123V20h5.547l-.887 5.781h-4.66v13.976C32.686 38.257 40 29.983 40 20 40 8.954 31.046 0 20 0"/>
</svg>
