<svg viewBox="0 0 40 40" version="1.1" xmlns="http://www.w3.org/2000/svg">
    <g fill-rule="evenodd">
        <path d="M22,33 C20.89,33 19.92,32.39 19.4,31.5 C19.15,31.06 19,30.54 19,30 C19,29.46 19.15,28.94 19.4,28.5 C19.92,27.61 20.89,27 22,27 C23.11,27 24.08,27.61 24.6,28.5 C24.85,28.94 25,29.46 25,30 C25,30.54 24.85,31.06 24.6,31.5 C24.08,32.39 23.11,33 22,33 M34.5,28.5 L27.81,28.5 C27.14,25.92 24.79,24 22,24 C19.21,24 16.86,25.92 16.2,28.5 L1.5,28.5 C0.67,28.5 0,29.17 0,30 C0,30.83 0.67,31.5 1.5,31.5 L16.2,31.5 C16.86,34.08 19.21,36 22,36 C24.79,36 27.14,34.08 27.81,31.5 L34.5,31.5 C35.33,31.5 36,30.83 36,30 C36,29.17 35.33,28.5 34.5,28.5"></path>
        <path d="M11,21 C9.89,21 8.92,20.39 8.4,19.5 C8.15,19.06 8,18.54 8,18 C8,17.46 8.15,16.94 8.4,16.5 C8.92,15.61 9.89,15 11,15 C12.11,15 13.08,15.61 13.6,16.5 C13.85,16.94 14,17.46 14,18 C14,18.54 13.85,19.06 13.6,19.5 C13.08,20.39 12.11,21 11,21 M34.5,16.5 L16.81,16.5 C16.14,13.92 13.79,12 11,12 C8.21,12 5.86,13.92 5.2,16.5 L1.5,16.5 C0.67,16.5 0,17.17 0,18 C0,18.83 0.67,19.5 1.5,19.5 L5.2,19.5 C5.86,22.08 8.21,24 11,24 C13.79,24 16.14,22.08 16.81,19.5 L34.5,19.5 C35.33,19.5 36,18.83 36,18 C36,17.17 35.33,16.5 34.5,16.5"></path>
        <path d="M25,3 C26.11,3 27.08,3.61 27.6,4.5 C27.85,4.94 28,5.46 28,6 C28,6.54 27.85,7.06 27.6,7.5 C27.08,8.39 26.11,9 25,9 C23.89,9 22.92,8.39 22.4,7.5 C22.15,7.06 22,6.54 22,6 C22,5.46 22.15,4.94 22.4,4.5 C22.92,3.61 23.89,3 25,3 M1.5,7.5 L19.2,7.5 C19.86,10.08 22.21,12 25,12 C27.79,12 30.14,10.08 30.81,7.5 L34.5,7.5 C35.33,7.5 36,6.83 36,6 C36,5.17 35.33,4.5 34.5,4.5 L30.81,4.5 C30.14,1.92 27.79,0 25,0 C22.21,0 19.86,1.92 19.2,4.5 L1.5,4.5 C0.67,4.5 0,5.17 0,6 C0,6.83 0.67,7.5 1.5,7.5"></path>
    </g>
</svg>
