<svg viewBox="0 0 40 40" version="1.1" xmlns="http://www.w3.org/2000/svg">
            <path d="M11.804,31.6923 L15.191,31.6923 L15.191,30.6943 L11.804,30.6943 L11.804,31.6923 Z M6.724,28.6933 L22.73,28.6933 L22.73,26.6983 L6.724,26.6983 L6.724,28.6933 Z M34.723,31.6873 C34.723,32.7873 33.823,33.6873 32.723,33.6873 L6.723,33.6873 C5.623,33.6873 4.723,32.7873 4.723,31.6873 L4.723,17.6873 C4.723,16.5773 5.623,15.6873 6.723,15.6873 L32.723,15.6873 C33.823,15.6873 34.723,16.5773 34.723,17.6873 L34.723,31.6873 Z M27.943,5.1773 C28.943,4.7273 30.132,5.1773 30.583,6.1873 L31.013,7.1673 L16.373,13.6873 L8.813,13.6873 L27.943,5.1773 Z M33.053,11.7373 L34.013,13.9073 C33.603,13.7673 33.173,13.6873 32.723,13.6873 L28.673,13.6873 L33.053,11.7373 Z M38.103,18.1673 L32.403,5.3773 C31.513,3.3573 29.143,2.4473 27.123,3.3473 L3.373,13.9273 C1.353,14.8173 0.453,17.1873 1.343,19.2073 L2.723,22.3073 L2.723,31.6873 C2.723,33.8973 4.513,35.6873 6.723,35.6873 L32.723,35.6873 C34.933,35.6873 36.723,33.8973 36.723,31.6873 L36.723,23.0873 C38.283,22.0073 38.903,19.9573 38.103,18.1673 L38.103,18.1673 Z M31.379,25.6843 C31.379,26.2353 30.93,26.6843 30.379,26.6843 L27.379,26.6843 C26.828,26.6843 26.379,26.2353 26.379,25.6843 L26.379,23.6843 C26.379,23.1333 26.828,22.6843 27.379,22.6843 L30.379,22.6843 C30.93,22.6843 31.379,23.1333 31.379,23.6843 L31.379,25.6843 Z M30.379,21.6843 L27.379,21.6843 C26.275,21.6843 25.379,22.5803 25.379,23.6843 L25.379,25.6843 C25.379,26.7893 26.275,27.6843 27.379,27.6843 L30.379,27.6843 C31.484,27.6843 32.379,26.7893 32.379,25.6843 L32.379,23.6843 C32.379,22.5803 31.484,21.6843 30.379,21.6843 L30.379,21.6843 Z M6.724,31.6923 L10.111,31.6923 L10.111,30.6943 L6.724,30.6943 L6.724,31.6923 Z M9.223,18.6873 C9.533,18.6873 9.813,18.7773 10.053,18.9473 C9.843,19.3173 9.723,19.7373 9.723,20.1873 C9.723,20.6373 9.843,21.0573 10.053,21.4273 C9.813,21.5973 9.533,21.6873 9.223,21.6873 C8.393,21.6873 7.723,21.0073 7.723,20.1873 C7.723,19.3573 8.393,18.6873 9.223,18.6873 L9.223,18.6873 Z M11.393,18.9473 C11.632,18.7773 11.913,18.6873 12.223,18.6873 C13.043,18.6873 13.723,19.3673 13.723,20.1873 C13.723,21.0173 13.043,21.6873 12.223,21.6873 C11.913,21.6873 11.632,21.5973 11.393,21.4273 C10.993,21.1673 10.723,20.7073 10.723,20.1873 C10.723,19.6673 10.993,19.2073 11.393,18.9473 L11.393,18.9473 Z M9.223,22.6873 C9.783,22.6873 10.313,22.4973 10.723,22.1873 C11.132,22.4973 11.653,22.6873 12.223,22.6873 C13.603,22.6873 14.723,21.5673 14.723,20.1873 C14.723,18.8073 13.603,17.6873 12.223,17.6873 C11.653,17.6873 11.132,17.8773 10.723,18.1873 C10.313,17.8773 9.783,17.6873 9.223,17.6873 C7.843,17.6873 6.723,18.8073 6.723,20.1873 C6.723,21.5673 7.843,22.6873 9.223,22.6873 L9.223,22.6873 Z"></path>

</svg>
