<svg xmlns="http://www.w3.org/2000/svg" viewBox="0 0 20 20">
        <path transform="translate(1.5 1)"
                d="M8 4.995h8v-1H8v1zM14.325 17h-4.31v-.995h.485c.275 0 .5-.225.5-.5v-1c0-.275-.225-.5-.5-.5h-.485v-1h.485c.26 0 .475-.205.495-.46.31.135.65.21 1.005.21 1.38 0 2.5-1.12 2.5-2.5s-1.12-2.5-2.5-2.5c-.555 0-1.065.18-1.475.49-.37-.645-.945-1.16-1.635-1.455L8.83 6h6.34l-.845 11zM8.65 15.505c-.03-.07-.065-.14-.105-.205-.23-.375-.65-.625-1.125-.625-.555 0-1.035.34-1.23.83H.5v-1h1.065c.195.49.675.83 1.23.83.555 0 1.035-.34 1.23-.83H10.5v1H8.65zm-1.89 0c.15-.2.39-.33.66-.33s.51.13.655.33H6.76zM2.015 17h7v-.995h-7V17zM.5 12.505v-.5h4.145c0 .275.22.5.5.5.275 0 .5-.225.5-.5h2.04c-.11.09-.185.225-.185.38 0 .045.015.08.025.12h-4.1c0-.275-.225-.5-.5-.5-.28 0-.5.225-.5.5H.5zm1.515-1h7V10.5h-7v1.005zm6.46 1c.01-.04.025-.075.025-.12 0-.155-.075-.29-.19-.38h2.19v.5H8.475zm-5.025 2c-.145.2-.385.33-.655.33s-.51-.13-.66-.33H3.45zm-1.435-.5h7v-1h-7v1zm8.73-5.31c.34-.275.78-.44 1.255-.44 1.1 0 2 .895 2 2 0 1.1-.9 2-2 2-.365 0-.71-.1-1-.27-.01-.265-.23-.48-.5-.48h-.06c-.225-.285-.38-.63-.425-1.005h.485c.275 0 .5-.225.5-.5 0-.465-.09-.9-.255-1.305zM.5 10c0-1.655 1.345-3 3-3h4c.135 0 .275.01.405.03.37.045.72.165 1.03.335.515.285.935.705 1.215 1.22.085.165.16.34.215.52.09.285.135.585.135.895H.5zm16-7.005h-4.26V1.62L13.51.355 13.155 0 11.74 1.415v1.58H7.5c-.275 0-.5.225-.5.5v2c0 .28.225.5.5.5h.325l.04.525c-.12-.015-.24-.02-.365-.02h-4C1.565 6.5 0 8.065 0 10c0 .275.225.5.5.5h.515v1.005H.5c-.28 0-.5.225-.5.5v.5c0 .275.22.5.5.5h.515v1H.5c-.28 0-.5.225-.5.5v1c0 .275.22.5.5.5h.515V17c0 .55.445 1 1 1h7c.115 0 .225-.02.33-.06.105.04.215.06.33.06h4.65c.52 0 .955-.4.995-.925l.85-11.08h.33c.275 0 .5-.22.5-.5v-2c0-.275-.225-.5-.5-.5zM8.395 8.5c-.14 0-.27.06-.365.155-.08.09-.135.21-.135.345 0 .16.075.3.19.39v.005c.085.065.195.105.31.105.275 0 .5-.225.5-.5s-.225-.5-.5-.5zm-1.652-1c-.276 0-.5.223-.5.5 0 .276.224.5.5.5s.5-.224.5-.5c0-.277-.224-.5-.5-.5zM5.5 8.708c-.277 0-.5.224-.5.5s.223.5.5.5.5-.224.5-.5-.223-.5-.5-.5zm-3.205-.403c-.276 0-.5.223-.5.5 0 .276.224.5.5.5s.5-.224.5-.5c0-.277-.224-.5-.5-.5zm1.848-.827c-.276 0-.5.224-.5.5s.224.5.5.5c.277 0 .5-.224.5-.5s-.223-.5-.5-.5z"/>
</svg>
