<svg viewBox="0 0 40 40" version="1.1" xmlns="http://www.w3.org/2000/svg" xmlns:xlink="http://www.w3.org/1999/xlink">
    <g>
            <path d="M33.0002,22.0016 L32.8502,22.0016 L29.8002,22.0016 C29.5802,23.0716 29.1902,24.0816 28.6602,25.0016 C28.1102,25.9316 27.4302,26.7726 26.6302,27.4816 L28.1502,30.1216 L28.2302,30.2616 C28.7802,31.2116 28.4502,32.4416 27.5002,32.9916 C27.1902,33.1716 26.8602,33.2616 26.5002,33.2616 C25.7902,33.2616 25.1202,32.8716 24.7702,32.2616 L24.6902,32.1216 L23.1702,29.4816 C22.1702,29.8216 21.1102,30.0016 20.0002,30.0016 C18.8902,30.0016 17.8302,29.8216 16.8302,29.4816 L15.3102,32.1216 L15.2302,32.2616 C14.8702,32.8716 14.2102,33.2616 13.4902,33.2616 C13.1402,33.2616 12.8102,33.1716 12.5002,32.9916 C11.5402,32.4416 11.2202,31.2116 11.7702,30.2616 L11.8502,30.1216 L13.3702,27.4816 C12.5702,26.7726 11.8802,25.9316 11.3402,25.0016 C10.8102,24.0816 10.4202,23.0716 10.2002,22.0016 L7.1502,22.0016 L7.0002,22.0016 C5.9002,22.0016 5.0002,21.1016 5.0002,20.0016 C5.0002,18.9016 5.9002,18.0016 7.0002,18.0016 L7.1502,18.0016 L10.2002,18.0016 C10.4202,16.9216 10.8102,15.9216 11.3402,15.0016 C11.8802,14.0716 12.5702,13.2316 13.3702,12.5226 L11.8502,9.8816 L11.7702,9.7416 C11.2202,8.7816 11.5402,7.5616 12.5002,7.0116 C12.8102,6.8316 13.1402,6.7416 13.4902,6.7416 C14.2102,6.7416 14.8702,7.1216 15.2302,7.7416 L15.3102,7.8816 L16.8302,10.5226 C17.8302,10.1816 18.8902,10.0016 20.0002,10.0016 C21.1102,10.0016 22.1702,10.1816 23.1702,10.5226 L24.6902,7.8816 L24.7702,7.7416 C25.1202,7.1216 25.7902,6.7416 26.5002,6.7416 C26.8602,6.7416 27.1902,6.8316 27.5002,7.0116 C27.9602,7.2816 28.2902,7.7116 28.4302,8.2216 C28.5702,8.7416 28.5002,9.2816 28.2302,9.7416 L28.1502,9.8816 L26.6302,12.5226 C27.4302,13.2316 28.1202,14.0716 28.6602,15.0016 C29.1902,15.9216 29.5802,16.9216 29.8002,18.0016 L32.8502,18.0016 L33.0002,18.0016 C34.1002,18.0016 35.0002,18.9016 35.0002,20.0016 C35.0002,21.1016 34.1002,22.0016 33.0002,22.0016 M33.0002,15.0016 L32.0002,15.0016 C31.5702,13.9616 31.0002,12.9916 30.3302,12.1116 L30.8302,11.2416 C32.2102,8.8516 31.3902,5.7916 29.0002,4.4116 C28.2102,3.9616 27.3502,3.7416 26.5002,3.7416 C24.7802,3.7416 23.0902,4.6416 22.1702,6.2416 L21.6702,7.1116 C21.1202,7.0416 20.5702,7.0016 20.0002,7.0016 C19.4302,7.0016 18.8802,7.0416 18.3302,7.1116 L17.8302,6.2416 C16.9002,4.6416 15.2202,3.7416 13.4902,3.7416 C12.6502,3.7416 11.7902,3.9616 11.0002,4.4116 C8.6102,5.7916 7.7902,8.8516 9.1702,11.2416 L9.6702,12.1116 C9.0002,12.9916 8.4302,13.9616 8.0002,15.0016 L7.0002,15.0016 C4.2402,15.0016 2.0002,17.2416 2.0002,20.0016 C2.0002,22.7616 4.2402,25.0016 7.0002,25.0016 L8.0002,25.0016 C8.4302,26.0416 9.0002,27.0116 9.6702,27.8916 L9.1702,28.7616 C7.7902,31.1516 8.6102,34.2116 11.0002,35.5916 C11.7902,36.0416 12.6502,36.2616 13.4902,36.2616 C15.2202,36.2616 16.9002,35.3616 17.8302,33.7616 L18.3302,32.8916 C18.8802,32.9616 19.4302,33.0016 20.0002,33.0016 C20.5702,33.0016 21.1202,32.9616 21.6702,32.8916 L22.1702,33.7616 C23.1002,35.3616 24.7802,36.2616 26.5002,36.2616 C27.3502,36.2616 28.2102,36.0416 29.0002,35.5916 C31.3902,34.2116 32.2102,31.1516 30.8302,28.7616 L30.3302,27.8916 C31.0002,27.0116 31.5702,26.0416 32.0002,25.0016 L33.0002,25.0016 C35.7602,25.0016 38.0002,22.7616 38.0002,20.0016 C38.0002,17.2416 35.7602,15.0016 33.0002,15.0016"></path>
            <path d="M20.0002,13.0016 C16.1342,13.0016 13.0002,16.1356 13.0002,20.0016 C13.0002,23.8676 16.1342,27.0016 20.0002,27.0016 C23.8662,27.0016 27.0002,23.8676 27.0002,20.0016 C27.0002,16.1356 23.8662,13.0016 20.0002,13.0016 M20.0002,16.0016 C22.2062,16.0016 24.0002,17.7956 24.0002,20.0016 C24.0002,22.2076 22.2062,24.0016 20.0002,24.0016 C17.7942,24.0016 16.0002,22.2076 16.0002,20.0016 C16.0002,17.7956 17.7942,16.0016 20.0002,16.0016"></path>
    </g>
</svg>