<svg version="1.1" xmlns="http://www.w3.org/2000/svg"   viewBox="0 0 32 32">
    <path d="M16 1.143c-6.4 0-11.657 5.143-11.657 11.429 0 7.886 11.657 18.286 11.657 18.286s11.657-10.4 11.657-18.286c0-6.286-5.257-11.429-11.657-11.429zM16 27.314c-3.543-3.543-9.029-10.057-9.029-14.743 0-4.914 4.114-8.8 9.029-8.8s9.029 3.886 9.029 8.8c0 4.686-5.6 11.2-9.029 14.743zM16 7.657c-2.857 0-5.143 2.286-5.143 5.143s2.286 5.143 5.143 5.143 5.143-2.286 5.143-5.143-2.286-5.143-5.143-5.143zM16 15.314c-1.371 0-2.629-1.143-2.629-2.629s1.143-2.629 2.629-2.629 2.629 1.257 2.629 2.629c0 1.486-1.257 2.629-2.629 2.629z"></path>
</svg>
