<svg version="1.1" xmlns="http://www.w3.org/2000/svg"   viewBox="0 0 32 32">
<path d="M16 6.72c3.794 0.032 6.858 3.115 6.858 6.914 0 0.028-0 0.056-0 0.085 0 2.373-3.543 7.401-6.857 11.219-3.28-3.806-6.857-8.823-6.857-11.223-0-0.024-0-0.052-0-0.080 0-3.799 3.063-6.882 6.855-6.914zM16 3.691c-5.451 0.045-9.852 4.474-9.852 9.931 0 0.032 0 0.064 0 0.097-0 5.538 9.851 15.732 9.851 15.732s9.851-10.194 9.851-15.737c0-0.027 0-0.059 0-0.092 0-5.457-4.401-9.886-9.848-9.931zM16 11.269c1.262 0 2.286 1.023 2.286 2.286s-1.023 2.286-2.286 2.286c-1.262 0-2.286-1.023-2.286-2.286s1.023-2.286 2.286-2.286z"></path>
</svg>
