<svg xmlns="http://www.w3.org/2000/svg" viewBox="0 0 40 40">
    <g fill-rule="evenodd" transform="translate(0 7)">
        <path d="M13.266 26.058C5.95 26.058 0 20.214 0 13.028 0 5.846 5.951 0 13.266 0a13.4 13.4 0 0 1 8.701 3.196l-3.373 3.807a8.206 8.206 0 0 0-5.328-1.956c-4.482 0-8.127 3.581-8.127 7.982 0 4.4 3.646 7.98 8.127 7.98 3.791 0 6.273-1.816 7.08-5.075h-7.018v-5.047H25.77v2.524c0 7.563-5.025 12.647-12.504 12.647zm26.35-15.169v3.077H35.77v3.847h-3.077v-3.847h-3.847V10.89h3.847V7.043h3.077v3.846h3.846z"/>
    </g>
</svg>
