<svg viewBox="0 0 20 20" version="1.1" xmlns="http://www.w3.org/2000/svg" xmlns:xlink="http://www.w3.org/1999/xlink">
    <g id="V2-/-Statistics" stroke="none" stroke-width="1" fill="none" fill-rule="evenodd">
        <g id="grade_a_colored" transform="translate(0.768499, 0.000000)">
            <path d="M11.3634252,0.57124729 L16.3310787,3.43932338 C17.6503179,4.20098643 18.4630027,5.6085978 18.4630027,7.13192391 L18.4630027,12.8680761 C18.4630027,14.3914022 17.6503179,15.7990136 16.3310787,16.5606766 L11.3634252,19.4287527 C10.0441861,20.1904158 8.41881652,20.1904158 7.09957742,19.4287527 L2.13192391,16.5606766 C0.812684804,15.7990136 0,14.3914022 0,12.8680761 L0,7.13192391 C0,5.6085978 0.812684804,4.20098643 2.13192391,3.43932338 L7.09957742,0.57124729 C8.41881652,-0.190415763 10.0441861,-0.190415763 11.3634252,0.57124729 Z" id="Mask" fill="#00AD00"></path>
            <path d="M8.23038133,11.20296 L9.25918133,8.02336 L9.29918133,8.02336 L10.3279813,11.20296 L8.23038133,11.20296 Z M13.3879813,14.46296 L10.3147813,5.64496 C10.2879813,5.55136 10.2347813,5.51136 10.1407813,5.51136 L8.45758133,5.51136 C8.36398133,5.51136 8.31038133,5.55136 8.28398133,5.64496 L5.15718133,14.46296 C5.13078133,14.55656 5.15718133,14.59656 5.25118133,14.59656 L7.00118133,14.59656 C7.09478133,14.59656 7.14838133,14.55656 7.17478133,14.46296 L7.68278133,12.87336 L10.8623813,12.87336 L11.3835813,14.46296 C11.4103813,14.55656 11.4635813,14.59656 11.5571813,14.59656 L13.2939813,14.59656 C13.3879813,14.59656 13.4143813,14.55656 13.3879813,14.46296 L13.3879813,14.46296 Z" id="Mask" fill="#FFFFFF"></path>
        </g>
    </g>
</svg>
