<svg viewBox="0 0 20 20" version="1.1" xmlns="http://www.w3.org/2000/svg" xmlns:xlink="http://www.w3.org/1999/xlink">
    <g id="V2-/-Statistics" stroke="none" stroke-width="1" fill-rule="evenodd">
        <path d="M12.1319242,0.57124729 L17.0995777,3.43932338 C18.4188169,4.20098643 19.2315017,5.6085978 19.2315017,7.13192391 L19.2315017,12.8680761 C19.2315017,14.3914022 18.4188169,15.7990136 17.0995777,16.5606766 L12.1319242,19.4287527 C10.8126851,20.1904158 9.18731552,20.1904158 7.86807642,19.4287527 L2.90042291,16.5606766 C1.5811838,15.7990136 0.768499,14.3914022 0.768499,12.8680761 L0.768499,7.13192391 C0.768499,5.6085978 1.5811838,4.20098643 2.90042291,3.43932338 L7.86807642,0.57124729 C9.18731552,-0.190415763 10.8126851,-0.190415763 12.1319242,0.57124729 Z M10.2752003,5.36468 C8.67160033,5.36468 7.52280033,6.13948 7.04160033,7.59588 C6.86800033,8.09028 6.78800033,8.91868 6.78800033,10.05428 C6.78800033,11.18988 6.86800033,12.01828 7.04160033,12.51228 C7.52280033,13.96868 8.67160033,14.74348 10.2752003,14.74348 C11.8116003,14.74348 12.9204003,14.00868 13.4416003,12.72628 C13.4816003,12.64588 13.4680003,12.59268 13.3748003,12.56588 L11.9184003,11.91108 C11.8380003,11.87148 11.7712003,11.88468 11.7316003,11.97788 C11.4372003,12.65948 10.9564003,13.00708 10.2884003,13.00708 C9.59360033,13.00708 9.13920033,12.67308 8.92560033,12.00508 C8.83240033,11.69748 8.77880033,11.05628 8.77880033,10.05428 C8.77880033,9.05228 8.83240033,8.41068 8.92560033,8.10348 C9.13920033,7.43548 9.59360033,7.10148 10.2884003,7.10148 C10.9564003,7.10148 11.4372003,7.44868 11.7316003,8.13028 C11.7712003,8.22388 11.8380003,8.23708 11.9184003,8.19708 L13.3748003,7.54228 C13.4680003,7.51548 13.4816003,7.46228 13.4416003,7.38188 C12.9204003,6.09948 11.8116003,5.36468 10.2752003,5.36468 Z" id="grade_c"></path>
    </g>
</svg>
