<svg viewBox="0 0 20 20" version="1.1" xmlns="http://www.w3.org/2000/svg">
    <defs>
        <linearGradient x1="14.5844727%" y1="50%" x2="92.7041016%" y2="50%" id="linearGradient-1">
            <stop stop-color="#FFA54A" offset="0%"></stop>
            <stop stop-color="#F079C8" offset="56.5248643%"></stop>
            <stop stop-color="#43AEFF" offset="100%"></stop>
        </linearGradient>
    </defs>
    <g id="grade_a+_colored_gradient" stroke="none" stroke-width="1" fill-rule="evenodd">
        <g id="grade_a+_colored-copy">
            <path d="M12.1319239,0.57124729 L17.0995774,3.43932338 C18.4188165,4.20098643 19.2315013,5.6085978 19.2315013,7.13192391 L19.2315013,12.8680761 C19.2315013,14.3914022 18.4188165,15.7990136 17.0995774,16.5606766 L12.1319239,19.4287527 C10.8126848,20.1904158 9.1873152,20.1904158 7.86807609,19.4287527 L2.90042258,16.5606766 C1.58118348,15.7990136 0.768498672,14.3914022 0.768498672,12.8680761 L0.768498672,7.13192391 C0.768498672,5.6085978 1.58118348,4.20098643 2.90042258,3.43932338 L7.86807609,0.57124729 C9.1873152,-0.190415763 10.8126848,-0.190415763 12.1319239,0.57124729 Z" id="Mask" fill="url(#linearGradient-1)"></path>
            <path d="M5.9842,11.20296 L7.013,8.02336 L7.053,8.02336 L8.0818,11.20296 L5.9842,11.20296 Z M8.0686,5.64496 C8.0418,5.55136 7.9886,5.51136 7.8946,5.51136 L6.2114,5.51136 C6.1178,5.51136 6.0642,5.55136 6.0378,5.64496 L2.911,14.46296 C2.8846,14.55656 2.911,14.59656 3.005,14.59656 L4.755,14.59656 C4.8486,14.59656 4.9022,14.55656 4.9286,14.46296 L5.4366,12.87336 L8.6162,12.87336 L9.1374,14.46296 C9.1642,14.55656 9.2174,14.59656 9.311,14.59656 L11.0478,14.59656 C11.1418,14.59656 11.1682,14.55656 11.1418,14.46296 L8.0686,5.64496 Z M17.0222,9.18896 L15.0178,9.18896 C14.9642,9.18896 14.9378,9.16216 14.9378,9.10896 L14.9378,7.07776 C14.9378,6.98416 14.8974,6.94456 14.8042,6.94456 L13.4414,6.94456 C13.3478,6.94456 13.3078,6.98416 13.3078,7.07776 L13.3078,9.10896 C13.3078,9.16216 13.281,9.18896 13.2274,9.18896 L11.2234,9.18896 C11.1298,9.18896 11.0898,9.22896 11.0898,9.32256 L11.0898,10.63176 C11.0898,10.72536 11.1298,10.76536 11.2234,10.76536 L13.2274,10.76536 C13.281,10.76536 13.3078,10.79216 13.3078,10.84536 L13.3078,12.87656 C13.3078,12.96976 13.3478,13.01016 13.4414,13.01016 L14.8042,13.01016 C14.8974,13.01016 14.9378,12.96976 14.9378,12.87656 L14.9378,10.84536 C14.9378,10.79216 14.9642,10.76536 15.0178,10.76536 L17.0222,10.76536 C17.1154,10.76536 17.1558,10.72536 17.1558,10.63176 L17.1558,9.32256 C17.1558,9.22896 17.1154,9.18896 17.0222,9.18896 L17.0222,9.18896 Z" id="Mask" fill="#FFFFFF"></path>
        </g>
    </g>
</svg>
