<svg viewBox="0 0 20 20" version="1.1" xmlns="http://www.w3.org/2000/svg" xmlns:xlink="http://www.w3.org/1999/xlink">
    <g id="V2-/-Statistics" stroke="none" stroke-width="1" fill="none" fill-rule="evenodd">
        <g id="grade_b_colored" transform="translate(0.768499, 0.000000)">
            <path d="M11.3634252,0.57124729 L16.3310787,3.43932338 C17.6503179,4.20098643 18.4630027,5.6085978 18.4630027,7.13192391 L18.4630027,12.8680761 C18.4630027,14.3914022 17.6503179,15.7990136 16.3310787,16.5606766 L11.3634252,19.4287527 C10.0441861,20.1904158 8.41881652,20.1904158 7.09957742,19.4287527 L2.13192391,16.5606766 C0.812684804,15.7990136 0,14.3914022 0,12.8680761 L0,7.13192391 C0,5.6085978 0.812684804,4.20098643 2.13192391,3.43932338 L7.09957742,0.57124729 C8.41881652,-0.190415763 10.0441861,-0.190415763 11.3634252,0.57124729 Z" id="Mask" fill="#E46F00"></path>
            <path d="M9.56698133,13.00688 L8.07058133,13.00688 C8.01698133,13.00688 7.99058133,12.98008 7.99058133,12.92688 L7.99058133,10.81568 C7.99058133,10.76248 8.01698133,10.73528 8.07058133,10.73528 L9.56698133,10.73528 C10.3553813,10.73528 10.7961813,11.16328 10.7961813,11.87128 C10.7961813,12.57928 10.3685813,13.00688 9.56698133,13.00688 L9.56698133,13.00688 Z M7.99058133,7.18168 C7.99058133,7.12808 8.01698133,7.10128 8.07058133,7.10128 L9.45978133,7.10128 C10.2085813,7.10128 10.6489813,7.50208 10.6489813,8.15688 C10.6489813,8.83808 10.2085813,9.22568 9.45978133,9.22568 L8.07058133,9.22568 C8.01698133,9.22568 7.99058133,9.19888 7.99058133,9.14568 L7.99058133,7.18168 Z M11.5441813,9.89368 L11.5441813,9.86688 C12.2525813,9.47968 12.5997813,8.82488 12.5997813,7.93008 C12.5997813,6.43328 11.6245813,5.51168 9.70058133,5.51168 L6.15978133,5.51168 C6.06658133,5.51168 6.02618133,5.55128 6.02618133,5.64528 L6.02618133,14.46328 C6.02618133,14.55648 6.06658133,14.59688 6.15978133,14.59688 L9.60738133,14.59688 C11.6245813,14.59688 12.7601813,13.71528 12.7601813,11.95128 C12.7601813,10.93568 12.1989813,10.14768 11.5441813,9.89368 L11.5441813,9.89368 Z" id="Mask" fill="#FFFFFF"></path>
        </g>
    </g>
</svg>
