<svg viewBox="0 0 20 20" version="1.1" xmlns="http://www.w3.org/2000/svg" xmlns:xlink="http://www.w3.org/1999/xlink">
    <g id="V2-/-Statistics" stroke="none" stroke-width="1" fill="none" fill-rule="evenodd">
        <g id="grade_d_colored" transform="translate(0.768499, 0.000000)">
            <path d="M11.3634252,0.57124729 L16.3310787,3.43932338 C17.6503179,4.20098643 18.4630027,5.6085978 18.4630027,7.13192391 L18.4630027,12.8680761 C18.4630027,14.3914022 17.6503179,15.7990136 16.3310787,16.5606766 L11.3634252,19.4287527 C10.0441861,20.1904158 8.41881652,20.1904158 7.09957742,19.4287527 L2.13192391,16.5606766 C0.812684804,15.7990136 0,14.3914022 0,12.8680761 L0,7.13192391 C0,5.6085978 0.812684804,4.20098643 2.13192391,3.43932338 L7.09957742,0.57124729 C8.41881652,-0.190415763 10.0441861,-0.190415763 11.3634252,0.57124729 Z" id="Mask" fill="#BEBEBE"></path>
            <path d="M10.6491413,11.8444 C10.4483413,12.5124 9.88754133,12.8464 8.96554133,12.8464 L7.93674133,12.8464 C7.88314133,12.8464 7.85674133,12.8196 7.85674133,12.7664 L7.85674133,7.342 C7.85674133,7.2884 7.88314133,7.2616 7.93674133,7.2616 L8.96554133,7.2616 C9.88754133,7.2616 10.4483413,7.596 10.6491413,8.264 C10.7423413,8.5444 10.7959413,9.1324 10.7959413,10.054 C10.7959413,10.976 10.7423413,11.564 10.6491413,11.8444 M12.5459413,7.5556 C12.1055413,6.1928 11.0631413,5.5116 9.40674133,5.5116 L6.02594133,5.5116 C5.93274133,5.5116 5.89234133,5.5516 5.89234133,5.6452 L5.89234133,14.4632 C5.89234133,14.5564 5.93274133,14.5968 6.02594133,14.5968 L9.40674133,14.5968 C11.0631413,14.5968 12.1055413,13.9156 12.5459413,12.5528 C12.7067413,12.0448 12.7867413,11.2168 12.7867413,10.054 C12.7867413,8.8916 12.7067413,8.0636 12.5459413,7.5556" id="Mask" fill="#FFFFFF"></path>
        </g>
    </g>
</svg>
