<svg viewBox="0 0 40 40" version="1.1" xmlns="http://www.w3.org/2000/svg">
        <g id="Icon/Graph" transform="translate(2.000000, 2.000000)">
                <path d="M34.4996,33 L2.9996,33 L2.9996,25.104 L10.2866,17.818 C10.8726,17.232 10.8726,16.282 10.2866,15.697 C9.7006,15.111 8.7516,15.111 8.1656,15.697 L2.9996,20.862 L2.9996,1.5 C2.9996,0.671 2.3286,0 1.4996,0 C0.6716,0 -0.0004,0.671 -0.0004,1.5 L-0.0004,34.5 C-0.0004,35.328 0.6716,36 1.4996,36 L34.4996,36 C35.3286,36 35.9996,35.328 35.9996,34.5 C35.9996,33.672 35.3286,33 34.4996,33"></path>
                <path d="M23.857,26.2666 C25.513,26.2666 26.857,24.9236 26.857,23.2666 C26.857,21.6096 25.513,20.2666 23.857,20.2666 C22.2,20.2666 20.857,21.6096 20.857,23.2666 C20.857,24.9236 22.2,26.2666 23.857,26.2666"></path>
                <path d="M13.2867,15.6968 C14.9437,15.6968 16.2867,14.3538 16.2867,12.6968 C16.2867,11.0398 14.9437,9.6968 13.2867,9.6968 C11.6297,9.6968 10.2867,11.0398 10.2867,12.6968 C10.2867,14.3538 11.6297,15.6968 13.2867,15.6968"></path>
                <path d="M16.2867,15.6968 C15.7007,16.2818 15.7007,17.2328 16.2867,17.8178 L18.7347,20.2668 C19.3207,20.8528 20.2707,20.8528 20.8567,20.2668 C21.4427,19.6808 21.4427,18.7308 20.8567,18.1448 L18.4077,15.6968 C17.8227,15.1108 16.8727,15.1108 16.2867,15.6968"></path>
                <path d="M26.8931,20.3037 C27.4791,20.8887 28.4291,20.8887 29.0151,20.3037 L35.5611,13.7577 C36.1461,13.1717 36.1461,12.2217 35.5611,11.6367 L35.5611,11.6357 C34.9751,11.0507 34.0251,11.0507 33.4391,11.6357 L26.8931,18.1817 C26.3071,18.7677 26.3071,19.7177 26.8931,20.3027 L26.8931,20.3037 Z"></path>
    </g>
</svg>
