<svg viewBox="0 0 20 20" version="1.1" xmlns="http://www.w3.org/2000/svg" xmlns:xlink="http://www.w3.org/1999/xlink">
    <g>
		<path transform="translate(0, 0)" d="M10 15.023c-.729 0-1.451-.066-2.149-.198-.689-.13-1.223.392-1.745.895-.332.321-.889.86-1.122.755-.274-.123-.261-.646-.216-1.318.042-.637.09-1.36-.481-1.742-1.636-1.096-2.537-2.559-2.537-4.12 0-3.157 3.701-5.727 8.25-5.727 4.549 0 8.25 2.57 8.25 5.728s-3.701 5.727-8.25 5.727m0-12.955C4.624 2.068.25 5.31.25 9.296c0 1.992 1.106 3.898 3.042 5.256.004.136-.011.35-.021.505-.055.833-.148 2.227 1.099 2.787.235.105.462.15.681.15.859 0 1.582-.698 2.096-1.194.167-.16.407-.392.542-.48.752.135 1.53.203 2.311.203 5.376 0 9.75-3.242 9.75-7.227 0-3.986-4.374-7.228-9.75-7.228m4.5 5.759c-.829 0-1.5.671-1.5 1.5 0 .828.671 1.5 1.5 1.5.828 0 1.5-.672 1.5-1.5 0-.829-.672-1.5-1.5-1.5m-4.5 0c-.829 0-1.5.671-1.5 1.5 0 .828.671 1.5 1.5 1.5.828 0 1.5-.672 1.5-1.5 0-.829-.672-1.5-1.5-1.5m-4.5 0c-.829 0-1.5.671-1.5 1.5 0 .828.671 1.5 1.5 1.5.828 0 1.5-.672 1.5-1.5 0-.829-.672-1.5-1.5-1.5" transform="translate(979 35)"/>
	</g>
</svg>
