<svg xmlns="http://www.w3.org/2000/svg" viewBox="0 0 40 40">
    <path id="instagram_colored" fill="url(#instagramgradient) #C330A0"
          d="M39.88 11.754c-.097-2.129-.436-3.583-.93-4.855-.511-1.315-1.195-2.43-2.307-3.542-1.112-1.112-2.227-1.796-3.542-2.307-1.272-.495-2.726-.833-4.855-.93C26.113.023 25.432 0 20 0s-6.113.023-8.246.12c-2.129.097-3.583.435-4.855.93-1.315.511-2.43 1.195-3.542 2.307C2.245 4.469 1.56 5.584 1.05 6.899.556 8.171.217 9.625.12 11.754.023 13.887 0 14.568 0 20s.023 6.113.12 8.246c.097 2.129.436 3.583.93 4.855.511 1.315 1.195 2.43 2.307 3.542 1.112 1.112 2.227 1.796 3.542 2.307 1.272.494 2.726.833 4.855.93 2.133.097 2.814.12 8.246.12s6.113-.023 8.246-.12c2.129-.097 3.583-.436 4.855-.93 1.315-.511 2.43-1.195 3.542-2.307 1.112-1.112 1.796-2.227 2.307-3.542.494-1.272.833-2.726.93-4.855.097-2.133.12-2.814.12-8.246s-.023-6.113-.12-8.246"/>
    <path fill="#FFF"
          d="M28 10.191c-.994 0-1.8.806-1.8 1.8s.806 1.8 1.8 1.8 1.8-.806 1.8-1.8-.806-1.8-1.8-1.8M32.2 26.055c-.066 1.462-.31 2.256-.516 2.784-.272.7-.597 1.2-1.122 1.724-.524.525-1.024.85-1.724 1.122-.528.205-1.322.45-2.784.516-1.581.072-2.056.088-6.06.088s-4.478-.016-6.059-.088c-1.462-.066-2.256-.31-2.785-.516-.7-.272-1.199-.597-1.724-1.122-.524-.524-.85-1.024-1.121-1.724-.206-.528-.45-1.322-.517-2.784-.072-1.582-.087-2.056-.087-6.06s.015-4.478.087-6.06c.067-1.461.311-2.255.517-2.784.272-.7.597-1.199 1.121-1.724.525-.524 1.025-.85 1.724-1.121.529-.206 1.323-.45 2.785-.517 1.581-.072 2.055-.087 6.06-.087 4.003 0 4.477.015 6.059.087 1.462.067 2.256.311 2.784.517.7.272 1.2.597 1.724 1.121.525.525.85 1.025 1.122 1.724.205.529.45 1.323.516 2.785.072 1.581.088 2.055.088 6.06 0 4.003-.016 4.477-.088 6.059m2.7-12.242c-.074-1.596-.327-2.686-.698-3.64-.383-.986-.896-1.823-1.73-2.656-.833-.834-1.67-1.347-2.655-1.73-.954-.37-2.044-.624-3.64-.697-1.6-.073-2.11-.09-6.183-.09-4.072 0-4.583.017-6.182.09-1.596.073-2.686.326-3.64.697-.986.383-1.823.896-2.656 1.73-.834.833-1.347 1.67-1.73 2.656-.37.954-.624 2.044-.697 3.64-.073 1.6-.09 2.11-.09 6.182 0 4.073.017 4.583.09 6.183.073 1.596.327 2.686.697 3.64.383.986.896 1.822 1.73 2.656.833.833 1.67 1.346 2.656 1.73.954.37 2.044.623 3.64.696 1.6.073 2.11.09 6.182.09 4.073 0 4.583-.017 6.183-.09 1.596-.072 2.686-.326 3.64-.697.986-.383 1.822-.896 2.656-1.73.833-.833 1.346-1.67 1.73-2.655.37-.954.623-2.044.696-3.64.073-1.6.09-2.11.09-6.183 0-4.072-.017-4.583-.09-6.182m-14.905 11.18c-2.76 0-4.998-2.237-4.998-4.998 0-2.76 2.238-4.998 4.998-4.998 2.76 0 4.999 2.238 4.999 4.998 0 2.76-2.238 4.999-4.999 4.999m0-12.7c-4.253 0-7.7 3.448-7.7 7.701s3.447 7.7 7.7 7.7 7.7-3.447 7.7-7.7-3.447-7.7-7.7-7.7"/>
    <defs>
        <radialGradient id="instagramgradient" cx="23.503%" cy="94.146%" r="125.787%" fx="23.503%" fy="94.146%">
            <stop offset="0%" stop-color="#FFDC82"/>
            <stop offset="15.714%" stop-color="#FB973C"/>
            <stop offset="29.927%" stop-color="#F15A40"/>
            <stop offset="44.67%" stop-color="#DF3169"/>
            <stop offset="59.114%" stop-color="#9E389C"/>
            <stop offset="71.082%" stop-color="#C12F9A"/>
            <stop offset="100%" stop-color="#4C64D3"/>
        </radialGradient>
    </defs>
</svg>
