<svg xmlns="http://www.w3.org/2000/svg" viewBox="0 0 30 30">
        <g class="loading-dots-container">
            <path class="loading-dots" transform="translate(1.5 1.5)" d="M13.5 22.5c1.243 0 2.25 1.007 2.25 2.25S14.743 27 13.5 27s-2.25-1.007-2.25-2.25 1.007-2.25 2.25-2.25zm-9.546-2.636c.879-.879 2.303-.879 3.182 0s.879 2.303 0 3.182-2.303.879-3.182 0-.879-2.303 0-3.182zm15.91 0c.879-.879 2.303-.879 3.182 0s.879 2.303 0 3.182-2.303.879-3.182 0-.879-2.303 0-3.182zm4.886-8.614c1.243 0 2.25 1.007 2.25 2.25s-1.007 2.25-2.25 2.25-2.25-1.007-2.25-2.25 1.007-2.25 2.25-2.25zm-22.5 0c1.243 0 2.25 1.007 2.25 2.25s-1.007 2.25-2.25 2.25S0 14.743 0 13.5s1.007-2.25 2.25-2.25zm17.614-7.296c.879-.879 2.303-.879 3.182 0s.879 2.303 0 3.182-2.303.879-3.182 0-.879-2.303 0-3.182zm-15.91 0c.879-.879 2.303-.879 3.182 0s.879 2.303 0 3.182-2.303.879-3.182 0-.879-2.303 0-3.182zM13.5 0c1.243 0 2.25 1.007 2.25 2.25S14.743 4.5 13.5 4.5s-2.25-1.007-2.25-2.25S12.257 0 13.5 0z"/>
        </g>

    <style>
        .loading-dots-container{
            fill: #fff;
            animation: rotation 2s linear infinite;
            transform-origin: center;
        }
        @keyframes rotation {
            0%   {
                transform: rotate(0);
            }
            100% {
                transform: rotate(360deg);
            }
        }
    </style>
</svg>
