<svg viewBox="0 0 175 40" version="1.1" xmlns="http://www.w3.org/2000/svg">
    <g id="Logo-/-Suite---Statistics-(Ru)" stroke="none" stroke-width="1" fill-rule="evenodd">
        <path d="M12.45,30.36 C16.38,30.36 18.78,28.92 20.97,26.64 L18.6,24.24 C16.8,25.92 15.15,26.97 12.57,26.97 C8.55,26.97 5.64,23.61 5.64,19.5 C5.64,15.33 8.55,12.03 12.57,12.03 C14.97,12.03 16.77,13.08 18.45,14.64 L20.82,11.91 C18.81,9.99 16.47,8.64 12.6,8.64 C6.24,8.64 1.77,13.53 1.77,19.5 C1.77,25.59 6.33,30.36 12.45,30.36 Z M31.47,30 L31.47,17.28 L36.57,17.28 L36.57,14.16 L22.71,14.16 L22.71,17.28 L27.81,17.28 L27.81,30 L31.47,30 Z M43.41,30.33 C45.81,30.33 47.46,29.34 48.54,28.05 L48.54,30 L52.14,30 L52.14,20.61 C52.14,16.38 49.86,13.92 45.18,13.92 C42.6,13.92 40.89,14.46 39.15,15.24 L40.14,18.15 C41.58,17.55 42.9,17.16 44.67,17.16 C47.19,17.16 48.57,18.36 48.57,20.55 L48.57,20.85 C47.34,20.46 46.11,20.19 44.19,20.19 C40.5,20.19 37.77,21.87 37.77,25.38 C37.77,28.62 40.41,30.33 43.41,30.33 Z M44.43,27.6 C42.72,27.6 41.37,26.76 41.37,25.26 C41.37,23.67 42.72,22.74 45,22.74 C46.41,22.74 47.7,23.01 48.63,23.37 L48.63,24.27 C48.63,26.25 46.83,27.6 44.43,27.6 Z M63.51,30 L63.51,17.28 L68.61,17.28 L68.61,14.16 L54.75,14.16 L54.75,17.28 L59.85,17.28 L59.85,30 L63.51,30 Z M74.91,30 L82.44,19.44 L82.44,30 L85.95,30 L85.95,14.16 L82.53,14.16 C80.01,17.7 77.52,21.24 75.03,24.78 L75.03,14.16 L71.49,14.16 L71.49,30 L74.91,30 Z M97.83,30.36 C100.92,30.36 102.75,29.13 104.31,27.39 L102.12,25.23 C100.98,26.4 99.72,27.21 98.01,27.21 C95.22,27.21 93.27,24.93 93.27,22.11 L93.27,22.05 C93.27,19.29 95.19,17.01 97.83,17.01 C99.66,17.01 100.83,17.82 101.94,18.99 L104.19,16.56 C102.72,14.94 100.86,13.83 97.86,13.83 C93.12,13.83 89.64,17.61 89.64,22.11 L89.64,22.17 C89.64,26.67 93.12,30.36 97.83,30.36 Z M114.54,30 L114.54,17.28 L119.64,17.28 L119.64,14.16 L105.78,14.16 L105.78,17.28 L110.88,17.28 L110.88,30 L114.54,30 Z M125.94,30 L133.47,19.44 L133.47,30 L136.98,30 L136.98,14.16 L133.56,14.16 C131.04,17.7 128.55,21.24 126.06,24.78 L126.06,14.16 L122.52,14.16 L122.52,30 L125.94,30 Z M145.14,30 L145.14,26.19 L147.72,23.46 L152.52,30 L156.81,30 L150.15,20.82 L156.3,14.16 L152.04,14.16 L145.14,21.75 L145.14,14.16 L141.54,14.16 L141.54,30 L145.14,30 Z M163.29,30.33 C165.69,30.33 167.34,29.34 168.42,28.05 L168.42,30 L172.02,30 L172.02,20.61 C172.02,16.38 169.74,13.92 165.06,13.92 C162.48,13.92 160.77,14.46 159.03,15.24 L160.02,18.15 C161.46,17.55 162.78,17.16 164.55,17.16 C167.07,17.16 168.45,18.36 168.45,20.55 L168.45,20.85 C167.22,20.46 165.99,20.19 164.07,20.19 C160.38,20.19 157.65,21.87 157.65,25.38 C157.65,28.62 160.29,30.33 163.29,30.33 Z M164.31,27.6 C162.6,27.6 161.25,26.76 161.25,25.26 C161.25,23.67 162.6,22.74 164.88,22.74 C166.29,22.74 167.58,23.01 168.51,23.37 L168.51,24.27 C168.51,26.25 166.71,27.6 164.31,27.6 Z" id="Статистика" fill-rule="nonzero"></path>
    </g>
</svg>
