<svg xmlns="http://www.w3.org/2000/svg" viewBox="0 0 20 20">
    <path transform="translate(1.5)"
          d="M11.818 3.203c-.502-.22-1.068.13-1.068.68v.003c0 .29.162.561.428.677 2.645 1.148 4.42 3.936 4.014 7.078-.39 3.036-2.873 5.474-5.916 5.816-4.068.456-7.526-2.73-7.526-6.707 0-2.77 1.68-5.148 4.07-6.187.267-.116.43-.389.43-.68 0-.545-.563-.902-1.063-.683C2.157 4.53.077 7.625.261 11.19c.217 4.18 3.66 7.606 7.841 7.802 4.737.222 8.648-3.552 8.648-8.24 0-3.376-2.029-6.271-4.932-7.548M8.5 8c.414 0 .75-.336.75-.75V.75C9.25.336 8.914 0 8.5 0c-.415 0-.75.336-.75.75v6.5c0 .414.335.75.75.75"/>
</svg>
