<svg viewBox="0 0 77 40" version="1.1" xmlns="http://www.w3.org/2000/svg">
    <g id="Logo-/-Suite" stroke="none" stroke-width="1" fill-rule="evenodd">
        <path d="M10.05,30.3 C14.46,30.3 17.55,27.96 17.55,24.03 C17.55,20.49 15.24,18.9 10.8,17.82 C6.78,16.86 5.82,16.14 5.82,14.52 C5.82,13.08 7.08,11.97 9.24,11.97 C11.16,11.97 13.05,12.72 14.94,14.13 L16.92,11.34 C14.79,9.63 12.36,8.7 9.3,8.7 C5.13,8.7 2.13,11.19 2.13,14.79 C2.13,18.72 4.65,20.04 9.12,21.09 C13.02,22.02 13.86,22.83 13.86,24.33 C13.86,25.98 12.42,27.03 10.14,27.03 C7.53,27.03 5.52,26.04 3.51,24.3 L1.29,26.94 C3.81,29.19 6.84,30.3 10.05,30.3 Z M26.94,30.33 C29.4,30.33 30.87,29.04 31.89,27.54 L31.89,30 L35.52,30 L35.52,14.16 L31.89,14.16 L31.89,23.1 C31.89,25.56 30.42,27.03 28.32,27.03 C26.16,27.03 24.93,25.62 24.93,23.16 L24.93,14.16 L21.3,14.16 L21.3,24.24 C21.3,27.93 23.37,30.33 26.94,30.33 Z M44.04,11.73 L44.04,8.28 L40.14,8.28 L40.14,11.73 L44.04,11.73 Z M43.92,30 L43.92,14.16 L40.29,14.16 L40.29,30 L43.92,30 Z M53.97,30.27 C55.32,30.27 56.34,29.97 57.24,29.46 L57.24,26.49 C56.52,26.85 55.8,27.03 54.99,27.03 C53.76,27.03 53.04,26.46 53.04,25.05 L53.04,17.28 L57.3,17.28 L57.3,14.16 L53.04,14.16 L53.04,9.81 L49.41,9.81 L49.41,14.16 L47.4,14.16 L47.4,17.28 L49.41,17.28 L49.41,25.62 C49.41,29.1 51.3,30.27 53.97,30.27 Z M67.77,30.36 C70.68,30.36 72.75,29.19 74.25,27.39 L72.12,25.5 C70.86,26.73 69.6,27.39 67.83,27.39 C65.49,27.39 63.66,25.95 63.27,23.37 L74.91,23.37 C74.94,23.19 74.97,22.59 74.97,22.35 C74.97,17.79 72.42,13.83 67.38,13.83 C62.85,13.83 59.64,17.55 59.64,22.08 C59.64,27.03 63.18,30.36 67.77,30.36 Z M71.37,20.97 L63.24,20.97 C63.57,18.51 65.13,16.8 67.35,16.8 C69.75,16.8 71.13,18.63 71.37,20.97 Z" id="Suite" fill-rule="nonzero"></path>
    </g>
</svg>
