<svg viewBox="0 0 197 40" version="1.1" xmlns="http://www.w3.org/2000/svg">
    <g id="Logo-/-Suite---Messenger-(Ru)" stroke="none" stroke-width="1" fill-rule="evenodd">
        <path d="M6.33,30 L6.33,15 L12.9,24.84 L13.02,24.84 L19.65,14.94 L19.65,30 L23.34,30 L23.34,9 L19.41,9 L13.02,18.93 L6.63,9 L2.7,9 L2.7,30 L6.33,30 Z M35.58,30.36 C38.49,30.36 40.56,29.19 42.06,27.39 L39.93,25.5 C38.67,26.73 37.41,27.39 35.64,27.39 C33.3,27.39 31.47,25.95 31.08,23.37 L42.72,23.37 C42.75,23.19 42.78,22.59 42.78,22.35 C42.78,17.79 40.23,13.83 35.19,13.83 C30.66,13.83 27.45,17.55 27.45,22.08 C27.45,27.03 30.99,30.36 35.58,30.36 Z M39.18,20.97 L31.05,20.97 C31.38,18.51 32.94,16.8 35.16,16.8 C37.56,16.8 38.94,18.63 39.18,20.97 Z M53.76,30.36 C56.85,30.36 58.68,29.13 60.24,27.39 L58.05,25.23 C56.91,26.4 55.65,27.21 53.94,27.21 C51.15,27.21 49.2,24.93 49.2,22.11 L49.2,22.05 C49.2,19.29 51.12,17.01 53.76,17.01 C55.59,17.01 56.76,17.82 57.87,18.99 L60.12,16.56 C58.65,14.94 56.79,13.83 53.79,13.83 C49.05,13.83 45.57,17.61 45.57,22.11 L45.57,22.17 C45.57,26.67 49.05,30.36 53.76,30.36 Z M70.14,30.36 C73.23,30.36 75.06,29.13 76.62,27.39 L74.43,25.23 C73.29,26.4 72.03,27.21 70.32,27.21 C67.53,27.21 65.58,24.93 65.58,22.11 L65.58,22.05 C65.58,19.29 67.5,17.01 70.14,17.01 C71.97,17.01 73.14,17.82 74.25,18.99 L76.5,16.56 C75.03,14.94 73.17,13.83 70.17,13.83 C65.43,13.83 61.95,17.61 61.95,22.11 L61.95,22.17 C61.95,26.67 65.43,30.36 70.14,30.36 Z M86.46,30.36 C89.37,30.36 91.44,29.19 92.94,27.39 L90.81,25.5 C89.55,26.73 88.29,27.39 86.52,27.39 C84.18,27.39 82.35,25.95 81.96,23.37 L93.6,23.37 C93.63,23.19 93.66,22.59 93.66,22.35 C93.66,17.79 91.11,13.83 86.07,13.83 C81.54,13.83 78.33,17.55 78.33,22.08 C78.33,27.03 81.87,30.36 86.46,30.36 Z M90.06,20.97 L81.93,20.97 C82.26,18.51 83.82,16.8 86.04,16.8 C88.44,16.8 89.82,18.63 90.06,20.97 Z M100.95,30 L100.95,23.61 L107.94,23.61 L107.94,30 L111.57,30 L111.57,14.16 L107.94,14.16 L107.94,20.58 L100.95,20.58 L100.95,14.16 L97.32,14.16 L97.32,30 L100.95,30 Z M117.33,33.81 L117.69,30 L128.79,30 L128.79,33.81 L131.82,33.81 L132.3,26.88 L130.05,26.88 L130.05,14.16 L117.78,14.16 L117.78,16.11 C117.78,20.55 117.33,24.24 116.01,26.88 L114.3,26.88 L114.3,33.81 L117.33,33.81 Z M126.42,26.88 L119.73,26.88 C120.66,24.93 121.2,22.26 121.2,19.38 L121.2,17.28 L126.42,17.28 L126.42,26.88 Z M137.4,30 L141.93,23.25 L144.36,26.01 L144.36,30 L147.99,30 L147.99,26.01 L150.42,23.25 L154.95,30 L159.03,30 L152.85,20.82 L158.82,14.16 L154.59,14.16 L147.99,21.93 L147.99,14.16 L144.36,14.16 L144.36,21.93 L137.79,14.16 L133.56,14.16 L139.53,20.82 L133.32,30 L137.4,30 Z M167.94,30.36 C170.85,30.36 172.92,29.19 174.42,27.39 L172.29,25.5 C171.03,26.73 169.77,27.39 168,27.39 C165.66,27.39 163.83,25.95 163.44,23.37 L175.08,23.37 C175.11,23.19 175.14,22.59 175.14,22.35 C175.14,17.79 172.59,13.83 167.55,13.83 C163.02,13.83 159.81,17.55 159.81,22.08 C159.81,27.03 163.35,30.36 167.94,30.36 Z M171.54,20.97 L163.41,20.97 C163.74,18.51 165.3,16.8 167.52,16.8 C169.92,16.8 171.3,18.63 171.54,20.97 Z M182.43,34.8 L182.43,27.54 C183.54,29.01 185.19,30.33 187.8,30.33 C191.58,30.33 195.18,27.36 195.18,22.11 C195.18,16.8 191.55,13.83 187.8,13.83 C185.25,13.83 183.6,15.15 182.43,16.8 L182.43,14.16 L178.8,14.16 L178.8,34.8 L182.43,34.8 Z M186.96,27.18 C184.5,27.18 182.34,25.17 182.34,22.11 C182.34,19.02 184.5,16.98 186.96,16.98 C189.42,16.98 191.49,18.99 191.49,22.05 C191.49,25.23 189.45,27.18 186.96,27.18 Z" id="Мессенджер" fill-rule="nonzero"></path>
    </g>
</svg>
