<svg viewBox="0 0 99 40" version="1.1" xmlns="http://www.w3.org/2000/svg">
    <g id="Logo-/-Rating-(En)" stroke="none" stroke-width="1" fill-rule="evenodd">
        <path d="M6.39,30 L6.39,22.68 L10.95,22.68 L16.17,30 L20.52,30 L14.85,22.05 C17.79,21.21 19.86,19.14 19.86,15.69 C19.86,11.64 16.98,9 12.06,9 L2.7,9 L2.7,30 L6.39,30 Z M11.79,19.41 L6.39,19.41 L6.39,12.36 L11.76,12.36 C14.49,12.36 16.11,13.59 16.11,15.84 C16.11,18.03 14.43,19.41 11.79,19.41 Z M28.53,30.33 C30.93,30.33 32.58,29.34 33.66,28.05 L33.66,30 L37.26,30 L37.26,20.61 C37.26,16.38 34.98,13.92 30.3,13.92 C27.72,13.92 26.01,14.46 24.27,15.24 L25.26,18.15 C26.7,17.55 28.02,17.16 29.79,17.16 C32.31,17.16 33.69,18.36 33.69,20.55 L33.69,20.85 C32.46,20.46 31.23,20.19 29.31,20.19 C25.62,20.19 22.89,21.87 22.89,25.38 C22.89,28.62 25.53,30.33 28.53,30.33 Z M29.55,27.6 C27.84,27.6 26.49,26.76 26.49,25.26 C26.49,23.67 27.84,22.74 30.12,22.74 C31.53,22.74 32.82,23.01 33.75,23.37 L33.75,24.27 C33.75,26.25 31.95,27.6 29.55,27.6 Z M46.89,30.27 C48.24,30.27 49.26,29.97 50.16,29.46 L50.16,26.49 C49.44,26.85 48.72,27.03 47.91,27.03 C46.68,27.03 45.96,26.46 45.96,25.05 L45.96,17.28 L50.22,17.28 L50.22,14.16 L45.96,14.16 L45.96,9.81 L42.33,9.81 L42.33,14.16 L40.32,14.16 L40.32,17.28 L42.33,17.28 L42.33,25.62 C42.33,29.1 44.22,30.27 46.89,30.27 Z M57.84,11.73 L57.84,8.28 L53.94,8.28 L53.94,11.73 L57.84,11.73 Z M57.72,30 L57.72,14.16 L54.09,14.16 L54.09,30 L57.72,30 Z M66.09,30 L66.09,21.06 C66.09,18.6 67.56,17.13 69.66,17.13 C71.82,17.13 73.05,18.54 73.05,21 L73.05,30 L76.68,30 L76.68,19.92 C76.68,16.23 74.61,13.83 71.04,13.83 C68.58,13.83 67.11,15.12 66.09,16.62 L66.09,14.16 L62.46,14.16 L62.46,30 L66.09,30 Z M88.11,34.86 C90.96,34.86 93.18,34.17 94.62,32.73 C95.94,31.41 96.63,29.43 96.63,26.76 L96.63,14.16 L93,14.16 L93,16.53 C91.77,15.06 90.12,13.83 87.45,13.83 C83.76,13.83 80.25,16.59 80.25,21.27 C80.25,25.98 83.73,28.74 87.45,28.74 C90.06,28.74 91.71,27.54 93.03,25.83 L93.03,27.06 C93.03,30.24 91.26,31.92 88.02,31.92 C85.86,31.92 84.06,31.29 82.38,30.24 L81.03,32.97 C83.07,34.2 85.5,34.86 88.11,34.86 Z M88.41,25.68 C85.92,25.68 83.91,23.91 83.91,21.3 C83.91,18.63 85.89,16.89 88.41,16.89 C90.93,16.89 93.06,18.66 93.06,21.27 C93.06,23.88 90.93,25.68 88.41,25.68 Z" id="Rating" fill-rule="nonzero"></path>
    </g>
</svg>
