<svg viewBox="0 0 165 40" version="1.1" xmlns="http://www.w3.org/2000/svg">
    <g id="Logo-/-Dashboard-(En)" stroke="none" stroke-width="1" fill-rule="evenodd">
        <path d="M10.53,30 C17.13,30 21.69,25.41 21.69,19.5 C21.69,13.53 17.13,9 10.53,9 L2.7,9 L2.7,30 L10.53,30 Z M10.53,26.64 L6.39,26.64 L6.39,12.36 L10.53,12.36 C14.94,12.36 17.82,15.39 17.82,19.5 C17.82,23.67 14.94,26.64 10.53,26.64 Z M30.3,30.33 C32.7,30.33 34.35,29.34 35.43,28.05 L35.43,30 L39.03,30 L39.03,20.61 C39.03,16.38 36.75,13.92 32.07,13.92 C29.49,13.92 27.78,14.46 26.04,15.24 L27.03,18.15 C28.47,17.55 29.79,17.16 31.56,17.16 C34.08,17.16 35.46,18.36 35.46,20.55 L35.46,20.85 C34.23,20.46 33,20.19 31.08,20.19 C27.39,20.19 24.66,21.87 24.66,25.38 C24.66,28.62 27.3,30.33 30.3,30.33 Z M31.32,27.6 C29.61,27.6 28.26,26.76 28.26,25.26 C28.26,23.67 29.61,22.74 31.89,22.74 C33.3,22.74 34.59,23.01 35.52,23.37 L35.52,24.27 C35.52,26.25 33.72,27.6 31.32,27.6 Z M48.78,30.3 C52.08,30.3 54.66,28.65 54.66,25.32 C54.66,22.41 52.05,21.36 49.74,20.64 L49.44,20.55 L49.44,20.55 C47.7,19.98 46.17,19.5 46.17,18.42 C46.17,17.43 46.98,16.77 48.39,16.77 C49.71,16.77 51.33,17.34 52.86,18.27 L54.3,15.69 C52.62,14.58 50.46,13.89 48.48,13.89 C45.33,13.89 42.84,15.72 42.84,18.72 C42.84,21.81 45.45,22.77 47.79,23.46 L48.06,23.55 L48.06,23.55 C49.8,24.06 51.33,24.48 51.33,25.65 C51.33,26.76 50.43,27.42 48.87,27.42 C47.25,27.42 45.39,26.76 43.68,25.47 L42.06,27.93 C44.04,29.49 46.53,30.3 48.78,30.3 Z M61.98,30 L61.98,21.06 C61.98,18.6 63.45,17.13 65.55,17.13 C67.71,17.13 68.94,18.54 68.94,21 L68.94,30 L72.57,30 L72.57,19.92 C72.57,16.23 70.5,13.83 66.93,13.83 C64.47,13.83 63,15.12 61.98,16.62 L61.98,8.1 L58.35,8.1 L58.35,30 L61.98,30 Z M85.95,30.33 C89.73,30.33 93.33,27.36 93.33,22.11 C93.33,16.8 89.7,13.83 85.95,13.83 C83.4,13.83 81.75,15.15 80.58,16.8 L80.58,8.1 L76.95,8.1 L76.95,30 L80.58,30 L80.58,27.54 C81.69,29.01 83.34,30.33 85.95,30.33 Z M85.11,27.18 C82.65,27.18 80.49,25.17 80.49,22.11 C80.49,19.02 82.65,16.98 85.11,16.98 C87.57,16.98 89.64,18.99 89.64,22.05 C89.64,25.23 87.6,27.18 85.11,27.18 Z M104.58,30.36 C109.47,30.36 113.07,26.61 113.07,22.11 C113.07,17.52 109.5,13.83 104.64,13.83 C99.78,13.83 96.18,17.58 96.18,22.11 C96.18,26.67 99.75,30.36 104.58,30.36 Z M104.64,27.21 C101.82,27.21 99.81,24.87 99.81,22.11 C99.81,19.29 101.67,17.01 104.58,17.01 C107.43,17.01 109.44,19.32 109.44,22.11 C109.44,24.9 107.58,27.21 104.64,27.21 Z M121.32,30.33 C123.72,30.33 125.37,29.34 126.45,28.05 L126.45,30 L130.05,30 L130.05,20.61 C130.05,16.38 127.77,13.92 123.09,13.92 C120.51,13.92 118.8,14.46 117.06,15.24 L118.05,18.15 C119.49,17.55 120.81,17.16 122.58,17.16 C125.1,17.16 126.48,18.36 126.48,20.55 L126.48,20.85 C125.25,20.46 124.02,20.19 122.1,20.19 C118.41,20.19 115.68,21.87 115.68,25.38 C115.68,28.62 118.32,30.33 121.32,30.33 Z M122.34,27.6 C120.63,27.6 119.28,26.76 119.28,25.26 C119.28,23.67 120.63,22.74 122.91,22.74 C124.32,22.74 125.61,23.01 126.54,23.37 L126.54,24.27 C126.54,26.25 124.74,27.6 122.34,27.6 Z M138,14.16 L134.37,14.16 L134.37,30 L138,30 L138,23.97 C138,19.77 140.22,17.7 143.4,17.7 L143.61,17.7 L143.61,13.86 C140.91,13.743871 139.109063,15.2572945 138.098433,17.5030197 L137.999,17.729 L138,14.16 Z M152.85,30.33 C155.43,30.33 157.08,29.01 158.25,27.36 L158.25,30 L161.88,30 L161.88,8.1 L158.25,8.1 L158.25,16.62 C157.11,15.15 155.46,13.83 152.85,13.83 C149.07,13.83 145.5,16.8 145.5,22.05 C145.5,27.36 149.13,30.33 152.85,30.33 Z M153.72,27.18 C151.26,27.18 149.16,25.17 149.16,22.11 C149.16,18.9 151.23,16.98 153.72,16.98 C156.15,16.98 158.31,18.99 158.31,22.05 C158.31,25.14 156.15,27.18 153.72,27.18 Z" id="Dashboard" fill-rule="nonzero"></path>
    </g>
</svg>
