<svg viewBox="0 0 40 40" version="1.1" xmlns="http://www.w3.org/2000/svg">
    <g id="mastercard" stroke="none" stroke-width="1" fill-rule="evenodd">
        <polygon id="Fill-4" fill="#FF5F00" points="15.0753846 28.7856923 24.7676923 28.7856923 24.7676923 11.3684615 15.0753846 11.3684615"></polygon>
        <path d="M15.6907692,20.0769231 C15.6907692,16.5433846 17.3452308,13.3966154 19.9215385,11.3683077 C18.0375385,9.88492308 15.66,9 13.076,9 C6.95907692,9 2,13.9593846 2,20.0769231 C2,26.1944615 6.95907692,31.1538462 13.076,31.1538462 C15.66,31.1538462 18.0375385,30.2689231 19.9215385,28.7855385 C17.3452308,26.7572308 15.6907692,23.6104615 15.6907692,20.0769231" id="Fill-6" fill="#EB001B"></path>
        <path d="M26.7670462,8.99987692 C24.1830462,8.99987692 21.8058154,9.88510769 19.9215077,11.3681846 C22.4978154,13.3964923 24.1522769,16.5435692 24.1522769,20.0768 C24.1522769,23.6103385 22.4978154,26.7574154 19.9215077,28.7857231 C21.8058154,30.2688 24.1830462,31.1537231 26.7670462,31.1537231 C32.8842769,31.1537231 37.8430462,26.1946462 37.8430462,20.0768 C37.8430462,13.9592615 32.8842769,8.99987692 26.7670462,8.99987692 L26.7670462,8.99987692 Z" id="Fill-7" fill="#F79E1B"></path>
    </g>
</svg>
