<svg viewBox="0 0 40 40" version="1.1" xmlns="http://www.w3.org/2000/svg">

            <path d="M10.727,14.9114 L18.353,14.9114 L18.353,13.9134 L10.727,13.9134 L10.727,14.9114 Z M10.726,16.9204 L14.539,16.9204 L14.539,15.9224 L10.726,15.9224 L10.726,16.9204 Z M10.73,8.9304 L28.52,8.9304 L28.52,6.3704 L10.73,6.3704 L10.73,8.9304 Z M24.705,12.9164 L28.518,12.9164 L28.518,11.9184 L24.705,11.9184 L24.705,12.9164 Z M20.51,24.7904 C18.85,24.7904 17.51,23.4504 17.51,21.7904 C17.51,20.1404 18.85,18.7904 20.51,18.7904 C22.159,18.7904 23.51,20.1404 23.51,21.7904 C23.51,23.4504 22.159,24.7904 20.51,24.7904 L20.51,24.7904 Z M20.51,17.7904 C18.3,17.7904 16.51,19.5804 16.51,21.7904 C16.51,24.0004 18.3,25.7904 20.51,25.7904 C22.72,25.7904 24.51,24.0004 24.51,21.7904 C24.51,19.5804 22.72,17.7904 20.51,17.7904 L20.51,17.7904 Z M24.705,14.9114 L28.518,14.9114 L28.518,13.9134 L24.705,13.9134 L24.705,14.9114 Z M10.726,18.9164 L14.539,18.9164 L14.539,17.9184 L10.726,17.9184 L10.726,18.9164 Z M32.51,31.3804 L32.51,25.3504 L34.02,30.9804 L32.51,31.3804 Z M30.51,34.3504 L28.51,34.3504 L28.51,30.1004 C28.51,27.5904 26.96,25.4404 24.77,24.5404 C23.89,25.9904 22.32,26.9604 20.51,26.9604 C18.7,26.9604 17.12,25.9904 16.25,24.5404 C14.05,25.4404 12.51,27.5904 12.51,30.1004 L12.51,34.3504 L8.51,34.3504 L8.51,4.3504 L30.51,4.3504 L30.51,34.3504 Z M27.51,34.3504 L13.51,34.3504 L13.51,30.1004 C13.51,28.3204 14.44,26.7104 15.93,25.8204 C17.06,27.1704 18.72,27.9604 20.51,27.9604 C22.3,27.9604 23.95,27.1704 25.079,25.8204 C26.579,26.7104 27.51,28.3204 27.51,30.1004 L27.51,34.3504 Z M12.77,36.6704 L12.68,36.3504 L13.97,36.3504 L12.77,36.6704 Z M26.25,2.0004 L26.34,2.3504 L24.94,2.3504 L26.25,2.0004 Z M6.51,13.3204 L5,7.6904 L6.51,7.2904 L6.51,13.3204 Z M35.95,30.4604 L32.51,17.6304 L32.51,4.3504 C32.51,3.2504 31.61,2.3504 30.51,2.3504 L28.409,2.3504 L28.18,1.4804 C27.9,0.4104 26.8,-0.2196 25.73,0.0704 L17.22,2.3504 L8.51,2.3504 C7.4,2.3504 6.51,3.2504 6.51,4.3504 L6.51,5.2204 L4.48,5.7604 C3.42,6.0504 2.78,7.1404 3.07,8.2104 L6.51,21.0604 L6.51,34.3504 C6.51,35.4604 7.4,36.3504 8.51,36.3504 L10.61,36.3504 L10.829,37.1904 C11.12,38.2504 12.22,38.8904 13.28,38.6004 L21.68,36.3504 L30.51,36.3504 C31.61,36.3504 32.51,35.4604 32.51,34.3504 L32.51,33.4504 L34.53,32.9104 C35.6,32.6204 36.23,31.5204 35.95,30.4604 L35.95,30.4604 Z M24.71,10.9204 L28.52,10.9204 L28.52,9.9204 L24.71,9.9204 L24.71,10.9204 Z M10.726,20.9204 L14.539,20.9204 L14.539,19.9224 L10.726,19.9224 L10.726,20.9204 Z M10.727,10.9214 L18.353,10.9214 L18.353,9.9234 L10.727,9.9234 L10.727,10.9214 Z"></path>

</svg>
