<svg viewBox="0 0 40 40" version="1.1" xmlns="http://www.w3.org/2000/svg">
    <defs>
        <linearGradient x1="0%" y1="42.2069597%" x2="100%" y2="57.7930403%" id="linearGradient-1">
            <stop stop-color="#1EB1FF" offset="0%"></stop>
            <stop stop-color="#1F5CD7" offset="100%"></stop>
        </linearGradient>
    </defs>
    <g id="mir" stroke="none" stroke-width="1" fill-rule="evenodd">
        <path d="M22.249691,16.1866481 L19.7280593,21.724349 L19.4313968,21.724349 L19.4313968,14.9999979 L15.8714462,14.9999979 L15.8714462,26.3226184 L19.2336218,26.3226184 C19.2336218,26.3226184 20.3263288,26.2237309 20.815822,25.1359683 L23.2880099,19.5982674 L23.5846724,19.5982674 L23.5846724,26.3226184 L27.144623,26.3226184 L27.144623,14.9999979 L23.7824475,14.9999979 C23.7824475,14.9999979 22.7391842,15.0939411 22.249691,16.1866481 L22.249691,16.1866481 Z M28.7268232,20.1421487 L28.7268232,26.3226184 L32.2867738,26.3226184 L32.2867738,22.7132241 L36.1433869,22.7132241 C37.8244747,22.7132241 39.2484549,21.6402946 39.7775031,20.1421487 L28.7268232,20.1421487 Z M10.7787392,15.0049423 C10.7737948,15.0049423 9.21631644,14.9999978 8.80098888,16.488255 C8.42027194,17.8529027 7.3473424,21.6205171 7.31767614,21.724349 L7.0210136,21.724349 C7.0210136,21.724349 5.92336218,17.8726802 5.53770087,16.4833107 C5.1223733,14.9950535 3.55995056,14.9999978 3.55995056,14.9999978 L0,14.9999978 L0,26.3226184 L3.55995056,26.3226184 L3.55995056,19.5982674 L3.8566131,19.5982674 L5.93325093,26.3226184 L8.40543881,26.3226184 L10.4820766,19.6032118 L10.7787392,19.6032118 L10.7787392,26.3226184 L14.3386897,26.3226184 L14.3386897,14.9999978 L10.7787392,14.9999978 L10.7787392,15.0049423 Z" id="Fill-1" fill="#0E754E"></path>
        <path d="M28.2274413,14.9999979 C28.6229913,17.1557458 30.2398022,18.8862773 32.3312732,19.4499361 L32.3312732,19.4499361 C32.8059333,19.5784899 33.3053152,19.6477111 33.8195303,19.6477111 L33.8195303,19.6477111 L39.92089,19.6477111 C39.9752781,19.3906036 40,19.1285517 40,18.856611 L40,18.856611 C40,16.7255851 38.2744129,14.9999979 36.1433869,14.9999979 L36.1433869,14.9999979 L28.2274413,14.9999979 Z" id="Fill-4" fill="url(#linearGradient-1)"></path>
    </g>
</svg>
