<svg xmlns="http://www.w3.org/2000/svg" viewBox="0 0 40 40">
        <path d="M30.887 17.212l-.12.047a2.523 2.523 0 0 0-1.56 2.856c.227 1.143.297 2.344.18 3.582-.57 6.056-5.581 10.832-11.655 11.124-6.128.292-11.33-3.894-12.617-9.567-.276-1.21-1.356-2.06-2.593-2l-.127.008A2.523 2.523 0 0 0 .06 26.33c1.78 8.003 9.046 13.94 17.647 13.66 8.89-.288 16.22-7.33 16.854-16.2.117-1.639.007-3.231-.303-4.753-.31-1.519-1.926-2.383-3.372-1.825m8.785-9.517l-.006-.005a.656.656 0 0 0-.464-.192h-6.159a.676.676 0 0 1-.677-.676V.66a.656.656 0 0 0-.193-.464l-.005-.005a.66.66 0 0 0-.93 0L26.22 5.21c-.38.382-.594.899-.594 1.437v3.881l-6.877 6.875a5.365 5.365 0 1 0 3.586 3.834l7-7h3.881a2.03 2.03 0 0 0 1.437-.594l5.02-5.02a.656.656 0 0 0 0-.929M3.12 17.905l.12.04c1.177.388 2.442-.148 3.027-1.24a12.312 12.312 0 0 1 10.86-6.504c.964 0 1.904.11 2.805.32 1.185.276 2.393-.36 2.866-1.481l.049-.12c.602-1.424-.208-3.07-1.712-3.423a17.505 17.505 0 0 0-4.008-.462c-6.696 0-12.507 3.764-15.444 9.29a2.523 2.523 0 0 0 1.437 3.58"/>
</svg>
