<svg xmlns="http://www.w3.org/2000/svg"  viewBox="10 7 44 46"><path d="M 27 7 C 23.141 7 20 10.14 20 14 C 20 15.074598 20.250953 16.08922 20.685547 17 L 19 17 C 15.691 17 13 19.691 13 23 L 13 47 C 13 50.309 15.691 53 19 53 L 45 53 C 48.309 53 51 50.309 51 47 L 51 23 C 51 19.691 48.309 17 45 17 L 43.314453 17 C 43.749047 16.08922 44 15.074598 44 14 C 44 10.14 40.859 7 37 7 C 35.042 7 33.272 7.8103281 32 9.1113281 C 30.728 7.8103281 28.958 7 27 7 z M 27 11 C 28.654 11 30 12.346 30 14 L 30 17 L 27 17 C 25.346 17 24 15.654 24 14 C 24 12.346 25.346 11 27 11 z M 37 11 C 38.654 11 40 12.346 40 14 C 40 15.654 38.654 17 37 17 L 34 17 L 34 14 C 34 12.346 35.346 11 37 11 z M 19 21 L 30 21 L 30 33 L 17 33 L 17 23 C 17 21.897 17.897 21 19 21 z M 34 21 L 45 21 C 46.103 21 47 21.897 47 23 L 47 33 L 34 33 L 34 21 z M 17 37 L 30 37 L 30 49 L 19 49 C 17.897 49 17 48.103 17 47 L 17 37 z M 34 37 L 47 37 L 47 47 C 47 48.103 46.103 49 45 49 L 34 49 L 34 37 z"/></svg>
