<svg viewBox="0 0 40 40" version="1.1" xmlns="http://www.w3.org/2000/svg">
	<g stroke="none" stroke-width="1" fill-rule="evenodd">
		<path d="M24.6588,2.6133 C23.6988,2.3563 22.7118,2.9253 22.4538,3.8853 L14.0688,35.1813 C13.8108,36.1423 14.3818,37.1293 15.3418,37.3863 C16.3018,37.6433 17.2888,37.0743 17.5458,36.1143 L25.9308,4.8183 C26.1888,3.8573 25.6188,2.8713 24.6588,2.6133 Z M29.2158,20.8473 L30.6008,16.3963 L30.6648,16.3963 L31.9868,20.8473 L29.2158,20.8473 Z M32.6378,12.2603 C32.5958,12.1133 32.5128,12.0513 32.3648,12.0513 L28.9428,12.0513 C28.7958,12.0513 28.7118,12.1133 28.6698,12.2603 L23.7358,26.1183 C23.6938,26.2653 23.7358,26.3283 23.8828,26.3283 L27.3258,26.3283 C27.4728,26.3283 27.5568,26.2653 27.5988,26.1183 L28.2708,23.9143 L32.9108,23.9143 L33.5828,26.1183 C33.6248,26.2653 33.7088,26.3283 33.8558,26.3283 L37.3198,26.3283 C37.4678,26.3283 37.5098,26.2653 37.4678,26.1183 L32.6378,12.2603 Z M14.3138,26.1183 L14.3138,12.2603 C14.3138,12.1133 14.2518,12.0513 14.1038,12.0513 L11.1648,12.0513 C11.0178,12.0513 10.9548,12.1133 10.9548,12.2603 L10.9548,20.3433 L10.8708,20.3433 L6.5668,12.2603 C6.5038,12.1133 6.3988,12.0513 6.2098,12.0513 L3.1238,12.0513 C2.9758,12.0513 2.9138,12.1133 2.9138,12.2603 L2.9138,26.1183 C2.9138,26.2653 2.9758,26.3283 3.1238,26.3283 L6.0628,26.3283 C6.2098,26.3283 6.2728,26.2653 6.2728,26.1183 L6.2728,18.0553 L6.3988,18.0553 L10.6608,26.1183 C10.7238,26.2653 10.8288,26.3283 11.0178,26.3283 L14.1038,26.3283 C14.2518,26.3283 14.3138,26.2653 14.3138,26.1183 Z"></path>
	</g>
</svg>
