<svg xmlns="http://www.w3.org/2000/svg" xmlns:xlink="http://www.w3.org/1999/xlink" viewBox="0 0 40 40">

        <path transform="translate(3 2)"
              d="M32.856 25.781l-2.846-4.27a6.003 6.003 0 0 1-1.008-3.329V16.5a1.5 1.5 0 1 0-3 0v1.683c0 1.777.526 3.514 1.512 4.992l2.846 4.27a.966.966 0 0 1 .05 1.026.968.968 0 0 1-.882.53H4.477a.968.968 0 0 1-.883-.53.966.966 0 0 1 .05-1.026l2.847-4.27A8.994 8.994 0 0 0 8 18.183V12c0-4.515 3.343-8.263 7.682-8.904.75-.11 1.319-.726 1.319-1.484V1.61c0-.929-.833-1.617-1.751-1.482C9.453.975 5 5.967 5 12v6.182c0 1.185-.35 2.343-1.006 3.33l-2.846 4.27C-.623 28.438 1.282 32 4.477 32h7.525a5 5 0 0 0 10 0h7.526c3.195 0 5.1-3.56 3.328-6.219"/>
        <path class="notification--on" transform="translate(23 2)" d="M6.002 12c3.309 0 6-2.691 6-6 0-3.308-2.691-6-6-6-3.308 0-6 2.692-6 6 0 3.309 2.692 6 6 6"/>
</svg>
