<svg xmlns="http://www.w3.org/2000/svg" viewBox="0 0 40 40">
        <path transform="translate(3 2)" d="M30.407 28.472a.964.964 0 0 1-.882.528H4.475a.963.963 0 0 1-.882-.528.96.96 0 0 1 .048-1.026l2.847-4.27A8.971 8.971 0 0 0 8 18.184V12c0-4.963 4.037-9 9-9l.17.002C22.04 3.09 26 7.306 26 12.398v5.786a8.97 8.97 0 0 0 1.511 4.992l2.846 4.27a.96.96 0 0 1 .05 1.026m2.447-2.69l-2.846-4.27A5.992 5.992 0 0 1 29 18.184v-5.786C29 5.79 23.831.123 17.224.002L17 0C10.372 0 5 5.372 5 12v6.184a6 6 0 0 1-1.008 3.328l-2.847 4.27C-.625 28.44 1.28 32 4.475 32H12a5 5 0 1 0 10 0h7.525c3.195 0 5.101-3.56 3.33-6.218"/>
</svg>
