<svg viewBox="0 0 40 40" version="1.1" xmlns="http://www.w3.org/2000/svg" xmlns:xlink="http://www.w3.org/1999/xlink">
    <g>
        <path d="M35,18 C35,27.374 27.373,35 18,35 L12,35 C10.611,35 9.318,34.589 8.229,33.889 L12.002,30.115 L12.881,30.115 L20.381,30.115 C21.209,30.115 21.881,29.443 21.881,28.615 C21.881,27.787 21.209,27.115 20.381,27.115 L15.002,27.115 L20.414,21.704 L21.292,21.704 L28.792,21.704 C29.621,21.704 30.292,21.032 30.292,20.204 C30.292,19.375 29.621,18.704 28.792,18.704 L23.414,18.704 L30.659,11.458 C31.244,10.873 31.244,9.923 30.659,9.337 C30.073,8.751 29.123,8.751 28.537,9.337 L21.292,16.583 L21.292,11.204 C21.292,10.375 20.621,9.704 19.792,9.704 C18.964,9.704 18.292,10.375 18.292,11.204 L18.292,19.583 L12.881,24.994 L12.881,19.615 C12.881,18.787 12.209,18.115 11.381,18.115 C10.553,18.115 9.881,18.787 9.881,19.615 L9.881,27.115 L9.881,27.994 L6.108,31.767 C5.41,30.678 5,29.387 5,28 L5,22 C5,12.626 12.626,5 22,5 L35,5 L35,18 Z M22,2 C10.954,2 2,10.954 2,22 L2,28 C2,33.522 6.477,38 12,38 L18,38 C29.045,38 38,29.046 38,18 L38,2 L22,2 Z"></path>
    </g>
</svg>
