<svg viewBox="0 0 40 40" version="1.1" xmlns="http://www.w3.org/2000/svg" xmlns:xlink="http://www.w3.org/1999/xlink">
    <g transform="translate(7.000000, 2.000000)">
        <path d="M17.4238,19.5 L8.4238,19.5 C7.5958,19.5 6.9238,20.172 6.9238,21 C6.9238,21.828 7.5958,22.5 8.4238,22.5 L17.4238,22.5 C18.2518,22.5 18.9238,21.828 18.9238,21 C18.9238,20.172 18.2518,19.5 17.4238,19.5"></path>
        <path d="M17.4238,25.5 L8.4238,25.5 C7.5958,25.5 6.9238,26.172 6.9238,27 C6.9238,27.828 7.5958,28.5 8.4238,28.5 L17.4238,28.5 C18.2518,28.5 18.9238,27.828 18.9238,27 C18.9238,26.172 18.2518,25.5 17.4238,25.5"></path>
        <path d="M17.5,13.5 L8.5,13.5 C7.672,13.5 7,14.171 7,15 C7,15.829 7.672,16.5 8.5,16.5 L17.5,16.5 C18.328,16.5 19,15.829 19,15 C19,14.171 18.328,13.5 17.5,13.5"></path>
        <path d="M17.5,7.5 L8.5,7.5 C7.672,7.5 7,8.171 7,9 C7,9.829 7.672,10.5 8.5,10.5 L17.5,10.5 C18.328,10.5 19,9.829 19,9 C19,8.171 18.328,7.5 17.5,7.5"></path>
        <path d="M22,0 L4,0 C1.791,0 0,1.791 0,4 L0,32 C0,34.209 1.791,36 4,36 L22,36 C24.209,36 26,34.209 26,32 L26,4 C26,1.791 24.209,0 22,0 M22,3 C22.552,3 23,3.449 23,4 L23,32 C23,32.552 22.552,33 22,33 L4,33 C3.448,33 3,32.552 3,32 L3,4 C3,3.449 3.448,3 4,3 L22,3"></path>
    </g>
</svg>
