<svg viewBox="0 0 40 40" version="1.1" xmlns="http://www.w3.org/2000/svg" xmlns:xlink="http://www.w3.org/1999/xlink">

   
        <g>
            <path d="M20,35 C11.729,35 5,28.271 5,20 C5,11.729 11.729,5 20,5 C28.271,5 35,11.729 35,20 C35,28.271 28.271,35 20,35 M20,2 C10.059,2 2,10.059 2,20 C2,29.941 10.059,38 20,38 C29.94,38 38,29.941 38,20 C38,10.059 29.94,2 20,2 M21.248,18.63 L20.388,18.51 C19.737,18.42 19.188,18.28 18.748,18.08 C17.848,17.69 17.388,17.1 17.388,16.31 C17.388,15.36 17.868,14.65 18.748,14.32 C19.088,14.19 19.498,14.12 19.958,14.12 C20.388,14.12 20.828,14.17 21.248,14.26 C22.128,14.45 22.998,14.83 23.868,15.39 C23.987,15.47 24.107,15.44 24.208,15.32 L25.357,13.55 C25.428,13.43 25.428,13.31 25.308,13.21 C24.157,12.35 22.808,11.82 21.248,11.65 L21.248,9.5 C21.248,9.23 21.028,9 20.748,9 L19.248,9 C18.968,9 18.748,9.23 18.748,9.5 L18.748,11.69 C16.128,12.12 14.508,13.92 14.508,16.5 C14.508,18.97 15.918,20.47 18.748,21.03 C18.968,21.08 19.188,21.12 19.428,21.15 L20.288,21.27 C20.647,21.32 20.968,21.38 21.248,21.45 C22.718,21.81 23.268,22.48 23.268,23.53 C23.268,24.67 22.528,25.49 21.248,25.78 C20.928,25.84 20.578,25.88 20.198,25.88 C19.708,25.88 19.228,25.82 18.748,25.69 C17.737,25.45 16.748,24.94 15.758,24.16 C15.638,24.03 15.538,24.06 15.418,24.18 L13.928,25.91 C13.838,26.03 13.857,26.15 13.978,26.27 C14.628,26.89 15.518,27.42 16.598,27.83 C17.298,28.09 18.008,28.27 18.748,28.36 L18.748,30.5 C18.748,30.78 18.968,31 19.248,31 L20.748,31 C21.028,31 21.248,30.78 21.248,30.5 L21.248,28.35 C24.388,27.95 26.128,26.02 26.128,23.36 C26.128,20.65 24.487,19.09 21.248,18.63"></path>
        </g>
</svg>