<svg viewBox="0 0 40 40" version="1.1" xmlns="http://www.w3.org/2000/svg" xmlns:xlink="http://www.w3.org/1999/xlink">
    <g transform="translate(2.000000, 2.000000)">
        <path d="M11.6862,16.7497 C12.7852,16.7497 13.4682,16.1197 13.4682,15.1107 C13.4682,14.1037 12.7852,13.4547 11.6862,13.4547 L9.6692,13.4547 C9.5972,13.4547 9.5612,13.4907 9.5612,13.5617 L9.5612,16.6417 C9.5612,16.7137 9.5972,16.7497 9.6692,16.7497 L11.6862,16.7497 Z M7.0952,23.4117 C6.9682,23.4117 6.9152,23.3577 6.9152,23.2317 L6.9152,11.3487 C6.9152,11.2227 6.9682,11.1677 7.0952,11.1677 L11.8482,11.1677 C13.1632,11.1677 14.2072,11.5277 14.9632,12.2487 C15.7382,12.9687 16.1162,13.9227 16.1162,15.1107 C16.1162,16.2817 15.7382,17.2177 14.9632,17.9557 C14.1892,18.6767 13.1632,19.0367 11.8482,19.0367 L9.6692,19.0367 C9.5972,19.0367 9.5612,19.0727 9.5612,19.1447 L9.5612,23.2317 C9.5612,23.3577 9.5072,23.4117 9.3812,23.4117 L7.0952,23.4117 Z"></path>
        <path d="M20.4518,20.945 C20.4518,21.017 20.4878,21.053 20.5598,21.053 L21.9458,21.053 C23.1878,21.053 23.9448,20.603 24.2148,19.703 C24.3408,19.325 24.4128,18.532 24.4128,17.29 C24.4128,16.048 24.3408,15.256 24.2148,14.877 C23.9448,13.977 23.1878,13.527 21.9458,13.527 L20.5598,13.527 C20.4878,13.527 20.4518,13.562 20.4518,13.634 L20.4518,20.945 Z M17.8058,11.348 C17.8058,11.222 17.8588,11.168 17.9848,11.168 L22.5408,11.168 C24.7728,11.168 26.1778,12.087 26.7718,13.923 C26.9878,14.607 27.0958,15.723 27.0958,17.29 C27.0958,18.856 26.9878,19.972 26.7718,20.657 C26.1778,22.494 24.7728,23.412 22.5408,23.412 L17.9848,23.412 C17.8588,23.412 17.8058,23.358 17.8058,23.232 L17.8058,11.348 Z"></path>
        <path d="M0.1451,0.3483 C0.1451,0.2223 0.1991,0.1673 0.3251,0.1673 L8.1751,0.1673 C8.3011,0.1673 8.3551,0.2223 8.3551,0.3483 L8.3551,2.2743 C8.3551,2.4013 8.3011,2.4543 8.1751,2.4543 L2.9001,2.4543 C2.8281,2.4543 2.7911,2.4913 2.7911,2.5623 L2.7911,5.1373 C2.7911,5.2093 2.8281,5.2453 2.9001,5.2453 L7.2921,5.2453 C7.4181,5.2453 7.4731,5.2993 7.4731,5.4253 L7.4731,7.3343 C7.4731,7.4603 7.4181,7.5143 7.2921,7.5143 L2.9001,7.5143 C2.8281,7.5143 2.7911,7.5503 2.7911,7.6223 L2.7911,12.2323 C2.7911,12.3583 2.7381,12.4113 2.6121,12.4113 L0.3251,12.4113 C0.1991,12.4113 0.1451,12.3583 0.1451,12.2323 L0.1451,0.3483 Z" transform="translate(29.000000, 11.000000)"></path>
        <path d="M22.9996,28.4997 L22.9996,31.9997 C22.9996,32.5527 22.5526,32.9997 21.9996,32.9997 L3.9996,32.9997 C3.4476,32.9997 2.9996,32.5527 2.9996,31.9997 L2.9996,3.9997 C2.9996,3.4477 3.4476,2.9997 3.9996,2.9997 L21.9996,2.9997 C22.5526,2.9997 22.9996,3.4477 22.9996,3.9997 L22.9996,7.4997 C22.9996,8.3287 23.6716,8.9997 24.4996,8.9997 C25.3286,8.9997 25.9996,8.3287 25.9996,7.4997 L25.9996,3.9997 C25.9996,1.7907 24.2096,-0.0003 21.9996,-0.0003 L3.9996,-0.0003 C1.7906,-0.0003 -0.0004,1.7907 -0.0004,3.9997 L-0.0004,31.9997 C-0.0004,34.2087 1.7906,35.9997 3.9996,35.9997 L21.9996,35.9997 C24.2096,35.9997 25.9996,34.2087 25.9996,31.9997 L25.9996,28.4997 C25.9996,27.6717 25.3286,26.9997 24.4996,26.9997 C23.6716,26.9997 22.9996,27.6717 22.9996,28.4997"></path>
    </g>
</svg>
