<svg viewBox="0 0 40 40" version="1.1" xmlns="http://www.w3.org/2000/svg" xmlns:xlink="http://www.w3.org/1999/xlink">
    <g fill-rule="evenodd">
        <path d="M32.0003,0 C30.9763,0 29.9523,0.391 29.1713,1.171 L9.3723,20.971 L9.3783,26.622 L15.0293,26.627 L34.8283,6.829 C36.3913,5.266 36.3913,2.734 34.8283,1.171 C34.0473,0.391 33.0233,0 32.0003,0 M32.0003,3 C32.1543,3 32.4523,3.038 32.7073,3.293 C32.9623,3.548 33.0003,3.845 33.0003,4 C33.0003,4.155 32.9623,4.452 32.7073,4.707 L13.7883,23.626 L12.3753,23.625 L12.3733,22.212 L31.2933,3.293 C31.5483,3.038 31.8453,3 32.0003,3" id="Fill-1"></path>
        <path d="M34.5003,33 L1.5003,33 C0.6713,33 0.0003,33.672 0.0003,34.5 C0.0003,35.328 0.6713,36 1.5003,36 L34.5003,36 C35.3283,36 36.0003,35.328 36.0003,34.5 C36.0003,33.672 35.3283,33 34.5003,33" id="Fill-4"></path>
    </g>
</svg>
