<svg viewBox="0 0 40 40" version="1.1" xmlns="http://www.w3.org/2000/svg" xmlns:xlink="http://www.w3.org/1999/xlink">
    <g fill-rule="evenodd">
        <g transform="translate(2.000000, 2.000000)">
            <path d="M18.0002,0 C12.4772,0 8.0002,4.477 8.0002,10 C8.0002,15.523 12.4772,20 18.0002,20 C23.5222,20 28.0002,15.523 28.0002,10 C28.0002,4.477 23.5222,0 18.0002,0 M18.0002,3 C21.8592,3 25.0002,6.14 25.0002,10 C25.0002,13.86 21.8592,17 18.0002,17 C14.1402,17 11.0002,13.86 11.0002,10 C11.0002,6.14 14.1402,3 18.0002,3"></path>
            <g id="Group-5" transform="translate(0.000000, 18.000000)">
                <path d="M27.7473,0.5762 C27.7383,0.5862 27.7283,0.5972 27.7203,0.6072 C27.1323,1.2752 27.2683,2.3102 28.0123,2.7982 C31.0133,4.7632 33.0003,8.1522 33.0003,12.0002 L33.0003,14.0002 C33.0003,14.5532 32.5523,15.0002 32.0003,15.0002 L4.0003,15.0002 C3.4473,15.0002 3.0003,14.5532 3.0003,14.0002 L3.0003,12.0002 C3.0003,8.1522 4.9873,4.7632 7.9883,2.7982 C8.7323,2.3102 8.8683,1.2752 8.2803,0.6072 C8.2703,0.5972 8.2623,0.5862 8.2533,0.5762 C7.7633,0.0162 6.9383,-0.1058 6.3173,0.3032 C2.5143,2.8052 0.0003,7.1062 0.0003,12.0002 L0.0003,14.0002 C0.0003,16.2092 1.7913,18.0002 4.0003,18.0002 L32.0003,18.0002 C34.2093,18.0002 36.0003,16.2092 36.0003,14.0002 L36.0003,12.0002 C36.0003,7.1062 33.4863,2.8052 29.6833,0.3032 C29.0613,-0.1058 28.2363,0.0162 27.7473,0.5762"></path>
            </g>
        </g>
    </g>
</svg>

