<svg viewBox="0 0 40 40" version="1.1" xmlns="http://www.w3.org/2000/svg" xmlns:xlink="http://www.w3.org/1999/xlink">
        <g>
            <path d="M21.4456,17.1406 C22.0316,16.5546 22.0316,15.6046 21.4456,15.0186 C20.8596,14.4336 19.9096,14.4336 19.3246,15.0186 L2.0006,32.3426 L2.0056,37.9946 L7.6566,37.9996 L24.9806,20.6756 C25.5666,20.0896 25.5666,19.1406 24.9806,18.5546 C24.3946,17.9686 23.4456,17.9686 22.8596,18.5546 L6.4156,34.9986 L5.0026,34.9966 L5.0016,33.5846 L21.4456,17.1406 Z"></path>
            <path d="M34.7074,6.707 L28.1634,13.251 L26.7484,11.837 L33.2934,5.293 C33.6834,4.903 34.3164,4.903 34.7074,5.293 C35.0974,5.683 35.0974,6.317 34.7074,6.707 M31.1714,3.172 L24.6274,9.716 L21.4454,6.534 C20.8594,5.948 19.9094,5.948 19.3244,6.534 C18.7384,7.119 18.7384,8.069 19.3244,8.655 L22.5064,11.837 L24.6274,13.958 L26.0414,15.373 L28.1634,17.494 L31.3454,20.676 C31.9314,21.262 32.8804,21.262 33.4664,20.676 C34.0524,20.09 34.0524,19.141 33.4664,18.555 L30.2844,15.373 L36.8284,8.828 C38.3914,7.267 38.3914,4.733 36.8284,3.172 C35.2664,1.609 32.7334,1.609 31.1714,3.172"></path>
        </g>
</svg>