<svg viewBox="0 0 40 40" version="1.1" xmlns="http://www.w3.org/2000/svg" xmlns:xlink="http://www.w3.org/1999/xlink">
    <g id="Icon/Filetype-PPT">
        <path d="M12.1364,16.749 C13.2344,16.749 13.9184,16.119 13.9184,15.111 C13.9184,14.103 13.2344,13.454 12.1364,13.454 L10.1194,13.454 C10.0474,13.454 10.0114,13.49 10.0114,13.562 L10.0114,16.642 C10.0114,16.713 10.0474,16.749 10.1194,16.749 L12.1364,16.749 Z M7.5444,23.411 C7.4184,23.411 7.3654,23.357 7.3654,23.231 L7.3654,11.348 C7.3654,11.222 7.4184,11.168 7.5444,11.168 L12.2984,11.168 C13.6124,11.168 14.6574,11.527 15.4124,12.248 C16.1874,12.968 16.5654,13.923 16.5654,15.111 C16.5654,16.281 16.1874,17.218 15.4124,17.956 C14.6384,18.676 13.6124,19.036 12.2984,19.036 L10.1194,19.036 C10.0474,19.036 10.0114,19.072 10.0114,19.144 L10.0114,23.231 C10.0114,23.357 9.9574,23.411 9.8314,23.411 L7.5444,23.411 Z"></path>
        <path d="M23.026,16.749 C24.125,16.749 24.808,16.119 24.808,15.111 C24.808,14.103 24.125,13.454 23.026,13.454 L21.009,13.454 C20.937,13.454 20.901,13.49 20.901,13.562 L20.901,16.642 C20.901,16.713 20.937,16.749 21.009,16.749 L23.026,16.749 Z M18.435,23.411 C18.308,23.411 18.255,23.357 18.255,23.231 L18.255,11.348 C18.255,11.222 18.308,11.168 18.435,11.168 L23.188,11.168 C24.503,11.168 25.547,11.527 26.303,12.248 C27.078,12.968 27.456,13.923 27.456,15.111 C27.456,16.281 27.078,17.218 26.303,17.956 C25.529,18.676 24.503,19.036 23.188,19.036 L21.009,19.036 C20.937,19.036 20.901,19.072 20.901,19.144 L20.901,23.231 C20.901,23.357 20.847,23.411 20.721,23.411 L18.435,23.411 Z"></path>
        <path d="M3.8453,12.4111 C3.7193,12.4111 3.6643,12.3571 3.6643,12.2311 L3.6643,2.6351 C3.6643,2.5621 3.6293,2.5261 3.5573,2.5261 L0.4603,2.5261 C0.3333,2.5261 0.2803,2.4731 0.2803,2.3471 L0.2803,0.3481 C0.2803,0.2221 0.3333,0.1681 0.4603,0.1681 L9.5173,0.1681 C9.6433,0.1681 9.6973,0.2221 9.6973,0.3481 L9.6973,2.3471 C9.6973,2.4731 9.6433,2.5261 9.5173,2.5261 L6.4193,2.5261 C6.3483,2.5261 6.3123,2.5621 6.3123,2.6351 L6.3123,12.2311 C6.3123,12.3571 6.2573,12.4111 6.1313,12.4111 L3.8453,12.4111 Z" transform="translate(28.000000, 11.000000)"></path>
        <path d="M22.9996,28.5 L22.9996,32 C22.9996,32.553 22.5526,33 21.9996,33 L3.9996,33 C3.4476,33 2.9996,32.553 2.9996,32 L2.9996,4 C2.9996,3.447 3.4476,3 3.9996,3 L21.9996,3 C22.5526,3 22.9996,3.447 22.9996,4 L22.9996,7.5 C22.9996,8.328 23.6716,9 24.4996,9 C25.3286,9 25.9996,8.328 25.9996,7.5 L25.9996,4 C25.9996,1.791 24.2096,0 21.9996,0 L3.9996,0 C1.7906,0 -0.0004,1.791 -0.0004,4 L-0.0004,32 C-0.0004,34.209 1.7906,36 3.9996,36 L21.9996,36 C24.2096,36 25.9996,34.209 25.9996,32 L25.9996,28.5 C25.9996,27.672 25.3286,27 24.4996,27 C23.6716,27 22.9996,27.672 22.9996,28.5"></path>
    </g>
</svg>
