<svg xmlns="http://www.w3.org/2000/svg" viewBox="0 0 40 40">
        <path d="M20.016 0C8.962 0 0 8.947 0 19.984c0 8.47 5.272 15.707 12.718 18.618-.181-1.579-.33-4.013.066-5.74.363-1.563 2.34-9.935 2.34-9.935s-.594-1.2-.594-2.96c0-2.78 1.615-4.852 3.625-4.852 1.713 0 2.537 1.283 2.537 2.813 0 1.71-1.087 4.276-1.664 6.66-.478 1.99 1.005 3.62 2.965 3.62 3.559 0 6.294-3.75 6.294-9.146 0-4.786-3.444-8.125-8.37-8.125-5.7 0-9.044 4.26-9.044 8.668 0 1.71.66 3.553 1.483 4.556a.594.594 0 0 1 .132.576c-.149.625-.495 1.99-.56 2.27-.083.361-.297.443-.676.263-2.504-1.168-4.07-4.803-4.07-7.747 0-6.3 4.58-12.089 13.23-12.089 6.936 0 12.34 4.934 12.34 11.546 0 6.892-4.35 12.434-10.38 12.434-2.026 0-3.937-1.052-4.58-2.302l-1.252 4.753c-.444 1.744-1.664 3.915-2.487 5.247 1.878.575 3.855.888 5.93.888C31.038 40 40 31.053 40 20.016 40.033 8.947 31.07 0 20.016 0"/>

</svg>
