<svg version="1.1" xmlns="http://www.w3.org/2000/svg"   viewBox="0 0 32 32">
<path d="M24.343 21.029c-0.229-0.114-0.229 0.229-0.229 0.457 0.114 0.571 0.343 0.914 0.457 1.029s0.343-0.114 0.114-0.686c0-0.229-0.114-0.686-0.343-0.8zM22.057 21.943c0 0 0 0 0 0s0 0 0 0 0 0 0 0-0.114 0 0 0c-0.114 0-0.114 0-0.114 0-0.229 0-0.343 0-0.457 0.114-0.343 0.229-0.343 0.686-0.114 1.143 0.114 0.229 0.343 0.343 0.457 0.343 0 0 0 0 0 0s0 0 0 0 0 0 0 0 0 0 0 0 0 0 0 0c0.229 0 0.343 0 0.457-0.114 0.343-0.229 0.343-0.686 0.114-1.143 0-0.114-0.114-0.229-0.343-0.343zM29.943 29.943c-0.8-1.6-2.286-2.857-3.771-3.771-0.571-0.343-1.143-0.571-1.714-0.686-1.257-0.343-2.4-0.457-3.771-0.686-1.143-0.229-1.943-0.686-2.971-1.257-0.457-0.343-0.914-0.8-1.257-1.257-0.114-0.114-0.343-0.457-0.343-0.571 0 0-0.229 0.914 0.229 2.057-4-0.229-7.543-2.4-9.143-5.029-2.857-5.143-1.829-11.086 2.057-13.714s9.943-0.8 13.143 4c2.057 2.971 2.514 6.514 1.714 9.371 0 0 0 0 0 0.114-1.714-1.257-3.314-0.571-3.314-0.571 1.714-0.229 3.086 1.143 3.086 1.143 0.229 0.229 0.343 0.343 0.571 0.571 0 0 0.114 0.114 0.114 0.114 0.457 0.571 0.686 1.257 0.8 1.943 3.429-4.343 4-10.286 0.914-14.857-3.886-5.943-12-7.429-18.286-3.429-6.057 4-8 12.114-4.229 17.943 3.2 4.914 10.514 6.286 14.743 5.029 1.6-0.457 7.086-1.029 10.857 3.543 0 0 0.343 0.343 0.457 0.8 0 0 0 0.114 0.229 0.114 0.114 0 0.229-0.114-0.114-0.914z"></path>
</svg>
