<svg viewBox="0 0 40 40" version="1.1" xmlns="http://www.w3.org/2000/svg" xmlns:xlink="http://www.w3.org/1999/xlink">
    <g transform="translate(3.000000, 2.000000)">
        <path transform="translate(17.000000, 0.000000)" d="M15.0002,0 L10.0002,0 C9.1712,0 8.5002,0.671 8.5002,1.5 C8.5002,0.671 7.8282,0 7.0002,0 L2.0002,0 C1.1712,0 0.5002,0.671 0.5002,1.5 C0.5002,2.329 1.1712,3 2.0002,3 L6.5002,3 C6.7762,3 7.0002,3.224 7.0002,3.5 L7.0002,32.5 C7.0002,32.776 6.7762,33 6.5002,33 L2.0002,33 C1.1712,33 0.5002,33.672 0.5002,34.5 C0.5002,35.328 1.1712,36 2.0002,36 L7.0002,36 C7.8282,36 8.5002,35.328 8.5002,34.5 C8.5002,35.328 9.1712,36 10.0002,36 L15.0002,36 C15.8282,36 16.5002,35.328 16.5002,34.5 C16.5002,33.672 15.8282,33 15.0002,33 L10.5002,33 C10.2242,33 10.0002,32.776 10.0002,32.5 L10.0002,3.5 C10.0002,3.224 10.2242,3 10.5002,3 L15.0002,3 C15.8282,3 16.5002,2.329 16.5002,1.5 C16.5002,0.671 15.8282,0 15.0002,0"></path>
        <path d="M18.0002,28.5 C18.0002,27.672 17.3282,27 16.5002,27 C15.6712,27 15.0002,27.672 15.0002,28.5 C15.0002,29.328 15.6712,30 16.5002,30 C17.3282,30 18.0002,29.328 18.0002,28.5"></path>
        <path d="M13.0002,28.5 C13.0002,27.672 12.3282,27 11.5002,27 C10.6712,27 10.0002,27.672 10.0002,28.5 C10.0002,29.328 10.6712,30 11.5002,30 C12.3282,30 13.0002,29.328 13.0002,28.5"></path>
        <path d="M8.0002,28.5 C8.0002,27.672 7.3282,27 6.5002,27 C5.6712,27 5.0002,27.672 5.0002,28.5 C5.0002,29.328 5.6712,30 6.5002,30 C7.3282,30 8.0002,29.328 8.0002,28.5"></path>
        <path d="M3.0002,28.5 C3.0002,27.672 2.3282,27 1.5002,27 C0.6712,27 0.0002,27.672 0.0002,28.5 C0.0002,29.328 0.6712,30 1.5002,30 C2.3282,30 3.0002,29.328 3.0002,28.5"></path>
    </g>
</svg>
