<svg xmlns="http://www.w3.org/2000/svg" viewBox="0 0 40 40">
    <path fill-rule="evenodd" d="M27.46 8.64c.553 0 1-.448 1-1s-.447-1-1-1c-.552 0-1 .448-1 1s.448 1 1 1zm-4.509 12.427h3.986V17.95h-3.986v3.117zm-4.993 0h3.992V17.95h-3.992v3.117zM32.58 16.95h-4.645v-1.492c0-.276-.224-.499-.499-.499-.276 0-.499.223-.499.499v1.492H22.95v-1.49c0-.22-.139-.41-.34-.47-.049-.02-.1-.03-.16-.03-.28 0-.5.22-.5.5v1.49h-3.992v-1.492c0-.276-.224-.499-.499-.499s-.498.223-.498.499v1.492H12.87c-.099 0-.189.03-.26.08-.15.08-.24.24-.24.42 0 .28.22.5.5.5h4.091v3.117h-2.833c-.275 0-.499.223-.499.498 0 .276.224.499.499.499h2.833v2.014c0 .275.223.499.498.499s.499-.224.499-.499v-2.014h3.992v2.016c0 .27.22.5.5.5.271 0 .5-.23.5-.5v-2.016h3.987v2.014c0 .275.223.499.499.499.275 0 .499-.224.499-.499v-2.014h3.384c.276 0 .499-.223.499-.499 0-.275-.223-.498-.499-.498h-3.384V17.95h4.645c.21 0 .391-.13.47-.32.02-.06.03-.12.03-.18 0-.27-.229-.5-.5-.5zm3.391-1.98l-3.101 9.8c-.139.42-.519.7-.96.7h-18.2c-.439 0-.819-.28-.95-.7l-3.51-11.1h25.76c.44 0 .7.26.81.41.111.15.281.47.151.89zm-21.54 16.5c.829 0 1.5.67 1.5 1.5s-.671 1.5-1.5 1.5c-.83 0-1.5-.67-1.5-1.5s.67-1.5 1.5-1.5zM13.3 9.64c0-.55.45-1 1-1h6.31c.14 0 .281.03.4.09.36.15.6.5.6.91v2.03H13.3V9.64zM21.01 6c0-.56.45-1 1-1h9.95c.561 0 1 .44 1 1v5.67H22.61V9.64c0-.96-.679-1.77-1.6-1.96V6zm9.45 25.47c.83 0 1.5.67 1.5 1.5s-.67 1.5-1.5 1.5c-.819 0-1.5-.67-1.5-1.5s.681-1.5 1.5-1.5zm4.55-19.8h-1.05V6c0-1.11-.89-2-2-2h-9.95c-1.11 0-2 .89-2 2v1.64H14.3c-1.1 0-2 .9-2 2v2.03H8.612L6.558 5.154v-.001H3.723c-.346-.596-.985-1-1.723-1-1.104 0-2 .895-2 2 0 1.104.896 2 2 2 .738 0 1.377-.405 1.723-1h1.368l7.258 23.019c-.86.63-1.418 1.649-1.418 2.798 0 1.93 1.569 3.5 3.5 3.5 1.579 0 2.92-1.06 3.349-2.5v-.002h9.329c.001.001.001.002.001.002.43 1.44 1.77 2.5 3.35 2.5 1.94 0 3.5-1.57 3.5-3.5s-1.56-3.5-3.5-3.5c-1.579 0-2.919 1.059-3.349 2.498h-9.332c-.43-1.439-1.769-2.498-3.348-2.498-.071 0-.131 0-.2.01h-.003l-.637-2.02c.04.01.079.01.119.01h18.2c1.311 0 2.47-.85 2.861-2.1l3.099-9.79c.611-1.94-.83-3.91-2.86-3.91zm-4.55-3.03c.553 0 1-.448 1-1s-.447-1-1-1c-.552 0-1 .448-1 1s.448 1 1 1z"/>
</svg>
