<svg xmlns="http://www.w3.org/2000/svg" viewBox="0 0 40 40">
    <path fill-rule="evenodd" d="M19 11.99h16v-2H19v2zM31.65 36h-8.62v-1.99H24c.55 0 1-.45 1-1v-2c0-.55-.45-1-1-1h-.97v-2H24c.52 0 .95-.41.99-.92.62.27 1.3.42 2.01.42 2.76 0 5-2.24 5-5s-2.24-5-5-5c-1.109 0-2.13.36-2.95.98-.74-1.29-1.89-2.32-3.27-2.91L20.66 14h12.68l-1.69 22zM20.3 33.01c-.06-.14-.13-.28-.21-.41-.46-.75-1.3-1.25-2.25-1.25-1.11 0-2.07.68-2.46 1.66H4v-2h2.13c.39.98 1.35 1.66 2.46 1.66 1.11 0 2.07-.68 2.46-1.66H24v2h-3.7zm-3.78 0c.3-.4.78-.66 1.32-.66s1.02.26 1.31.66h-2.63zM7.03 36h14v-1.99h-14V36zM4 27.01v-1h8.29c0 .55.44 1 1 1 .55 0 1-.45 1-1h4.08c-.22.18-.37.45-.37.76 0 .09.03.16.05.24H9.849c0-.55-.449-1-1-1-.559 0-1 .45-1 1H4zm3.03-2h14V23h-14v2.01zm12.92 2c.021-.08.05-.15.05-.24 0-.31-.151-.58-.38-.76H24v1h-4.05zm-10.05 4c-.29.4-.77.66-1.31.66s-1.02-.26-1.32-.66H9.9zm-2.87-1h14v-2h-14v2zm17.46-10.62c.68-.55 1.56-.88 2.51-.88 2.2 0 4 1.79 4 4 0 2.2-1.8 4-4 4-.73 0-1.42-.2-2-.54-.02-.53-.46-.96-1-.96h-.12c-.45-.57-.76-1.26-.85-2.01H24c.55 0 1-.45 1-1 0-.93-.18-1.8-.51-2.61zM4 22c0-3.31 2.69-6 6-6h8c.27 0 .55.02.81.06.74.09 1.44.33 2.06.67 1.03.57 1.87 1.41 2.43 2.44.171.33.32.68.43 1.04.18.57.27 1.17.27 1.79H4zM36 7.99h-8.52V5.24l2.54-2.53-.71-.71-2.83 2.83v3.16H18c-.55 0-1 .45-1 1v4c0 .56.45 1 1 1h.65l.08 1.05c-.24-.03-.48-.04-.73-.04h-8c-3.87 0-7 3.13-7 7 0 .55.45 1 1 1h1.03v2.01H4c-.56 0-1 .45-1 1v1c0 .55.44 1 1 1h1.03v2H4c-.56 0-1 .45-1 1v2c0 .55.44 1 1 1h1.03V36c0 1.1.89 2 2 2h14c.23 0 .45-.04.66-.12.21.08.43.12.659.12h9.301c1.04 0 1.91-.8 1.991-1.85l1.699-22.16H36c.55 0 1-.44 1-1v-4c0-.55-.45-1-1-1zM19.79 19c-.28 0-.54.12-.73.31-.16.18-.27.42-.27.69 0 .32.15.6.38.78v.01c.17.13.39.21.62.21.55 0 1-.45 1-1s-.45-1-1-1zm-3.304-2c-.552 0-1 .447-1 1 0 .552.448 1 1 1 .553 0 1-.448 1-1 0-.553-.447-1-1-1zM14 19.416c-.553 0-1 .448-1 1s.447 1 1 1c.553 0 1-.448 1-1s-.447-1-1-1zm-6.41-.807c-.552 0-1 .448-1 1s.448 1 1 1 1-.448 1-1-.448-1-1-1zm3.696-1.654c-.552 0-1 .448-1 1s.448 1 1 1c.553 0 1-.448 1-1s-.447-1-1-1z"/>
</svg>
