<?xml version="1.0" encoding="UTF-8"?>
<svg viewBox="0 0 40 40" version="1.1" xmlns="http://www.w3.org/2000/svg" xmlns:xlink="http://www.w3.org/1999/xlink">
    <path d="M17.0468,15.9854 L17.0468,8.1184 C17.0468,7.9344 17.1398,7.8424 17.3228,7.8424 L22.4758,7.8424 C25.2818,7.8424 27.0298,9.4994 27.0298,12.0754 C27.0298,14.6514 25.2818,16.2614 22.4758,16.2614 L20.6238,16.2614 L17.3228,16.2614 C17.1398,16.2614 17.0468,16.1704 17.0468,15.9854 M17.3228,22.1044 L22.8898,22.1044 C26.2478,22.1044 28.8708,21.1834 30.8488,19.3434 C32.8268,17.4584 33.7928,15.0654 33.7928,12.0754 C33.7928,9.0394 32.8268,6.6004 30.8488,4.7594 C28.9168,2.9204 26.2478,2.0004 22.8898,2.0004 L10.7438,2.0004 C10.4898,2.0004 10.2838,2.2064 10.2838,2.4604 L10.2838,15.9624 C10.2838,16.1274 10.1498,16.2614 9.9848,16.2614 L6.7068,16.2614 C6.4308,16.2614 6.2068,16.4854 6.2068,16.7614 L6.2068,21.5634 C6.2068,21.8394 6.4308,22.0634 6.7068,22.0634 L9.9848,22.0634 C10.1498,22.0634 10.2838,22.1974 10.2838,22.3634 L10.2838,26.6124 C10.2838,26.7784 10.1498,26.9134 9.9848,26.9134 L6.7068,26.9134 C6.4308,26.9134 6.2068,27.1364 6.2068,27.4134 L6.2068,32.2624 C6.2068,32.5394 6.4308,32.7624 6.7068,32.7624 L9.9848,32.7624 C10.1498,32.7624 10.2838,32.8964 10.2838,33.0624 L10.2838,37.5644 C10.2838,37.8194 10.4898,38.0244 10.7438,38.0244 L16.5868,38.0244 C16.8408,38.0244 17.0468,37.8194 17.0468,37.5644 L17.0468,33.0624 C17.0468,32.8964 17.1818,32.7624 17.3468,32.7624 L26.5298,32.7624 C26.8068,32.7624 27.0298,32.5394 27.0298,32.2624 L27.0298,27.4134 C27.0298,27.1364 26.8068,26.9134 26.5298,26.9134 L17.3468,26.9134 C17.1818,26.9134 17.0468,26.7784 17.0468,26.6124 L17.0468,22.3814 C17.0468,22.2284 17.1708,22.1044 17.3228,22.1044"></path>
</svg>