<svg viewBox="0 0 40 40" version="1.1" xmlns="http://www.w3.org/2000/svg">
    <g id="Icons/Social/Rutube" stroke="none" stroke-width="1" fill-rule="evenodd">
        <path d="M27.5780623,0.00127701135 L28.3279839,0.0114646921 L29.021009,0.0317674502 L29.3473768,0.0456883082 L29.3473768,0.0456883082 L29.9622056,0.081021632 C30.8479719,0.141484816 31.5738807,0.235447159 32.197834,0.361758056 L32.5993337,0.450745072 C33.0516108,0.560124903 33.449995,0.688918936 33.8217297,0.8365858 L34.2110604,1.00199738 L34.2110604,1.00199738 L34.5874422,1.18170449 L34.8842285,1.33566352 C36.5138581,2.20719898 37.792801,3.48614185 38.6643365,5.11577148 L38.8182955,5.41255776 L38.9980026,5.78893964 L38.9980026,5.78893964 L39.1634142,6.1782703 C39.3110811,6.55000497 39.4398751,6.94838916 39.5492549,7.40066627 L39.6382419,7.80216604 C39.7645528,8.42611934 39.8585152,9.15202807 39.9189784,10.0377944 L39.9543117,10.6526232 L39.9682325,10.978991 L39.9682325,10.978991 L39.9885353,11.6720161 L40,12.6187549 L40,27.180574 L39.9920335,28.1459864 L39.9920335,28.1459864 L39.9682325,29.021009 L39.9543117,29.3473768 L39.9543117,29.3473768 L39.9189784,29.9622056 C39.8585152,30.8479719 39.7645528,31.5738807 39.6382419,32.197834 L39.5492549,32.5993337 C39.4398751,33.0516108 39.3110811,33.449995 39.1634142,33.8217297 L38.9980026,34.2110604 L38.9980026,34.2110604 L38.8182955,34.5874422 L38.6643365,34.8842285 C37.792801,36.5138581 36.5138581,37.792801 34.8842285,38.6643365 L34.5874422,38.8182955 L34.2110604,38.9980026 L34.2110604,38.9980026 L33.8217297,39.1634142 C33.449995,39.3110811 33.0516108,39.4398751 32.5993337,39.5492549 L32.197834,39.6382419 C31.5738807,39.7645528 30.8479719,39.8585152 29.9622056,39.9189784 L29.3473768,39.9543117 L29.021009,39.9682325 L29.021009,39.9682325 L28.3279839,39.9885353 L27.3812451,40 L12.819426,40 L11.8540136,39.9920335 L11.8540136,39.9920335 L10.978991,39.9682325 L10.6526232,39.9543117 L10.6526232,39.9543117 L10.0377944,39.9189784 C9.15202807,39.8585152 8.42611934,39.7645528 7.80216604,39.6382419 L7.40066627,39.5492549 C6.94838916,39.4398751 6.55000497,39.3110811 6.1782703,39.1634142 L5.78893964,38.9980026 L5.78893964,38.9980026 L5.41255776,38.8182955 L5.11577148,38.6643365 C3.48614185,37.792801 2.20719898,36.5138581 1.33566352,34.8842285 L1.18170449,34.5874422 L1.00199738,34.2110604 L1.00199738,34.2110604 L0.8365858,33.8217297 C0.688918936,33.449995 0.560124903,33.0516108 0.450745072,32.5993337 L0.361758056,32.197834 C0.235447159,31.5738807 0.141484816,30.8479719 0.081021632,29.9622056 L0.0456883082,29.3473768 L0.0317674502,29.021009 L0.0317674502,29.021009 L0.0114646921,28.3279839 L0.00127701135,27.5780623 L0.00127701135,12.4219377 L0.0114646921,11.6720161 L0.0317674502,10.978991 L0.0456883082,10.6526232 L0.0456883082,10.6526232 L0.081021632,10.0377944 C0.141484816,9.15202807 0.235447159,8.42611934 0.361758056,7.80216604 L0.450745072,7.40066627 C0.560124903,6.94838916 0.688918936,6.55000497 0.8365858,6.1782703 L1.00199738,5.78893964 L1.00199738,5.78893964 L1.18170449,5.41255776 L1.33566352,5.11577148 C2.20719898,3.48614185 3.48614185,2.20719898 5.11577148,1.33566352 L5.41255776,1.18170449 L5.78893964,1.00199738 L5.78893964,1.00199738 L6.1782703,0.8365858 C6.55000497,0.688918936 6.94838916,0.560124903 7.40066627,0.450745072 L7.80216604,0.361758056 C8.42611934,0.235447159 9.15202807,0.141484816 10.0377944,0.081021632 L10.6526232,0.0456883082 L10.978991,0.0317674502 L10.978991,0.0317674502 L11.6720161,0.0114646921 L12.4219377,0.00127701135 L27.5780623,0.00127701135 Z M20.6795724,9 L11,9 L11,30.9573883 L16.5250706,30.9573883 L16.5250706,24.5922343 L20.7652343,24.5922343 L24.9625822,30.9573883 L24.9625822,31 L31.3442508,31 L26.1190118,23.310722 C28.4745846,21.9436803 29.8880099,19.594224 29.8880099,16.7320608 C29.8880099,12.0765158 26.337366,9.10931725 20.9791024,9.00295814 L20.6795724,9 Z M20.6367466,13.7844805 C22.7354563,13.7844805 24.4057753,14.8951585 24.4057753,16.6893369 C24.4057753,18.4649993 22.8849638,19.6019971 20.8491445,19.675824 L20.6367466,19.6796514 L16.5678965,19.6796514 L16.5678965,13.7844805 L20.6367466,13.7844805 Z" id="Shape"></path>
    </g>
</svg>
