<svg viewBox="0 0 40 40" version="1.1" xmlns="http://www.w3.org/2000/svg" xmlns:xlink="http://www.w3.org/1999/xlink">
    <g transform="translate(2.000000, 2.000000)">
        <path d="M24.4969,24.9893 C25.3259,24.9893 25.9969,24.3183 25.9969,23.4893 L25.9969,19.7503 C25.9969,18.9213 25.3259,18.2503 24.4969,18.2503 C23.6689,18.2503 22.9969,18.9213 22.9969,19.7503 L22.9969,23.4893 C22.9969,24.3183 23.6689,24.9893 24.4969,24.9893"></path>
        <path d="M28.9979,27 C28.9979,27.553 28.5509,28 27.9979,28 L20.9969,28 C20.4449,28 19.9969,27.553 19.9969,27 L19.9969,15.25 L28.9979,15.25 L28.9979,27 Z M33.4999,12.25 L27.4969,12.25 C27.4969,10.593 26.1539,9.25 24.4969,9.25 C22.8409,9.25 21.4969,10.593 21.4969,12.25 L15.4999,12.25 C14.6699,12.25 13.9999,12.92 13.9999,13.75 C13.9999,14.58 14.6699,15.25 15.4999,15.25 L16.9969,15.25 L16.9969,27 C16.9969,29.209 18.7879,31 20.9969,31 L27.9979,31 C30.2069,31 31.9979,29.209 31.9979,27 L31.9979,15.25 L33.4999,15.25 C34.3299,15.25 34.9999,14.58 34.9999,13.75 C34.9999,12.92 34.3299,12.25 33.4999,12.25 Z"></path>
        <path d="M21.9999,33 L19.0759,33 L3.9999,33 C3.4479,33 2.9999,32.553 2.9999,32 L2.9999,4 C2.9999,3.448 3.4479,3 3.9999,3 L21.9999,3 C22.5529,3 22.9999,3.448 22.9999,4 L22.9999,6.37 C22.9999,7.198 23.6719,7.87 24.4999,7.87 C25.3279,7.87 25.9999,7.198 25.9999,6.37 L25.9999,4 C25.9999,1.791 24.2089,0 21.9999,0 L3.9999,0 C1.7909,0 -0.0001,1.791 -0.0001,4 L-0.0001,32 C-0.0001,34.209 1.7909,36 3.9999,36 L21.9999,36 C22.0289,36 22.0579,36 22.0869,35.999 C24.0279,35.958 23.9419,33 21.9999,33"></path>
    </g>
</svg>
