<svg viewBox="0 0 40 40" version="1.1" xmlns="http://www.w3.org/2000/svg" xmlns:xlink="http://www.w3.org/1999/xlink">

            <g transform="translate(2.000000, 2.000000)">
                <path d="M32.71,9.5801 L26,16.2901 L23,19.2901 L13.79,28.5001 L12.38,28.5001 L12.38,27.0801 L23,16.4701 L31.3,8.1701 C31.55,7.9101 31.85,7.8701 32,7.8701 C32.16,7.8701 32.46,7.9101 32.71,8.1701 C32.97,8.4201 33,8.7201 33,8.8701 C33,9.0301 32.97,9.3201 32.71,9.5801 Z M23,32.0001 C23,32.5501 22.561,33.0001 22,33.0001 L4,33.0001 C3.45,33.0001 3,32.5501 3,32.0001 L3,4.0001 C3,3.4501 3.45,3.0001 4,3.0001 L22,3.0001 C22.561,3.0001 23,3.4501 23,4.0001 L23,12.2201 L9.38,25.8401 L9.38,31.4901 L15.03,31.5001 L23,23.5301 L23,32.0001 Z M34.83,6.0401 C34.05,5.2601 33.03,4.8701 32,4.8701 C30.981,4.8701 29.96,5.2601 29.18,6.0401 L26,9.2201 L26,4.0001 C26,1.7901 24.21,0.0001 22,0.0001 L4,0.0001 C1.79,0.0001 0,1.7901 0,4.0001 L0,32.0001 C0,34.2101 1.79,36.0001 4,36.0001 L22,36.0001 C24.21,36.0001 26,34.2101 26,32.0001 L26,20.5301 L34.83,11.7001 C36.391,10.1401 36.391,7.6101 34.83,6.0401 Z"></path>
    </g>
</svg>