<svg viewBox="0 0 40 40" version="1.1" xmlns="http://www.w3.org/2000/svg">
        <g id="Icon/Rules" transform="translate(2.000000, 2.000000)">
                <path d="M31.2844,6.8828 L7.9504,30.2178 C7.3644,30.8038 6.4144,30.8038 5.8284,30.2178 C5.2424,29.6318 5.2424,28.6818 5.8284,28.0968 L29.1624,4.7618 C29.7484,4.1758 30.6984,4.1758 31.2844,4.7618 C31.8694,5.3478 31.8694,6.2978 31.2844,6.8828" id="Fill-3"></path>
                <path d="M10.2463,8.125 L14.4893,3.882 C15.0753,3.296 15.0753,2.347 14.4893,1.761 C13.9033,1.175 12.9533,1.175 12.3673,1.761 L8.1253,6.004 L3.8823,1.761 C3.2963,1.175 2.3473,1.175 1.7613,1.761 C1.1753,2.347 1.1753,3.296 1.7613,3.882 L6.0033,8.125 L1.7613,12.368 C1.1753,12.954 1.1753,13.903 1.7613,14.489 C2.3473,15.075 3.2963,15.075 3.8823,14.489 L8.1253,10.246 L12.3673,14.489 C12.9533,15.075 13.9033,15.075 14.4893,14.489 C15.0753,13.903 15.0753,12.954 14.4893,12.368 L10.2463,8.125 Z" id="Fill-5"></path>
                <path d="M35.2995,22.9248 C34.7145,22.3398 33.7635,22.3398 33.1785,22.9248 L26.4605,29.6428 L22.5715,25.7538 C21.9865,25.1678 21.0365,25.1678 20.4505,25.7538 C19.8645,26.3398 19.8645,27.2888 20.4505,27.8748 L25.4005,32.8238 C25.9865,33.4098 26.9355,33.4098 27.5215,32.8238 L35.2995,25.0468 C35.8855,24.4608 35.8855,23.5108 35.2995,22.9248" id="Fill-7"></path>
        </g>
</svg>
