<svg xmlns="http://www.w3.org/2000/svg" viewBox="0 0 40 40">
    <path fill-rule="evenodd" d="M15.5 14.5c0 .551-.449 1-1 1h-7c-.552 0-1-.449-1-1v-7c0-.551.448-1 1-1h7c.551 0 1 .449 1 1v7zm-1-11h-7a4 4 0 0 0-4 4v7a4 4 0 0 0 4 4h7a4 4 0 0 0 4-4v-7a4 4 0 0 0-4-4zm19 11c0 .551-.449 1-1 1h-7c-.552 0-1-.449-1-1v-7c0-.551.448-1 1-1h7c.551 0 1 .449 1 1v7zm-1-11h-7a4 4 0 0 0-4 4v7a4 4 0 0 0 4 4h7a4 4 0 0 0 4-4v-7a4 4 0 0 0-4-4zm-17 29c0 .552-.449 1-1 1h-7a1 1 0 0 1-1-1v-7a1 1 0 0 1 1-1h7c.551 0 1 .448 1 1v7zm-1-11h-7a4 4 0 0 0-4 4v7a4 4 0 0 0 4 4h7a4 4 0 0 0 4-4v-7a4 4 0 0 0-4-4zm19 11c0 .552-.449 1-1 1h-7a1 1 0 0 1-1-1v-7a1 1 0 0 1 1-1h7c.551 0 1 .448 1 1v7zm-1-11h-7a4 4 0 0 0-4 4v7a4 4 0 0 0 4 4h7a4 4 0 0 0 4-4v-7a4 4 0 0 0-4-4z"/>
</svg>
