<svg viewBox="0 0 40 40" version="1.1" xmlns="http://www.w3.org/2000/svg" xmlns:xlink="http://www.w3.org/1999/xlink">
    <g id="Icons/Actions/Send" stroke="none" stroke-width="1" fill-rule="evenodd">
        <path d="M34.4473,20.8942 L6.5383,34.8432 C6.4983,34.8602 6.4573,34.8782 6.4163,34.8982 C6.3943,34.9082 6.3713,34.9172 6.3433,34.9272 C6.3003,34.9442 6.2593,34.9572 6.2263,34.9652 C6.1973,34.9722 6.1683,34.9792 6.1403,34.9862 C6.1143,34.9892 6.0753,34.9912 6.0193,34.9922 C6.0103,34.9922 6.0013,34.9922 5.9923,34.9932 L5.9833,34.9932 C5.9273,34.9912 5.8863,34.9882 5.8583,34.9852 C5.8303,34.9782 5.8043,34.9712 5.7803,34.9662 C5.7383,34.9562 5.6973,34.9432 5.6503,34.9252 L5.5673,34.8942 C5.5353,34.8782 5.5063,34.8622 5.4953,34.8562 L5.4123,34.7952 C5.3763,34.7692 5.3423,34.7412 5.3223,34.7232 C5.2993,34.7012 5.2753,34.6792 5.2513,34.6572 C5.2353,34.6382 5.2143,34.6122 5.1903,34.5772 L5.1593,34.5302 C5.0983,34.4372 5.0573,34.3382 5.0243,34.1882 C5.0043,34.0762 5.0013,34.0212 5.0013,34.0092 L5.0013,34.0012 L5.0013,33.9982 C5.0013,33.8632 5.0303,33.7332 5.0883,33.6002 L5.2233,33.2732 L5.2403,33.1912 L9.6453,21.5002 L21.9983,21.5002 C22.8263,21.5002 23.4983,20.8282 23.4983,20.0002 C23.4983,19.1722 22.8263,18.5002 21.9983,18.5002 L9.6423,18.5002 L5.2243,6.7702 L5.2043,6.6762 L5.0823,6.3932 C5.0283,6.2682 5.0013,6.1372 5.0013,6.0022 L5.0013,6.0012 C5.0013,5.9722 5.0053,5.9162 5.0323,5.7732 C5.0573,5.6622 5.0983,5.5622 5.1773,5.4412 C5.2093,5.3952 5.2343,5.3632 5.2523,5.3412 C5.2733,5.3232 5.2933,5.3052 5.3103,5.2882 C5.3433,5.2582 5.3773,5.2302 5.4493,5.1782 L5.4613,5.1662 C5.5033,5.1392 5.5433,5.1182 5.5793,5.1012 L5.6563,5.0722 C5.6973,5.0572 5.7383,5.0442 5.7733,5.0352 C5.8013,5.0292 5.8293,5.0222 5.8583,5.0142 C5.8853,5.0112 5.9233,5.0082 5.9773,5.0072 L5.9863,5.0072 L6.0213,5.0072 C6.0753,5.0092 6.1133,5.0112 6.1403,5.0132 C6.1673,5.0202 6.1923,5.0272 6.2173,5.0322 C6.2583,5.0422 6.2993,5.0552 6.3483,5.0742 C6.3713,5.0832 6.3933,5.0912 6.4193,5.1042 C6.4593,5.1222 6.4983,5.1392 6.5383,5.1562 L34.4473,19.1052 C34.9283,19.3462 35.0003,19.7692 35.0003,20.0002 C35.0003,20.2302 34.9283,20.6542 34.4473,20.8942 M35.7893,16.4222 L7.7893,2.4272 C7.7543,2.4102 7.7193,2.3992 7.6843,2.3832 C7.5963,2.3422 7.5073,2.3052 7.4153,2.2702 C7.2493,2.2072 7.0823,2.1552 6.9153,2.1152 C6.8693,2.1042 6.8273,2.0882 6.7813,2.0792 C6.5483,2.0312 6.3143,2.0132 6.0823,2.0082 C6.0543,2.0082 6.0283,2.0002 6.0003,2.0002 C5.9733,2.0002 5.9493,2.0072 5.9223,2.0082 C5.6903,2.0122 5.4613,2.0322 5.2373,2.0772 C5.1823,2.0872 5.1303,2.1052 5.0763,2.1182 C4.9093,2.1582 4.7463,2.2092 4.5863,2.2702 C4.5133,2.2972 4.4393,2.3232 4.3683,2.3552 C4.1873,2.4362 4.0143,2.5312 3.8473,2.6382 C3.7793,2.6812 3.7163,2.7282 3.6513,2.7762 C3.5143,2.8752 3.3833,2.9832 3.2593,3.0992 C3.2233,3.1332 3.1843,3.1632 3.1493,3.1992 C2.9933,3.3562 2.8533,3.5302 2.7253,3.7132 C2.6983,3.7512 2.6733,3.7892 2.6483,3.8282 C2.3963,4.2142 2.2093,4.6482 2.1043,5.1212 C2.0923,5.1712 2.0823,5.2222 2.0733,5.2742 C2.0313,5.5052 2.0023,5.7432 2.0013,5.9902 C2.0013,5.9932 2.0003,5.9962 2.0003,6.0002 C2.0003,6.0002 2.0003,6.0012 2.0003,6.0022 C2.0003,6.0032 2.0003,6.0042 2.0003,6.0052 L2.0013,6.0102 C2.0023,6.5682 2.1193,7.0992 2.3283,7.5812 L2.3333,7.6062 L7.0033,20.0032 L2.3533,32.3462 L2.3443,32.3882 C2.1273,32.8792 2.0023,33.4192 2.0013,33.9902 L2.0003,33.9952 C2.0003,33.9962 2.0003,33.9972 2.0003,33.9982 C2.0003,33.9982 2.0003,33.9992 2.0003,34.0002 C2.0003,34.0032 2.0013,34.0062 2.0013,34.0092 C2.0023,34.2572 2.0313,34.4942 2.0733,34.7262 C2.0823,34.7772 2.0923,34.8282 2.1043,34.8792 C2.2093,35.3522 2.3963,35.7862 2.6483,36.1712 C2.6733,36.2102 2.6983,36.2492 2.7253,36.2872 C2.8533,36.4702 2.9933,36.6432 3.1493,36.8012 C3.1843,36.8362 3.2233,36.8662 3.2593,36.9002 C3.3833,37.0172 3.5143,37.1242 3.6513,37.2242 C3.7163,37.2712 3.7793,37.3182 3.8473,37.3622 C4.0143,37.4692 4.1873,37.5632 4.3683,37.6452 C4.4393,37.6772 4.5133,37.7022 4.5873,37.7302 C4.7463,37.7912 4.9083,37.8412 5.0753,37.8822 C5.1293,37.8952 5.1823,37.9122 5.2373,37.9232 C5.4613,37.9672 5.6903,37.9872 5.9223,37.9922 C5.9483,37.9922 5.9733,38.0002 6.0003,38.0002 C6.0283,38.0002 6.0553,37.9922 6.0833,37.9912 C6.3153,37.9872 6.5473,37.9682 6.7813,37.9212 C6.8273,37.9122 6.8713,37.8952 6.9163,37.8842 C7.0833,37.8442 7.2493,37.7932 7.4143,37.7302 C7.5063,37.6952 7.5963,37.6572 7.6853,37.6162 C7.7193,37.6002 7.7543,37.5892 7.7883,37.5722 L35.7883,23.5772 C38.7373,22.1042 38.7373,17.8962 35.7893,16.4222" id="Send"></path>
    </g>
</svg>
