<svg viewBox="0 0 40 40" version="1.1" xmlns="http://www.w3.org/2000/svg" xmlns:xlink="http://www.w3.org/1999/xlink">
    <g fill-rule="evenodd">
        <path d="M38,16.5 L38,3.5 C38,3.303 37.96,3.107 37.884,2.923 C37.88,2.915 37.875,2.909 37.872,2.901 C37.799,2.734 37.697,2.577 37.562,2.44 C37.561,2.439 37.561,2.439 37.561,2.439 C37.424,2.302 37.266,2.201 37.099,2.128 C37.091,2.125 37.085,2.12 37.077,2.117 C36.893,2.04 36.696,2 36.5,2 L23.5,2 C22.672,2 22,2.671 22,3.5 C22,4.329 22.672,5 23.5,5 L32.879,5 L19.883,17.996 C19.297,18.582 19.297,19.531 19.883,20.117 C20.469,20.703 21.419,20.703 22.004,20.117 L35,7.121 L35,16.5 C35,17.329 35.672,18 36.5,18 C37.328,18 38,17.329 38,16.5" id="Fill-1"></path>
        <path d="M34.8672,21.8623 C33.9122,29.5343 27.1562,35.4303 19.1322,34.9753 C11.6152,34.5493 5.4512,28.3843 5.0242,20.8683 C4.5692,12.8433 10.4662,6.0883 18.1382,5.1333 C18.8852,5.0403 19.4432,4.4053 19.4432,3.6533 C19.4432,2.7563 18.6592,2.0473 17.7682,2.1563 C8.1862,3.3413 0.9332,12.0403 2.1292,22.1863 C3.0892,30.3353 9.6652,36.9113 17.8132,37.8713 C27.9602,39.0663 36.6582,31.8133 37.8432,22.2313 C37.9532,21.3413 37.2442,20.5563 36.3462,20.5563 C35.5952,20.5563 34.9602,21.1153 34.8672,21.8623"></path>
    </g>
</svg>
