<svg viewBox="0 0 40 40" version="1.1" xmlns="http://www.w3.org/2000/svg" xmlns:xlink="http://www.w3.org/1999/xlink">
    <g transform="translate(20.000000, 21.000000) rotate(180.000000) translate(-20.000000, -21.000000) translate(2.000000, 3.000000)">
        <path d="M21.4108,28.9433 L21.4108,15.9433 C21.4108,15.7473 21.3708,15.5503 21.2948,15.3663 C21.2918,15.3593 21.2868,15.3523 21.2828,15.3443 C21.2108,15.1773 21.1078,15.0203 20.9728,14.8833 C20.9718,14.8833 20.9718,14.8823 20.9718,14.8823 C20.8348,14.7463 20.6768,14.6443 20.5098,14.5713 C20.5018,14.5683 20.4958,14.5633 20.4878,14.5603 C20.3038,14.4833 20.1068,14.4433 19.9108,14.4433 L6.9108,14.4433 C6.0828,14.4433 5.4108,15.1153 5.4108,15.9433 C5.4108,16.7723 6.0828,17.4433 6.9108,17.4433 L16.2898,17.4433 L3.2938,30.4393 C2.7078,31.0253 2.7078,31.9743 3.2938,32.5603 C3.8798,33.1463 4.8298,33.1463 5.4148,32.5603 L18.4108,19.5643 L18.4108,28.9433 C18.4108,29.7723 19.0828,30.4433 19.9108,30.4433 C20.7388,30.4433 21.4108,29.7723 21.4108,28.9433"></path>
        <path d="M2.9879,16.1381 C3.9419,8.4661 10.6979,2.5701 18.7229,3.0251 C26.2389,3.4501 32.4039,9.6161 32.8299,17.1311 C33.2849,25.1561 27.3879,31.9121 19.7169,32.8671 C18.9689,32.9601 18.4109,33.5951 18.4109,34.3461 C18.4109,35.2441 19.1959,35.9531 20.0859,35.8431 C29.6689,34.6581 36.9209,25.9601 35.7249,15.8131 C34.7649,7.6651 28.1889,1.0891 20.0409,0.1291 C9.8949,-1.0669 1.1969,6.1861 0.0109,15.7691 C-0.0991,16.6591 0.6109,17.4441 1.5079,17.4441 C2.2599,17.4441 2.8949,16.8851 2.9879,16.1381"></path>
    </g>
</svg>
