<svg viewBox="0 0 12 12" version="1.1" xmlns="http://www.w3.org/2000/svg" xmlns:xlink="http://www.w3.org/1999/xlink">
    <g transform="translate(-9.000000, -9.000000)">
        <path d="M21,18.3767682 L21,9.97001051 C21,9.8426158 20.9741331,9.71586776 20.9249859,9.5968798 C20.9223992,9.59170641 20.9191658,9.58782637 20.9172258,9.58265298 C20.8700186,9.47465848 20.8040579,9.37313071 20.7167569,9.28453642 C20.7161103,9.28388974 20.7161103,9.28388974 20.7161103,9.28388974 C20.627516,9.19529545 20.5253415,9.12998141 20.417347,9.08277423 C20.4121736,9.08083421 20.4082936,9.07760084 20.4031202,9.07566082 C20.2841322,9.02586695 20.1567375,9 20.0299895,9 L11.6232318,9 C11.087786,9 10.6532212,9.43391803 10.6532212,9.97001051 C10.6532212,10.506103 11.087786,10.940021 11.6232318,10.940021 L17.6883841,10.940021 L9.28421308,19.3441921 C8.90526231,19.7231428 8.90526231,20.3368361 9.28421308,20.7157869 C9.66316385,21.0947377 10.2775038,21.0947377 10.6558079,20.7157869 L19.059979,12.3116159 L19.059979,18.3767682 C19.059979,18.9128607 19.4945437,19.3467788 20.0299895,19.3467788 C20.5654353,19.3467788 21,18.9128607 21,18.3767682"></path>
    </g>
</svg>