<svg version="1.1" xmlns="http://www.w3.org/2000/svg" viewBox="0 0 40 40">
        <path transform="translate(2 6)" d="M10.34 19.986l-2.39 2.39V2c0-.828-.672-1.5-1.5-1.5-.829 0-1.5.672-1.5 1.5v20.375L2.56 19.986c-.586-.586-1.536-.586-2.12 0-.587.586-.587 1.535 0 2.121l4.931 4.934c.274.282.655.46 1.077.46.424 0 .805-.178 1.077-.46l4.934-4.934c.586-.586.586-1.535 0-2.12-.586-.587-1.535-.587-2.12 0M18.407 9.5H25.5c.828 0 1.5-.672 1.5-1.5s-.672-1.5-1.5-1.5h-7.092c-.829 0-1.5.672-1.5 1.5s.671 1.5 1.5 1.5m16.092 15H18.485c-.83 0-1.5.672-1.5 1.5s.67 1.5 1.5 1.5H34.5c.828 0 1.5-.672 1.5-1.5s-.672-1.5-1.5-1.5M16.985 20c0 .828.67 1.5 1.5 1.5H31.5c.828 0 1.5-.672 1.5-1.5s-.672-1.5-1.5-1.5H18.485c-.83 0-1.5.672-1.5 1.5m1.423-16.5H22.5c.828 0 1.5-.672 1.5-1.5S23.328.5 22.5.5h-4.092c-.829 0-1.5.672-1.5 1.5s.671 1.5 1.5 1.5M16.985 14c0 .828.67 1.5 1.5 1.5H28.5c.828 0 1.5-.672 1.5-1.5s-.672-1.5-1.5-1.5H18.485c-.83 0-1.5.672-1.5 1.5"/>
</svg>
