<svg viewBox="0 0 40 40" version="1.1" xmlns="http://www.w3.org/2000/svg" xmlns:xlink="http://www.w3.org/1999/xlink">
    <path transform="translate(2 6)" d="M28.5 12.5H18.484c-.828 0-1.5.672-1.5 1.5s.672 1.5 1.5 1.5H28.5c.829 0 1.5-.672 1.5-1.5s-.671-1.5-1.5-1.5m3-6H18.484c-.828 0-1.5.672-1.5 1.5s.672 1.5 1.5 1.5H31.5c.829 0 1.5-.672 1.5-1.5s-.671-1.5-1.5-1.5m3-6H18.484c-.828 0-1.5.672-1.5 1.5s.672 1.5 1.5 1.5H34.5c.829 0 1.5-.672 1.5-1.5S35.329.5 34.5.5M10.339 19.986l-2.39 2.39V2c0-.828-.671-1.5-1.5-1.5-.827 0-1.5.672-1.5 1.5v20.375l-2.387-2.389c-.586-.586-1.537-.586-2.123 0-.585.586-.585 1.535 0 2.121l4.934 4.934c.273.282.653.46 1.077.46.423 0 .804-.178 1.077-.46l4.934-4.934c.585-.586.585-1.535 0-2.12-.586-.587-1.536-.587-2.122 0m15.16-1.487h-7.09c-.83 0-1.5.672-1.5 1.5s.67 1.5 1.5 1.5h7.09c.83 0 1.5-.672 1.5-1.5s-.67-1.5-1.5-1.5m-3 6h-4.09c-.83 0-1.5.672-1.5 1.5s.67 1.5 1.5 1.5h4.09c.83 0 1.5-.672 1.5-1.5s-.67-1.5-1.5-1.5"/>
</svg>
