<svg xmlns="http://www.w3.org/2000/svg" viewBox="0 0 20 20">
        <path transform="translate(1 1.5)" id="a"
              d="M9 0c-.853 0-1.603.545-1.867 1.356l-1.22 3.756h-3.95c-.852 0-1.603.545-1.867 1.356A1.959 1.959 0 0 0 .81 8.663l3.195 2.322-1.22 3.755a1.94 1.94 0 0 0 .274 1.757c.371.51.967.814 1.594.814.414 0 .813-.13 1.152-.377L9 14.614l3.195 2.32c.339.247.737.377 1.152.377.627 0 1.223-.304 1.593-.814a1.94 1.94 0 0 0 .276-1.757l-1.221-3.755 3.195-2.322c.69-.502.976-1.384.713-2.195a1.958 1.958 0 0 0-1.867-1.356h-3.949l-1.22-3.756A1.958 1.958 0 0 0 9 0m0 1.5c.185 0 .37.107.44.32l1.453 4.473c.062.19.24.32.44.32h4.703c.448 0 .635.573.272.836l-3.804 2.764a.463.463 0 0 0-.168.518l1.453 4.473a.464.464 0 0 1-.442.607.459.459 0 0 1-.27-.09l-3.805-2.764a.463.463 0 0 0-.544 0l-3.804 2.764a.46.46 0 0 1-.271.09.465.465 0 0 1-.442-.607l1.454-4.473a.464.464 0 0 0-.169-.518L1.691 7.45a.462.462 0 0 1 .272-.837h4.704c.2 0 .378-.129.44-.32L8.558 1.82A.455.455 0 0 1 9 1.5"/>
</svg>
