<svg xmlns="http://www.w3.org/2000/svg" viewBox="0 0 20 20">
    <path transform="translate(1 1.5)"
          d="M9 0c-.853 0-1.603.545-1.867 1.356l-1.22 3.756h-3.95c-.852 0-1.603.545-1.867 1.356A1.959 1.959 0 0 0 .81 8.663l3.195 2.322-1.22 3.755a1.94 1.94 0 0 0 .274 1.757c.371.51.967.814 1.594.814.414 0 .813-.13 1.152-.377L9 14.614l3.195 2.32c.339.247.737.377 1.152.377.627 0 1.223-.304 1.593-.814a1.94 1.94 0 0 0 .276-1.757l-1.221-3.755 3.195-2.322c.69-.502.976-1.384.713-2.195a1.958 1.958 0 0 0-1.867-1.356h-3.949l-1.22-3.756A1.958 1.958 0 0 0 9 0"/>
</svg>
