<svg viewBox="0 0 40 40" version="1.1">
    <path d="M27.4247,17.5605 L19.6467,25.3385 C19.0607,25.9245 18.1117,25.9245 17.5257,25.3385 L12.5757,20.3895 C11.9897,19.8035 11.9897,18.8535 12.5757,18.2675 C13.1607,17.6825 14.1117,17.6825 14.6967,18.2675 L18.5857,22.1575 L25.3037,15.4395 C25.8887,14.8535 26.8387,14.8535 27.4247,15.4395 C28.0107,16.0255 28.0107,16.9745 27.4247,17.5605 M19.9997,4.9995 C11.7157,4.9995 4.9997,11.7155 4.9997,19.9995 C4.9997,28.2845 11.7157,34.9995 19.9997,34.9995 C28.2837,34.9995 34.9997,28.2845 34.9997,19.9995 C34.9997,11.7155 28.2837,4.9995 19.9997,4.9995"></path>
</svg>
