<svg viewBox="0 0 40 40" version="1.1" xmlns="http://www.w3.org/2000/svg" xmlns:xlink="http://www.w3.org/1999/xlink">
    <g>
        <path d="M31.3135,15.3358 C31.8995,14.7498 31.8995,13.7998 31.3135,13.2148 C30.7275,12.6288 29.7785,12.6288 29.1925,13.2148 L17.5255,24.8818 L10.8075,18.1648 C10.2215,17.5788 9.2725,17.5788 8.6865,18.1648 C8.1005,18.7498 8.1005,19.6998 8.6865,20.2858 L16.4645,28.0638 C17.0495,28.6498 18.0005,28.6498 18.5855,28.0638 L31.3135,15.3358 Z"></path>
        <path d="M20,-0.0002 C8.954,-0.0002 0,8.9548 0,19.9998 C0,31.0458 8.954,39.9998 20,39.9998 C31.046,39.9998 40,31.0458 40,19.9998 C40,8.9548 31.046,-0.0002 20,-0.0002 M20,2.9998 C29.374,2.9998 37,10.6258 37,19.9998 C37,29.3738 29.374,36.9998 20,36.9998 C10.626,36.9998 3,29.3738 3,19.9998 C3,10.6258 10.626,2.9998 20,2.9998"></path>
    </g>
</svg>
