<svg xmlns="http://www.w3.org/2000/svg" viewBox="0 0 68.2 18.98">
    <defs>
        <style>.cls-1,.cls-2{fill:#fff;}.cls-2{opacity:0.5;}</style>
    </defs
    >
    <path class="cls-1" d="M56.06,11.46h-6.5c.26-2,1.51-3.33,3.29-3.33S55.87,9.59,56.06,11.46ZM53.18,19a6.42,6.42,0,0,0,5.19-2.38l-1.71-1.51a4.59,4.59,0,0,1-3.43,1.51,3.54,3.54,0,0,1-3.65-3.22H58.9c0-.14,0-.62,0-.81,0-3.65-2-6.82-6.07-6.82a6.29,6.29,0,0,0-6.19,6.6A6.34,6.34,0,0,0,53.18,19Zm-11-.08a5.18,5.18,0,0,0,2.62-.64V15.88a3.88,3.88,0,0,1-1.8.43,1.38,1.38,0,0,1-1.56-1.58V8.51h3.41V6H41.4V2.54H38.5V6H36.89V8.51H38.5v6.67C38.5,18,40,18.9,42.14,18.9Zm-8-.21V6H31.2V18.69Zm.1-14.62V1.31H31.08V4.07ZM20.52,19a4.56,4.56,0,0,0,4-2.23v2h2.9V6h-2.9v7.15a2.82,2.82,0,0,1-2.86,3.14c-1.72,0-2.71-1.13-2.71-3.09V6H16v8.06C16,17,17.66,19,20.52,19ZM7,18.93c3.53,0,6-1.87,6-5,0-2.83-1.85-4.1-5.4-5-3.22-.76-4-1.34-4-2.64,0-1.15,1-2,2.74-2A7.61,7.61,0,0,1,10.92,6L12.5,3.76A9.27,9.27,0,0,0,6.41,1.65c-3.34,0-5.74,2-5.74,4.87,0,3.14,2,4.2,5.59,5,3.12.74,3.8,1.39,3.8,2.59s-1.16,2.16-3,2.16a7.71,7.71,0,0,1-5.3-2.18L0,16.24A10.36,10.36,0,0,0,7,18.93Z"/>
    <path class="cls-2" d="M65.12,8.55c-.6,0-.89-.3-1.29-1V3.5c0-1.09.28-2.17,1.28-2.17a.84.84,0,0,1,.85.94c0,.66-.26,1.06-1,1.06l-.59,1.11v.22c1.26,0,2.07.09,2.07,1.79C66.45,7.78,65.7,8.55,65.12,8.55Zm-1.52,4a3,3,0,0,0,.23-1.32V9.35a1.88,1.88,0,0,0,1.36.53,2.87,2.87,0,0,0,2-.72,4.23,4.23,0,0,0,1-2.94,2.36,2.36,0,0,0-1.58-2.34l0,0a1.78,1.78,0,0,0,1-1.7A2.24,2.24,0,0,0,65.21,0c-2.45,0-3.06,2-3.06,4v7.38a3.29,3.29,0,0,1-.22,1.23Z"/></svg>
