<svg viewBox="0 0 40 40" version="1.1" xmlns="http://www.w3.org/2000/svg" >
    <g>
            <path d="M28.035,29.575 C27.401,30.108 26.454,30.025 25.922,29.39 L18.851,20.964 C18.835,20.945 18.825,20.923 18.81,20.903 C18.778,20.86 18.747,20.817 18.72,20.77 C18.696,20.73 18.673,20.69 18.653,20.648 C18.632,20.603 18.613,20.558 18.596,20.511 C18.578,20.464 18.564,20.418 18.552,20.37 C18.54,20.324 18.531,20.278 18.524,20.232 C18.515,20.179 18.511,20.127 18.508,20.073 C18.507,20.049 18.5,20.025 18.5,20 L18.5,13 C18.5,12.172 19.172,11.5 20,11.5 C20.829,11.5 21.5,12.172 21.5,13 L21.5,19.454 L28.22,27.462 C28.753,28.096 28.67,29.043 28.035,29.575 M20,5 C11.716,5 5,11.716 5,20 C5,28.284 11.716,35 20,35 C28.285,35 35,28.284 35,20 C35,11.716 28.285,5 20,5" ></path>
    </g>
</svg>
