<svg viewBox="0 0 40 40" version="1.1" xmlns="http://www.w3.org/2000/svg">
    <g>
        <path d="M20,29.5 C18.896,29.5 18,28.604 18,27.5 C18,26.396 18.896,25.5 20,25.5 C21.104,25.5 22,26.396 22,27.5 C22,28.604 21.104,29.5 20,29.5 Z M18.5,12 C18.5,11.172 19.171,10.5 20,10.5 C20.828,10.5 21.5,11.172 21.5,12 L21.5,22 C21.5,22.829 20.828,23.5 20,23.5 C19.171,23.5 18.5,22.829 18.5,22 L18.5,12 Z M20,5 C11.716,5 5,11.716 5,20 C5,28.284 11.716,35 20,35 C28.284,35 35,28.284 35,20 C35,11.716 28.284,5 20,5 Z"></path>
    </g>
</svg>
