<svg viewBox="0 0 40 40" aria-labelledby="Tenchat icon" fill="none" xmlns="http://www.w3.org/2000/svg" class="sm:w-[12px] sm:h-[12px] md:w-[16px] md:h-[16px] xl:w-[13px] xl:h-[13px] 2xl:w-[18px] 2xl:h-[18px]"><title id="Tenchat icon" lang="en">Tenchat icon</title> <rect width="26.0396" height="26.0396" transform="translate(7.92188 3.82324)" fill="#4B4AEF"></rect> <path fill-rule="evenodd" clip-rule="evenodd" d="M30.567 8.35188C30.567 7.72661 30.0601 7.21973 29.4348 7.21973H12.4525C11.8272 7.21973 11.3203 7.72661 11.3203 8.35188V12.3144C11.3203 12.9397 11.8272 13.4466 12.4525 13.4466H16.4187C17.0439 13.4466 17.5508 13.9535 17.5508 14.5787L17.5508 25.333C17.5508 25.9582 18.0577 26.4651 18.683 26.4651H23.2116C23.8369 26.4651 24.3437 25.9582 24.3437 25.333L24.3438 14.5787C24.3438 13.9535 24.8506 13.4466 25.4759 13.4466H29.4348C30.0601 13.4466 30.567 12.9397 30.567 12.3144V8.35188Z" fill="white"></path> <path d="M6.75234 1.8088C15.7884 -0.602934 25.298 -0.602934 34.3341 1.8088C37.3674 2.61821 39.6841 5.10375 40.2863 8.19457C41.3532 13.672 41.3532 19.3057 40.2863 24.7831C39.6843 27.8739 37.3675 30.3595 34.3341 31.1697C34.105 31.2309 33.8754 31.2906 33.6455 31.3487C33.1907 31.4633 32.8694 31.877 32.8694 32.348V38.8955C32.8694 39.0557 32.7763 39.2017 32.6315 39.2692C32.4868 39.3368 32.3154 39.314 32.1935 39.2104L25.5387 33.572C24.9779 33.097 24.2564 32.8544 23.5234 32.8952C17.8774 33.2108 12.217 32.6283 6.75234 31.1697C3.7189 30.3595 1.40219 27.8739 0.800163 24.7831C-0.266721 19.3057 -0.266721 13.672 0.800163 8.19457C1.40234 5.10375 3.71905 2.61821 6.75234 1.8088ZM24.2412 24.7337C24.4666 24.7337 24.6521 24.5476 24.6521 24.3215V16.4888H32.4585C32.6839 16.4888 32.8694 16.3028 32.8694 16.0767V8.65619C32.8694 8.43009 32.6839 8.24402 32.4585 8.24402H8.62837C8.40294 8.24402 8.2175 8.43009 8.2175 8.65619V16.0767C8.2175 16.3028 8.40294 16.4888 8.62837 16.4888H16.4348V24.3215C16.4348 24.5476 16.6203 24.7337 16.8456 24.7337H24.2412Z" fill="#4B4AEF"></path> <path fill-rule="evenodd" clip-rule="evenodd" d="M30.567 8.35091C30.567 7.72563 30.0601 7.21875 29.4348 7.21875H12.4525C11.8272 7.21875 11.3203 7.72563 11.3203 8.3509V12.3135C11.3203 12.9387 11.8272 13.4456 12.4525 13.4456H16.4187C17.0439 13.4456 17.5508 13.9525 17.5508 14.5778L17.5508 25.333C17.5508 25.9582 18.0577 26.4651 18.683 26.4651H23.2116C23.8369 26.4651 24.3437 25.9582 24.3437 25.333L24.3438 14.5778C24.3438 13.9525 24.8506 13.4456 25.4759 13.4456H29.4348C30.0601 13.4456 30.567 12.9387 30.567 12.3135V8.35091Z" fill="white"></path></svg>
