<svg version="1.1" xmlns="http://www.w3.org/2000/svg"   viewBox="0 0 32 32">
<path d="M26.629 26.629h-23.314c-1.143 0-2.171-0.914-2.171-2.171 0-1.143 0.914-2.171 2.171-2.171h23.314c1.143 0 2.171 0.914 2.171 2.171-0.114 1.257-1.029 2.171-2.171 2.171zM22.4 18.171h-19.086c-1.257 0-2.171-1.029-2.171-2.171s0.914-2.171 2.171-2.171h19.086c1.143 0 2.171 0.914 2.171 2.171-0.114 1.143-1.029 2.171-2.171 2.171zM28.686 9.6h-25.371c-1.257 0-2.171-0.914-2.171-2.057s0.914-2.171 2.171-2.171h25.486c1.143 0 2.171 0.914 2.171 2.171-0.114 1.143-1.029 2.057-2.286 2.057z"></path>
</svg>
