<svg xmlns="http://www.w3.org/2000/svg" viewBox="0 0 20 20">
        <path transform="translate(1 1)"
               d="M9 16.5c-4.135 0-7.5-3.364-7.5-7.5S4.865 1.5 9 1.5c4.136 0 7.5 3.364 7.5 7.5s-3.364 7.5-7.5 7.5zM9 0a9 9 0 1 0 0 18A9 9 0 0 0 9 0zm3 5.5a1.5 1.5 0 1 0 0 3 1.5 1.5 0 0 0 0-3zM7.5 7a1.5 1.5 0 1 0-3 0 1.5 1.5 0 0 0 3 0zm4.604 5.457a.76.76 0 0 0-.953-.088 4.01 4.01 0 0 1-4.303.002.76.76 0 0 0-.953.088l-.002.001a.756.756 0 0 0 .137 1.172 5.504 5.504 0 0 0 5.94 0 .757.757 0 0 0 .136-1.172l-.002-.003z"/>
</svg>
