<svg viewBox="0 0 40 40" version="1.1" xmlns="http://www.w3.org/2000/svg" xmlns:xlink="http://www.w3.org/1999/xlink">
	<g transform="translate(5.000000, 2.000000)">
		<path d="M11.9996,15 C11.1716,15 10.4996,15.671 10.4996,16.5 L10.4996,28.489 C10.4996,29.318 11.1716,29.989 11.9996,29.989 C12.8286,29.989 13.4996,29.318 13.4996,28.489 L13.4996,16.5 C13.4996,15.671 12.8286,15 11.9996,15"></path>
		<path d="M17.9996,15 C17.1716,15 16.4996,15.671 16.4996,16.5 L16.4996,28.489 C16.4996,29.318 17.1716,29.989 17.9996,29.989 C18.8286,29.989 19.4996,29.318 19.4996,28.489 L19.4996,16.5 C19.4996,15.671 18.8286,15 17.9996,15"></path>
		<path d="M22.4996,13.5 L22.4996,32 C22.4996,32.553 22.0526,33 21.4996,33 L8.4996,33 C7.9476,33 7.4996,32.553 7.4996,32 L7.4996,13.5 C7.4996,12.671 6.8286,12 5.9996,12 C5.1716,12 4.4996,12.671 4.4996,13.5 L4.4996,32 C4.4996,34.209 6.2906,36 8.4996,36 L21.4996,36 C23.7096,36 25.4996,34.209 25.4996,32 L25.4996,13.5 C25.4996,12.671 24.8286,12 23.9996,12 C23.1716,12 22.4996,12.671 22.4996,13.5"></path>
		<path d="M12.0005,4 C12.0005,3.449 12.4485,3 13.0005,3 L17.0005,3 C17.5515,3 18.0005,3.449 18.0005,4 L18.0005,6 L12.0005,6 L12.0005,4 Z M28.4995,6 L21.0005,6 L21.0005,4 C21.0005,1.791 19.2095,0 17.0005,0 L13.0005,0 C10.7905,0 9.0005,1.791 9.0005,4 L9.0005,6 L1.4995,6 C0.6715,6 -0.0005,6.671 -0.0005,7.5 C-0.0005,8.329 0.6715,9 1.4995,9 L28.4995,9 C29.3285,9 29.9995,8.329 29.9995,7.5 C29.9995,6.671 29.3285,6 28.4995,6 L28.4995,6 Z"></path>
	</g>
</svg>
