<svg xmlns="http://www.w3.org/2000/svg" viewBox="0 0 40 40">
        <path d="M31.434 17.45c-.218.022-.437.033-.657.034-2.407 0-4.652-1.213-5.97-3.227v10.988c0 4.485-3.636 8.12-8.121 8.12s-8.121-3.635-8.121-8.12c0-4.485 3.636-8.121 8.12-8.121.17 0 .336.015.503.026v4.001c-.167-.02-.33-.05-.502-.05-2.29 0-4.145 1.856-4.145 4.145 0 2.289 1.856 4.144 4.145 4.144 2.29 0 4.311-1.803 4.311-4.093l.04-18.66h3.829c.36 3.432 3.13 6.114 6.572 6.366v4.447M35.238 0H4.762C2.136 0 0 2.136 0 4.762v30.476C0 37.864 2.136 40 4.762 40h30.476C37.864 40 40 37.864 40 35.238V4.762C40 2.136 37.864 0 35.238 0"/>
</svg>
