<svg xmlns="http://www.w3.org/2000/svg" viewBox="0 0 40 40">
        <path fill="#000" d="M35.238 0H4.762C2.136 0 0 2.136 0 4.762v30.476C0 37.864 2.136 40 4.762 40h30.476C37.864 40 40 37.864 40 35.238V4.762C40 2.136 37.864 0 35.238 0"/>
        <path fill="#EE1D52" d="M14.345 27.852c-.517-.678-.797-1.507-.795-2.359 0-2.152 1.745-3.897 3.898-3.897.402 0 .8.062 1.183.183v-4.712c-.447-.06-.898-.087-1.349-.077v3.667c-.383-.121-.782-.183-1.183-.182-2.153 0-3.899 1.744-3.899 3.896 0 1.522.873 2.84 2.145 3.481zm13.305-16.4c-.926-1.01-1.534-2.317-1.665-3.76v-.593h-1.279c.322 1.835 1.42 3.403 2.944 4.353zm-1.665 4.65c1.81 1.294 4.03 2.055 6.426 2.055v-4.609c-.454 0-.906-.047-1.35-.141v3.628c-2.396 0-4.614-.762-6.426-2.055v9.404c0 4.705-3.815 8.52-8.522 8.52-1.757 0-3.39-.532-4.745-1.442 1.547 1.582 3.706 2.563 6.094 2.563 4.707 0 8.523-3.814 8.523-8.519v-9.404z"/>
        <path fill="#FFF" d="M24.635 14.98c1.812 1.293 4.03 2.055 6.426 2.055v-3.628c-1.337-.285-2.521-.983-3.411-1.955-1.524-.95-2.622-2.518-2.944-4.353h-3.359v18.407c-.008 2.146-1.75 3.884-3.899 3.884-1.266 0-2.39-.604-3.103-1.538-1.272-.642-2.145-1.96-2.145-3.48 0-2.153 1.745-3.897 3.899-3.897.412 0 .81.064 1.183.182V16.99c-4.624.095-8.343 3.872-8.343 8.516 0 2.319.926 4.42 2.429 5.956 1.356.91 2.988 1.441 4.745 1.441 4.707 0 8.522-3.814 8.522-8.518V14.98z"/>
        <path fill="#69C9D0" d="M17.282 16.99v-1.045c-.387-.053-.778-.079-1.17-.079-4.707 0-8.523 3.814-8.523 8.518 0 2.95 1.5 5.55 3.779 7.078-1.503-1.535-2.43-3.637-2.43-5.956 0-4.644 3.72-8.42 8.344-8.516zm7.424-9.891c-.03-.176-.054-.352-.07-.53v-.592h-4.639v18.407c-.007 2.146-1.75 3.884-3.898 3.884-.631 0-1.227-.15-1.754-.416.712.935 1.837 1.538 3.103 1.538 2.149 0 3.891-1.738 3.9-3.884V7.1h3.358zm6.355 6.308v-.981c-1.206.002-2.388-.336-3.411-.974.905.991 2.098 1.675 3.411 1.955z"/>
</svg>
