<svg xmlns="http://www.w3.org/2000/svg" viewBox="0 0 40 40">
        <path d="M30.05 16.21c.01.2.01.41.01.62 0 6.37-4.85 13.72-13.72 13.72-2.72 0-5.26-.8-7.37-2.18a9.693 9.693 0 0 0 7.14-1.99 4.814 4.814 0 0 1-4.5-3.35 4.806 4.806 0 0 0 2.18-.08 4.827 4.827 0 0 1-3.87-4.73v-.06c.65.36 1.39.58 2.18.6a4.8 4.8 0 0 1-2.15-4.01c0-.88.24-1.71.65-2.42a13.68 13.68 0 0 0 9.94 5.04c-.09-.35-.13-.72-.13-1.1 0-2.66 2.16-4.82 4.82-4.82 1.39 0 2.64.58 3.52 1.52 1.1-.22 2.13-.62 3.06-1.17a4.82 4.82 0 0 1-2.12 2.67c.98-.12 1.91-.38 2.77-.76a9.88 9.88 0 0 1-2.41 2.5M20 0C8.95 0 0 8.95 0 20s8.95 20 20 20 20-8.95 20-20S31.05 0 20 0"/>
</svg>
