<svg viewBox="0 0 40 40" version="1.1" xmlns="http://www.w3.org/2000/svg">
    <g id="Icons/Social/Vibe-Color" stroke="none" stroke-width="1" fill-rule="evenodd">
        <path d="M11.6720161,0.0114646921 L12.4219377,0.00127701135 L12.4219377,0.00127701135 L27.5780623,0.00127701135 L27.5780623,0.00127701135 L28.3279839,0.0114646921 L28.3279839,0.0114646921 L29.021009,0.0317674502 C29.1319836,0.0359899574 29.2407464,0.0406307695 29.3473768,0.0456883082 L29.9622056,0.081021632 C30.8479719,0.141484816 31.5738807,0.235447159 32.197834,0.361758056 L32.5993337,0.450745072 C33.0516108,0.560124903 33.449995,0.688918936 33.8217297,0.8365858 L34.1344684,0.967766689 C34.1857156,0.990396281 34.2365778,1.01340788 34.2871344,1.0367999 L34.5874422,1.18170449 L34.5874422,1.18170449 L34.8842285,1.33566352 L34.8842285,1.33566352 C36.5138581,2.20719898 37.792801,3.48614185 38.6643365,5.11577148 L38.8182955,5.41255776 L38.8182955,5.41255776 L38.9632001,5.71286564 C38.9865921,5.76342223 39.0096037,5.8142844 39.0322333,5.86553159 L39.1634142,6.1782703 C39.3110811,6.55000497 39.4398751,6.94838916 39.5492549,7.40066627 L39.6382419,7.80216604 C39.7645528,8.42611934 39.8585152,9.15202807 39.9189784,10.0377944 L39.9543117,10.6526232 C39.9593692,10.7592536 39.96401,10.8680164 39.9682325,10.978991 L39.9885353,11.6720161 L39.9885353,11.6720161 L39.998723,12.4219377 C39.9995738,12.5518778 40,12.6843474 40,12.819426 L40,27.180574 L39.9948983,27.9603734 C39.9931998,28.0853339 39.9910783,28.2078442 39.9885353,28.3279839 L39.9682325,29.021009 C39.96401,29.1319836 39.9593692,29.2407464 39.9543117,29.3473768 L39.9189784,29.9622056 C39.8585152,30.8479719 39.7645528,31.5738807 39.6382419,32.197834 L39.5492549,32.5993337 C39.4398751,33.0516108 39.3110811,33.449995 39.1634142,33.8217297 L39.0322333,34.1344684 C39.0096037,34.1857156 38.9865921,34.2365778 38.9632001,34.2871344 L38.8182955,34.5874422 L38.8182955,34.5874422 L38.6643365,34.8842285 L38.6643365,34.8842285 C37.792801,36.5138581 36.5138581,37.792801 34.8842285,38.6643365 L34.5874422,38.8182955 L34.5874422,38.8182955 L34.2871344,38.9632001 C34.2365778,38.9865921 34.1857156,39.0096037 34.1344684,39.0322333 L33.8217297,39.1634142 C33.449995,39.3110811 33.0516108,39.4398751 32.5993337,39.5492549 L32.197834,39.6382419 C31.5738807,39.7645528 30.8479719,39.8585152 29.9622056,39.9189784 L29.3473768,39.9543117 C29.2407464,39.9593692 29.1319836,39.96401 29.021009,39.9682325 L28.3279839,39.9885353 L28.3279839,39.9885353 L27.5780623,39.998723 C27.4481222,39.9995738 27.3156526,40 27.180574,40 L12.819426,40 L12.0396266,39.9948983 C11.9146661,39.9931998 11.7921558,39.9910783 11.6720161,39.9885353 L10.978991,39.9682325 C10.8680164,39.96401 10.7592536,39.9593692 10.6526232,39.9543117 L10.0377944,39.9189784 C9.15202807,39.8585152 8.42611934,39.7645528 7.80216604,39.6382419 L7.40066627,39.5492549 C6.94838916,39.4398751 6.55000497,39.3110811 6.1782703,39.1634142 L5.86553159,39.0322333 C5.8142844,39.0096037 5.76342223,38.9865921 5.71286564,38.9632001 L5.41255776,38.8182955 L5.41255776,38.8182955 L5.11577148,38.6643365 L5.11577148,38.6643365 C3.48614185,37.792801 2.20719898,36.5138581 1.33566352,34.8842285 L1.18170449,34.5874422 L1.18170449,34.5874422 L1.0367999,34.2871344 C1.01340788,34.2365778 0.990396281,34.1857156 0.967766689,34.1344684 L0.8365858,33.8217297 C0.688918936,33.449995 0.560124903,33.0516108 0.450745072,32.5993337 L0.361758056,32.197834 C0.235447159,31.5738807 0.141484816,30.8479719 0.081021632,29.9622056 L0.0456883082,29.3473768 C0.0406307695,29.2407464 0.0359899574,29.1319836 0.0317674502,29.021009 L0.0114646921,28.3279839 L0.0114646921,28.3279839 L0.00127701135,27.5780623 L0.00127701135,27.5780623 L0.00127701135,12.4219377 L0.00127701135,12.4219377 L0.0114646921,11.6720161 L0.0114646921,11.6720161 L0.0317674502,10.978991 C0.0359899574,10.8680164 0.0406307695,10.7592536 0.0456883082,10.6526232 L0.081021632,10.0377944 C0.141484816,9.15202807 0.235447159,8.42611934 0.361758056,7.80216604 L0.450745072,7.40066627 C0.560124903,6.94838916 0.688918936,6.55000497 0.8365858,6.1782703 L0.967766689,5.86553159 C0.990396281,5.8142844 1.01340788,5.76342223 1.0367999,5.71286564 L1.18170449,5.41255776 L1.18170449,5.41255776 L1.33566352,5.11577148 L1.33566352,5.11577148 C2.20719898,3.48614185 3.48614185,2.20719898 5.11577148,1.33566352 L5.41255776,1.18170449 L5.41255776,1.18170449 L5.71286564,1.0367999 C5.76342223,1.01340788 5.8142844,0.990396281 5.86553159,0.967766689 L6.1782703,0.8365858 C6.55000497,0.688918936 6.94838916,0.560124903 7.40066627,0.450745072 L7.80216604,0.361758056 C8.42611934,0.235447159 9.15202807,0.141484816 10.0377944,0.081021632 L10.6526232,0.0456883082 C10.7592536,0.0406307695 10.8680164,0.0359899574 10.978991,0.0317674502 L11.6720161,0.0114646921 L11.6720161,0.0114646921 Z" id="Mask" fill="#665CA7"></path>
        <path d="M20.63823,6.72645022 C24.1441017,6.75079655 26.6989448,7.30771888 28.4480554,7.93491165 L28.8524463,8.0865504 C28.9172912,8.1119695 28.9808656,8.13744184 29.0431786,8.16293786 L29.4019962,8.31596132 L29.4019962,8.31596132 L29.7309895,8.46813265 L29.7309895,8.46813265 L30.030605,8.61803166 C30.0781175,8.64274657 30.1244246,8.66730762 30.1695354,8.69168523 L30.4259209,8.83551287 L30.4259209,8.83551287 L30.6540443,8.97351768 C30.6897345,8.99595435 30.7242657,9.01808922 30.7576473,9.03989271 L30.9442146,9.1665004 L30.9442146,9.1665004 L31.1036357,9.28373474 L31.1036357,9.28373474 L31.2928447,9.43890456 L31.2928447,9.43890456 L31.3428249,9.48440262 C33.7735626,11.6346706 35.0356764,16.7298708 34.1475222,24.1623187 C33.5998272,28.6303574 31.3811817,30.5208663 29.5305009,31.3794744 L29.2339379,31.5099071 C29.1363734,31.5505324 29.040206,31.5883867 28.9457578,31.6237142 L28.6678928,31.7223603 L28.6678928,31.7223603 L28.402275,31.8073102 L28.402275,31.8073102 L28.0310382,31.9122585 L28.0310382,31.9122585 L27.500918,32.0394404 L27.500918,32.0394404 L27.1077215,32.1267918 L27.1077215,32.1267918 L26.995544,32.1557062 L26.995544,32.1557062 L26.7914717,32.213853 L26.7914717,32.213853 L26.4217428,32.3035507 L26.4217428,32.3035507 L26.0426605,32.3856893 L26.0426605,32.3856893 L25.7441682,32.4452519 L25.7441682,32.4452519 L25.4107385,32.5072414 L25.4107385,32.5072414 L25.0438105,32.5704444 L25.0438105,32.5704444 L24.6448237,32.6336474 L24.6448237,32.6336474 L24.2152171,32.695637 L24.2152171,32.695637 L23.7564302,32.7551995 L23.7564302,32.7551995 L23.016685,32.8373381 L23.016685,32.8373381 L22.4912438,32.8855241 C22.4016184,32.8930327 22.3109871,32.9002631 22.2193797,32.9071901 L21.6582639,32.9449097 C21.5628726,32.9505221 21.4665653,32.9557806 21.369372,32.9606599 L20.7758197,32.9851827 L20.7758197,32.9851827 L20.1624423,32.9993907 C20.0586406,33.0008317 19.9540728,33.0017924 19.848769,33.0022475 L19.2083524,32.9987081 C18.9920958,32.995371 18.7731346,32.9898091 18.5517089,32.9818203 L17.8802776,32.9503704 L17.8802776,32.9503704 L15.8537881,35.3651995 L15.8537881,35.3651995 L14.7057483,36.703967 L14.7057483,36.703967 L13.9416067,37.5733259 L13.9416067,37.5733259 L13.5420724,38.0145058 L13.5420724,38.0145058 L13.2068789,38.3702384 C13.1738197,38.4042559 13.1422568,38.4363105 13.1122921,38.4662752 C12.9253123,38.653255 12.7383325,38.7 12.5980976,38.7 C12.4111178,38.653255 12.3643728,38.4195303 12.3643728,38.0923156 L12.4111178,32.1089612 C8.21984264,30.9431761 6.66564976,27.8655063 6.10436638,24.7452198 L6.02741517,24.2770908 C5.98080489,23.9651033 5.94330161,23.6536243 5.91326117,23.344523 L5.87359211,22.882888 L5.87359211,22.882888 L5.84388418,22.4262215 C5.83969445,22.3506024 5.83586838,22.2752487 5.83238028,22.2001896 L5.81530192,21.7536046 L5.81530192,21.7536046 L5.80219584,21.100053 L5.80219584,21.100053 L5.80046628,20.4553664 L5.80903076,19.6341646 L5.80903076,19.6341646 L5.82007899,18.8801387 L5.82007899,18.8801387 C5.91356891,15.0003074 6.61474324,11.8683954 8.76501121,9.71812739 C11.1149589,7.59468069 14.9739722,6.94600265 17.6519379,6.76459913 L18.2265069,6.73156951 C18.3186637,6.72721003 18.4089271,6.72338917 18.4971605,6.72005573 L19.0011056,6.70549465 C19.0806718,6.70390615 19.1579346,6.70270271 19.2327572,6.70183312 L19.7480968,6.70078749 L20.5119548,6.71984659 L20.5119548,6.71984659 L20.63823,6.72645022 L20.63823,6.72645022 Z M14.689851,12.0346104 C14.2723203,11.5802958 13.6902297,11.5093091 13.0655471,11.8216504 C12.4578627,12.1956101 11.8969233,12.6630596 11.3827287,13.2239991 C11.0146122,13.6330174 10.7896521,14.0420358 10.7078484,14.4510542 L10.6815544,14.6263478 L10.6815544,14.8133276 C10.6815544,14.9886212 10.7078484,15.1376207 10.740716,15.2800467 L10.8153826,15.5711243 L10.8920362,15.8173109 L10.9544517,15.996326 L11.0263571,16.1879566 L11.1528326,16.5003747 L11.2501103,16.7261803 L11.3581959,16.9667102 L11.4774661,17.2225671 L11.6082974,17.4943534 L11.7510663,17.7826718 L11.9884267,18.2474649 L12.2547651,18.7528442 L12.5513526,19.3008433 C13.252527,20.5629571 14.0004463,21.6380911 14.7016206,22.5262453 C15.0007883,22.9002049 15.3298728,23.2741646 15.7128075,23.6720576 L16.1974592,24.1623187 C16.6649087,24.6765133 17.1791033,25.0972179 17.6465528,25.4711775 C18.4236877,26.084705 19.343979,26.7340217 20.4074268,27.3564965 L20.8719548,27.6214455 L21.4153991,27.9092291 L21.9163211,28.1685874 L22.3765694,28.400676 L22.797993,28.6066502 L23.3026925,28.8426574 L23.531761,28.9448778 L23.7460392,29.0370325 L23.9460747,29.1194638 L24.2206214,29.2256286 L24.3874471,29.2852495 L24.5419474,29.3363454 L24.7517861,29.3977538 C24.892021,29.4328125 25.0585499,29.4678712 25.2119318,29.4832094 L25.3594705,29.4912437 L25.5464503,29.4912437 C25.9554687,29.40944 26.3644871,29.2560581 26.7735054,28.9371516 L26.948799,28.7900694 L27.1110542,28.6486755 C27.6403153,28.1734995 28.0536798,27.6596913 28.3511477,27.107251 C28.6549899,26.4995665 28.5960817,25.9321877 28.1744231,25.5173944 L28.070678,25.4244325 L27.9019579,25.2871192 L27.1320715,24.6710875 L26.7091821,24.3437536 L26.5280944,24.2090637 C26.2691993,24.0019476 25.9242713,23.7661539 25.5965499,23.557273 L25.3555982,23.4065271 L25.1072137,23.257207 C25.0292133,23.211377 24.9567448,23.1698874 24.892021,23.1339297 C24.1470232,22.7395191 23.4431099,22.9613751 23.0884143,23.3372977 L23.0222227,23.4143994 L22.3677934,24.2558087 C22.1944121,24.4787275 21.9291612,24.570404 21.7180776,24.6073338 L21.6177258,24.6215906 L21.5174709,24.6295261 L21.3901135,24.6300098 L21.21207,24.5819911 C19.2518615,24.0205623 17.9309454,22.8421176 17.0650267,21.6935704 L16.9248883,21.5025336 L16.7858959,21.3022197 L16.5941261,21.0060082 L16.5941261,21.0060082 L16.3684707,20.6231198 L16.2680145,20.4386054 L16.1755087,20.2597546 L16.0907303,20.0873501 L15.9775638,19.8425424 L15.8805295,19.6166419 L15.8244307,19.4778501 L15.7749443,19.3494184 L15.6949168,19.1267662 L15.6281052,18.920669 L15.5897748,18.7866488 L15.5882295,18.7276469 L15.5897748,18.6605323 L15.5959559,18.574242 C15.6148857,18.3815025 15.6772948,18.096534 15.8719535,17.8888073 L15.9637344,17.8050048 L16.8051436,17.1505754 C17.1791033,16.8233607 17.459573,16.0286964 17.0388684,15.2807771 L16.9579866,15.1583833 L16.4661285,14.3989095 L16.154156,13.9238389 L15.9637344,13.6447037 L15.9637344,13.6447037 L15.8998104,13.5578754 L15.6718169,13.2584956 L15.3859214,12.8941418 L14.8138839,12.1824721 L14.689851,12.0346104 Z M19.7968208,10.6233435 C19.5480786,10.6233435 19.3464331,10.8249889 19.3464331,11.0737311 C19.3464331,11.3224733 19.5480786,11.5241188 19.7968208,11.5241188 C22.1905481,11.5241188 24.1857536,12.3111165 25.7934343,13.8741394 C27.4037444,15.4397187 28.2279747,17.5782622 28.2279747,20.2824874 C28.2279747,20.5312296 28.4296202,20.7328751 28.6783624,20.7328751 C28.9271046,20.7328751 29.12875,20.5312296 29.12875,20.2824874 C29.12875,17.3444701 28.2140507,14.9711961 26.4213453,13.2282881 C24.6431631,11.4994998 22.4219216,10.6233435 19.7968208,10.6233435 Z M20.6678213,12.9141302 C20.4424733,12.9224372 20.2541626,13.0985288 20.2359843,13.3287873 C20.2164077,13.576758 20.4015576,13.7936479 20.6495283,13.8132246 C22.3337881,13.9461924 23.6221117,14.515202 24.5600158,15.5383702 C25.4730793,16.5383934 25.9338211,17.8328585 25.8909107,19.3347253 C25.8838066,19.5833661 26.0796109,19.7906882 26.3282516,19.7977922 C26.5768924,19.8048962 26.7842145,19.609092 26.7913185,19.3604513 C26.8407794,17.6293215 26.2989217,16.1069595 25.2246257,14.9303496 C24.1879446,13.7994235 22.7963346,13.145204 21.0516809,12.9470565 L20.7204216,12.9152433 L20.6678213,12.9141302 Z M21.3169692,15.3452405 C21.0685895,15.3318146 20.8563542,15.5222822 20.8429283,15.7706619 C20.8295023,16.0190415 21.0199699,16.2312768 21.2683496,16.2447028 C22.7582431,16.3252375 23.472189,17.0669995 23.5541017,18.6233408 C23.5671753,18.8717393 23.7791402,19.0625077 24.0275387,19.0494341 C24.2759371,19.0363605 24.4667055,18.8243956 24.4536319,18.5759972 C24.3478888,16.566878 23.2738748,15.4510192 21.3169692,15.3452405 Z" id="Shape" fill="#FFFFFF" fill-rule="nonzero"></path>
    </g>
</svg>
