<svg viewBox="0 0 40 40" version="1.1" xmlns="http://www.w3.org/2000/svg" xmlns:xlink="http://www.w3.org/1999/xlink">
    <g transform="translate(2.000000, 9.000000)">
        <path transform="translate(0.000000, 14.000000)" d="M32.0002,0 L4.0002,0 C1.7912,0 0.0002,1.791 0.0002,4 C0.0002,6.209 1.7912,8 4.0002,8 L32.0002,8 C34.2092,8 36.0002,6.209 36.0002,4 C36.0002,1.791 34.2092,0 32.0002,0 M32.0002,3 C32.5512,3 33.0002,3.448 33.0002,4 C33.0002,4.552 32.5512,5 32.0002,5 L4.0002,5 C3.4482,5 3.0002,4.552 3.0002,4 C3.0002,3.448 3.4482,3 4.0002,3 L32.0002,3"></path>
        <path d=" M32.0002,0 L4.0002,0 C1.7912,0 0.0002,1.791 0.0002,4 C0.0002,6.209 1.7912,8 4.0002,8 L32.0002,8 C34.2092,8 36.0002,6.209 36.0002,4 C36.0002,1.791 34.2092,0 32.0002,0 M32.0002,3 C32.5512,3 33.0002,3.449 33.0002,4 C33.0002,4.551 32.5512,5 32.0002,5 L4.0002,5 C3.4482,5 3.0002,4.551 3.0002,4 C3.0002,3.449 3.4482,3 4.0002,3 L32.0002,3"></path>
    </g>
</svg>
