<svg viewBox="0 0 40 40" version="1.1" xmlns="http://www.w3.org/2000/svg" xmlns:xlink="http://www.w3.org/1999/xlink">
    <g id="Icon/Tags" transform="translate(2.000000, 8.000000)">
        
            <path d="M32.0002,15.8539 L4.0002,15.8539 C1.7912,15.8539 0.0002,17.6449 0.0002,19.8539 C0.0002,22.0639 1.7912,23.8539 4.0002,23.8539 L32.0002,23.8539 C34.2092,23.8539 36.0002,22.0639 36.0002,19.8539 C36.0002,17.6449 34.2092,15.8539 32.0002,15.8539 M32.0002,18.8539 C32.5512,18.8539 33.0002,19.3029 33.0002,19.8539 C33.0002,20.4059 32.5512,20.8539 32.0002,20.8539 L4.0002,20.8539 C3.4482,20.8539 3.0002,20.4059 3.0002,19.8539 C3.0002,19.3029 3.4482,18.8539 4.0002,18.8539 L32.0002,18.8539"></path>
            <path d="M6.0002,-0.0001 C2.6862,-0.0001 0.0002,2.6869 0.0002,5.9999 C0.0002,9.3139 2.6862,11.9999 6.0002,11.9999 C9.3132,11.9999 12.0002,9.3139 12.0002,5.9999 C12.0002,2.6869 9.3132,-0.0001 6.0002,-0.0001 M6.0002,2.9999 C7.6542,2.9999 9.0002,4.3459 9.0002,5.9999 C9.0002,7.6539 7.6542,8.9999 6.0002,8.9999 C4.3462,8.9999 3.0002,7.6539 3.0002,5.9999 C3.0002,4.3459 4.3462,2.9999 6.0002,2.9999"></path>
    </g>
</svg>
