<svg viewBox="0 0 40 40" version="1.1" xmlns="http://www.w3.org/2000/svg">
    <g id="Icons/Social/VK-Color" stroke="none" stroke-width="1" fill-rule="evenodd">
        <rect id="Rectangle" fill="#FFFFFF" x="5" y="5" width="30" height="30"></rect>
        <path d="M2.811775,2.811775 C0,5.62355 0,10.149 0,19.2 L0,20.8 C0,29.851 0,34.3764167 2.811775,37.18825 C5.62355,40 10.149,40 19.2,40 L20.8,40 C29.851,40 34.3764167,40 37.18825,37.18825 C40,34.3764167 40,29.851 40,20.8 L40,19.2 C40,10.149 40,5.62355 37.18825,2.811775 C34.3764167,0 29.851,0 20.8,0 L19.2,0 C10.149,0 5.62355,0 2.811775,2.811775 Z M6.7501,12.16675 C6.96676667,22.56675 12.16675,28.81675 21.2834167,28.81675 L21.8001667,28.81675 L21.8001667,22.86675 C25.1501667,23.2000833 27.6833333,25.6500833 28.7,28.81675 L33.4334167,28.81675 C32.1334167,24.0834167 28.7165833,21.46675 26.58325,20.46675 C28.7165833,19.2334167 31.7165833,16.2334167 32.43325,12.16675 L28.1331667,12.16675 C27.1998333,15.46675 24.4335,18.46675 21.8001667,18.7500833 L21.8001667,12.16675 L17.5,12.16675 L17.5,23.7000833 C14.8333333,23.0334167 11.46675,19.8000833 11.31675,12.16675 L6.7501,12.16675 Z" id="Shape" fill="#0077FF"></path>
    </g>
</svg>
