<svg version="1.1" xmlns="http://www.w3.org/2000/svg"   viewBox="0 0 32 32">
<path d="M16 1.143c2.286 0 4.571 0.571 6.514 1.486 0.343 0.114 0.571 0.343 0.914 0.457l-1.371 1.257-2.171-2.057-3.429 3.086-2.057-2.286-6.4 5.829 4.114 4.571-1.6 1.371 4.114 4.571-1.6 1.371 5.829 6.514 3.429-3.2 2.971 3.429c-0.571 0.457-1.257 0.914-1.943 1.257-2.171 1.257-4.686 2.057-7.314 2.057-8.229 0-14.857-6.743-14.857-14.857s6.629-14.857 14.857-14.857v0zM13.257 15.086l3.543-3.2 3.086 3.543-3.429 3.2-3.2-3.543zM15.771 21.143l3.543-3.2 3.086 3.543-3.429 3.2-3.2-3.543zM10.743 9.029l3.543-3.2 3.086 3.543-3.429 3.2-3.2-3.543zM17.143 7.314l2.629-2.286 2.4 2.629-2.629 2.286-2.4-2.629zM21.829 18.286l2.743-2.4 2.286 2.629-2.629 2.4-2.4-2.629zM24.229 23.543l2.629-2.4 2.4 2.743-2.629 2.286-2.4-2.629zM25.257 11.314l1.714-1.6 1.6 1.829-1.714 1.6-1.6-1.829zM22.971 6.171l1.829-1.6 1.6 1.714-1.829 1.6-1.6-1.714zM27.543 16.571l1.714-1.6 1.6 1.829-1.714 1.486-1.6-1.714zM19.657 12.686l2.629-2.4 2.4 2.629-2.743 2.4-2.286-2.629z"></path>
</svg>
