<svg viewBox="0 0 40 40" version="1.1" xmlns="http://www.w3.org/2000/svg" xmlns:xlink="http://www.w3.org/1999/xlink">
    <g>
        <path d="M24.9084,22.1895 C24.3834,22.5715 24.1624,23.2495 24.3634,23.8675 L26.5154,30.4905 L20.8824,26.3965 C20.3554,26.0155 19.6444,26.0155 19.1184,26.3965 L13.4844,30.4905 L15.6364,23.8675 C15.8374,23.2495 15.6164,22.5715 15.0914,22.1895 L9.4574,18.0965 L16.4214,18.0965 C17.0714,18.0965 17.6474,17.6785 17.8484,17.0605 L20.0004,10.4365 L22.1524,17.0605 C22.3534,17.6785 22.9294,18.0965 23.5784,18.0965 L30.5424,18.0965 L24.9084,22.1895 Z M38.0184,15.6575 C37.5064,14.0825 35.8134,13.2195 34.2384,13.7315 C33.5014,13.9715 32.9294,14.4735 32.5724,15.0965 L24.6684,15.0965 L22.2224,7.5685 C22.6954,7.0395 22.9904,6.3485 22.9904,5.5825 C22.9904,3.9255 21.6474,2.5825 19.9904,2.5825 C18.3334,2.5825 16.9904,3.9255 16.9904,5.5825 C16.9904,6.3565 17.2914,7.0545 17.7714,7.5855 L15.3314,15.0965 L7.4104,15.0965 C7.0524,14.4885 6.4894,13.9975 5.7644,13.7615 C4.1884,13.2495 2.4964,14.1115 1.9844,15.6875 C1.4714,17.2635 2.3344,18.9565 3.9104,19.4675 C4.6484,19.7085 5.4084,19.6365 6.0654,19.3405 L12.4464,23.9765 L9.9954,31.5195 C9.3064,31.6725 8.6674,32.0565 8.2204,32.6715 C7.2454,34.0125 7.5434,35.8885 8.8834,36.8625 C10.2234,37.8355 12.0994,37.5395 13.0744,36.1985 C13.5324,35.5675 13.6994,34.8195 13.6184,34.1015 L20.0004,29.4645 L26.4164,34.1275 C26.3474,34.8315 26.5144,35.5625 26.9634,36.1795 C27.9374,37.5205 29.8134,37.8175 31.1544,36.8435 C32.4944,35.8705 32.7914,33.9945 31.8174,32.6535 C31.3604,32.0235 30.7014,31.6335 29.9944,31.4885 L27.5534,23.9765 L33.9624,19.3205 C34.6134,19.6065 35.3624,19.6745 36.0924,19.4385 C37.6684,18.9255 38.5304,17.2335 38.0184,15.6575 Z"></path>
    </g>
</svg>
