<svg viewBox="0 0 40 40" version="1.1" xmlns="http://www.w3.org/2000/svg" xmlns:xlink="http://www.w3.org/1999/xlink">
    <g id="Icon/Sigma-Copy" transform="translate(6.000000, 2.000000)">
        <path d="M24.5918,3 L1.4998,3 C0.6718,3 -0.0002,2.329 -0.0002,1.5 C-0.0002,0.671 0.6718,0 1.4998,0 L24.5918,0 C25.4198,0 26.0918,0.671 26.0918,1.5 C26.0918,2.329 25.4198,3 24.5918,3"></path>
        <path d="M25.6524,33.4395 L15.1674,22.9545 L25.6524,12.4685 C26.2384,11.8825 26.2384,10.9335 25.6524,10.3475 C25.0664,9.7615 24.1174,9.7615 23.5314,10.3475 L13.0464,20.8335 L2.5604,10.3475 C1.9744,9.7615 1.0254,9.7615 0.4394,10.3475 C-0.1466,10.9335 -0.1466,11.8825 0.4394,12.4685 L10.9244,22.9545 L0.4394,33.4395 C-0.1466,34.0255 -0.1466,34.9745 0.4394,35.5605 C1.0254,36.1465 1.9744,36.1465 2.5604,35.5605 L13.0464,25.0755 L23.5314,35.5605 C24.1174,36.1465 25.0664,36.1465 25.6524,35.5605 C26.2384,34.9745 26.2384,34.0255 25.6524,33.4395"></path>
    </g>
</svg>
