<svg viewBox="0 0 40 40" version="1.1" xmlns="http://www.w3.org/2000/svg" xmlns:xlink="http://www.w3.org/1999/xlink">
    <g id="Icon/Filetype-XLS">
        <path d="M14.5846,23.4115 C14.4586,23.4115 14.3516,23.3575 14.2786,23.2315 L12.1006,19.5045 L12.0466,19.5045 L9.8496,23.2315 C9.7766,23.3575 9.6696,23.4115 9.5436,23.4115 L7.0586,23.4115 C6.9326,23.4115 6.8786,23.2855 6.9506,23.1955 L10.6056,17.0925 L7.2026,11.3845 C7.1306,11.2395 7.1666,11.1685 7.3116,11.1685 L9.8136,11.1685 C9.9386,11.1685 10.0296,11.2225 10.1016,11.3485 L12.0466,14.6615 L12.1006,14.6615 L14.0446,11.3485 C14.1166,11.2225 14.2066,11.1685 14.3326,11.1685 L16.8356,11.1685 C16.9796,11.1685 17.0156,11.2395 16.9436,11.3845 L13.5226,17.0925 L17.1956,23.1955 C17.2676,23.3395 17.2316,23.4115 17.0876,23.4115 L14.5846,23.4115 Z"></path>
        <path d="M18.5612,11.348 C18.5612,11.222 18.6152,11.168 18.7412,11.168 L21.0282,11.168 C21.1542,11.168 21.2072,11.222 21.2072,11.348 L21.2072,20.945 C21.2072,21.017 21.2442,21.053 21.3162,21.053 L26.7172,21.053 C26.8432,21.053 26.8972,21.107 26.8972,21.233 L26.8972,23.232 C26.8972,23.358 26.8432,23.411 26.7172,23.411 L18.7412,23.411 C18.6152,23.411 18.5612,23.358 18.5612,23.232 L18.5612,11.348 Z"></path>
        <path d="M30.027,23.1409 C29.163,22.8179 28.478,22.4209 27.992,21.9349 C27.902,21.8449 27.884,21.7369 27.974,21.6289 L29.342,20.0629 C29.415,19.9719 29.505,19.9539 29.613,20.0439 C30.674,20.8909 31.737,21.3049 32.818,21.3049 C34.06,21.3049 34.816,20.7289 34.816,19.8459 C34.816,19.0729 34.312,18.6759 32.925,18.4779 L32.277,18.3879 C29.703,18.0279 28.406,16.8039 28.406,14.7149 C28.406,13.5799 28.802,12.6799 29.577,11.9959 C30.369,11.3119 31.431,10.9699 32.746,10.9699 C34.42,10.9699 35.806,11.4019 36.905,12.2479 C37.012,12.3209 37.031,12.4109 36.941,12.5189 L35.842,14.1569 C35.77,14.2469 35.68,14.2649 35.59,14.2109 C34.636,13.5799 33.682,13.2749 32.746,13.2749 C31.683,13.2749 31.107,13.8149 31.107,14.6069 C31.107,15.3279 31.647,15.7589 33.015,15.9569 L33.664,16.0469 C36.239,16.3899 37.517,17.6319 37.517,19.7559 C37.517,22.0609 35.789,23.6099 32.71,23.6099 C31.792,23.6099 30.891,23.4479 30.027,23.1409"></path>
        <path d="M22.9996,28.5003 L22.9996,32.0003 C22.9996,32.5523 22.5526,33.0003 21.9996,33.0003 L3.9996,33.0003 C3.4476,33.0003 2.9996,32.5523 2.9996,32.0003 L2.9996,4.0003 C2.9996,3.4473 3.4476,3.0003 3.9996,3.0003 L21.9996,3.0003 C22.5526,3.0003 22.9996,3.4473 22.9996,4.0003 L22.9996,7.5003 C22.9996,8.3283 23.6716,9.0003 24.4996,9.0003 C25.3286,9.0003 25.9996,8.3283 25.9996,7.5003 L25.9996,4.0003 C25.9996,1.7913 24.2096,0.0003 21.9996,0.0003 L3.9996,0.0003 C1.7906,0.0003 -0.0004,1.7913 -0.0004,4.0003 L-0.0004,32.0003 C-0.0004,34.2093 1.7906,36.0003 3.9996,36.0003 L21.9996,36.0003 C24.2096,36.0003 25.9996,34.2093 25.9996,32.0003 L25.9996,28.5003 C25.9996,27.6713 25.3286,27.0003 24.4996,27.0003 C23.6716,27.0003 22.9996,27.6713 22.9996,28.5003"></path>
    </g>
</svg>
