<svg version="1.1" xmlns="http://www.w3.org/2000/svg"   viewBox="0 0 32 32">
<path d="M28.914 13.143c0-0.914-0.914-1.829-2.171-1.829-0.343 0-0.571 0-0.914 0-0.8 0-0.8 0.229-0.8 0.686 0 3.086 0 5.714 0 8.686 0 2.171-1.143 3.2-2.629 3.543-4.571 1.257-8.343 2.4-12.914 3.657-0.457 0.114-1.257 0.457-1.943 0.457-0.229 0-0.686 0.114-0.914-0.457-0.114-0.457 0-0.8 1.143-1.486 0.8-0.343 1.486-0.686 2.286-1.029 3.314-1.371 6.057-2.286 9.371-3.657 1.486-0.571 2.971-1.371 3.2-3.543 0-4.914 0-9.943 0-14.971 0-0.8 0-1.371-0.8-1.829-0.914-0.343-1.6 0-2.514 0.457-4.571 2.629-9.371 5.143-14.057 8-1.371 0.686-2.171 1.714-2.171 3.657 0.114 4.8-0.114 9.486 0 14.171 0 2.514 1.829 3.314 3.429 3.314 3.314 0 6.743 0 10.057 0s6.171 0 9.6 0c0.686 0 1.6-0.114 2.171-0.686 0.686-0.686 0.686-1.6 0.686-2.4-0.114-4.8-0.114-14.514-0.114-14.743zM14.971 11.657c0.457-1.143 1.486-1.829 2.286-1.943 0.686-0.114 1.257 0.457 1.371 1.143 0.229 1.257-1.143 2.743-2.4 2.743-1.029 0.114-1.714-0.8-1.257-1.943z"></path>
</svg>
