<svg xmlns="http://www.w3.org/2000/svg" viewBox="0 0 40 40">
    <g fill-rule="evenodd">
        <path fill="#FFF" d="M13 12h16v16H13z"/>
        <path fill="#F00" d="M15.91 26.038V14.143l10.454 5.948-10.455 5.947zm23.254-15.637a5.026 5.026 0 0 0-3.536-3.56C32.508 6 20 6 20 6S7.492 6 4.372 6.841a5.026 5.026 0 0 0-3.536 3.56C0 13.54 0 20.09 0 20.09s0 6.55.836 9.69a5.026 5.026 0 0 0 3.536 3.56c3.12.84 15.628.84 15.628.84s12.508 0 15.628-.84a5.026 5.026 0 0 0 3.536-3.56c.836-3.14.836-9.69.836-9.69s0-6.55-.836-9.69z"/>
    </g>
</svg>
