<svg xmlns="http://www.w3.org/2000/svg" viewBox="0 0 40 40">    
        <path d="M20.2208333,0 C20.4883333,8.85666667 20.71,12.9058333 23.8641667,16.1366667 C27.0941667,19.29 31.1433333,19.5125 40,19.7791667 C39.9991667,11.8041667 39.9716667,5.82333333 37.1083333,2.89166667 C34.1766667,0.0283333333 28.465,0.000833333333 20.2208333,0 M20.2208333,40 C20.4883333,31.1441667 20.71,27.0941667 23.8641667,23.8641667 C27.0941667,20.7108333 31.1433333,20.4883333 40,20.2216667 C39.9991667,28.1966667 39.9716667,34.1775 37.1083333,37.1083333 C34.1766667,39.9733333 28.465,40 20.2208333,40 M2.89083333,37.1083333 C0.0275,34.1775 0,28.1966667 0,20.2216667 C8.85583333,20.4883333 12.9058333,20.7108333 16.1358333,23.8641667 C19.29,27.0941667 19.5116667,31.1441667 19.7791667,40 C11.535,40 5.8225,39.9733333 2.89083333,37.1083333 M19.7791667,0 C11.5358333,0.000833333333 5.82333333,0.0283333333 2.89083333,2.89166667 C0.0283333333,5.82333333 0,11.8041667 0,19.7791667 C8.85666667,19.5125 12.9066667,19.29 16.1366667,16.1366667 C19.29,12.9058333 19.5116667,8.85666667 19.7791667,0" id="path-1"></path>    
</svg>