<svg width="297" height="147" viewBox="0 0 297 147" fill="none" xmlns="http://www.w3.org/2000/svg">
<path d="M28.758 123V21.8302H45.8512L45.5733 64.2159H57.3857L95.8802 21.8302H117.42L71.1437 70.7475L119.922 123H97.8258L57.8026 79.2246H45.5733L45.8512 123H28.758ZM152.274 104.239L172.563 46.8447H190.073L159.639 125.085C153.385 140.649 146.854 146.625 134.485 146.625C127.398 146.625 122.117 144.957 116.697 142.039L122.395 129.393C125.591 131.199 129.066 132.45 132.818 132.45C137.96 132.45 141.017 130.087 144.213 123L112.111 46.8447H130.038L152.274 104.239ZM234.427 124.668C222.615 124.668 213.443 120.36 207.467 114.384C199.268 106.463 195.099 95.0671 195.099 78.3908V78.2518C195.099 42.3977 208.162 25.3045 236.234 20.5795L263.333 15.9935L265.973 31.4191L239.013 35.7272C221.086 38.6455 213.165 46.7058 210.941 62.9652C217.056 55.8778 226.923 51.2918 239.013 51.2918C261.387 51.2918 274.451 65.7446 274.451 86.1731V86.3121C274.451 107.574 258.33 124.668 234.427 124.668ZM234.705 110.493C248.463 110.493 257.774 100.348 257.774 86.59V86.451C257.774 73.5269 249.436 63.938 235.678 63.938C221.086 63.938 211.914 73.9438 211.914 86.8679C211.914 100.765 221.503 110.493 234.705 110.493Z" fill="white"/>
</svg>
