<svg width="585" height="678" viewBox="0 0 585 678" fill="none" xmlns="http://www.w3.org/2000/svg">
<path d="M584.327 170.272L292.188 0.000501715L0.000470516 170.272V507.642L292.164 677.969L584.327 507.642V170.272ZM292.188 50.7596L515.933 179.931L459.218 212.681L292.164 118.505L125.109 212.681L68.3941 179.931L292.139 50.7596H292.188ZM147.955 282.047L267.979 351.341C267.979 351.56 267.857 351.73 267.857 351.949V491.486L147.955 422.241V282.047ZM292.188 309.127L173.795 240.782L292.188 172.437L410.581 240.782L292.188 309.127ZM316.397 351.341L436.42 282.047V422.241L316.519 491.462V351.925C316.519 351.706 316.397 351.536 316.397 351.317V351.341ZM42.5792 221.196L99.294 253.945L103.821 447.404L267.857 547.641V613.091L44.7653 480.6L42.5792 221.196ZM316.519 613.115V547.666L480.586 447.404L485.082 253.97L541.797 221.221L539.417 479.919L316.519 613.115Z" fill="white"/>
</svg>
