<svg width="494" height="183" viewBox="0 0 494 183" fill="none" xmlns="http://www.w3.org/2000/svg">
<path d="M196.605 141.172V35.2376H214.503L214.212 79.6194H226.581L266.888 35.2376H289.443L240.987 86.4586L292.062 141.172H268.926L227.018 95.3349H214.212L214.503 141.172H196.605ZM325.938 121.527L347.183 61.4302H365.517L333.65 143.355C327.102 159.652 320.262 165.909 307.312 165.909C299.891 165.909 294.361 164.163 288.686 161.107L294.652 147.866C297.999 149.757 301.637 151.067 305.566 151.067C310.95 151.067 314.151 148.593 317.498 141.172L283.884 61.4302H302.655L325.938 121.527ZM411.96 142.918C399.592 142.918 389.988 138.407 383.73 132.15C375.145 123.856 370.78 111.924 370.78 94.4619V94.3164C370.78 56.7737 384.458 38.8755 413.852 33.928L442.227 29.1261L444.992 45.2781L416.762 49.7891C397.991 52.8448 389.697 61.2847 387.368 78.3098C393.771 70.8886 404.102 66.0866 416.762 66.0866C440.19 66.0866 453.868 81.2201 453.868 102.611V102.756C453.868 125.02 436.989 142.918 411.96 142.918ZM412.251 128.076C426.657 128.076 436.407 117.453 436.407 103.047V102.902C436.407 89.3689 427.676 79.3284 413.27 79.3284C397.991 79.3284 388.387 89.8054 388.387 103.338C388.387 117.89 398.427 128.076 412.251 128.076Z" fill="white"/>
<path d="M156.802 43.3118L83.2974 0.876454C81.2801 -0.292151 78.7862 -0.292151 76.7689 0.876454L3.26426 43.3118C1.24042 44.4804 0 46.6349 0 48.9655V133.836C0 136.167 1.24042 138.328 3.26426 139.49L76.7689 181.925C76.9255 182.017 77.0953 182.049 77.252 182.128C77.4282 182.213 77.598 182.278 77.7808 182.35C78.512 182.617 79.2628 182.807 80.0266 182.807C80.7904 182.807 81.5477 182.624 82.2724 182.35C82.4552 182.284 82.6315 182.213 82.8012 182.128C82.9579 182.049 83.1342 182.017 83.2843 181.925L156.789 139.49C158.813 138.321 160.053 136.167 160.053 133.836V48.9655C160.053 46.6349 158.813 44.4739 156.789 43.3118H156.802ZM80.0331 14.0706L140.069 48.7305L124.851 57.5179L83.2909 33.5256C81.2735 32.357 78.7796 32.357 76.7623 33.5256L35.2018 57.5179L19.9838 48.7305L80.0201 14.0706H80.0331ZM41.3321 76.1307L73.5372 94.7239C73.5372 94.7827 73.5046 94.8284 73.5046 94.8872V132.328L41.3321 113.755V76.1307ZM80.0331 83.397L48.2653 65.0583L80.0331 46.7197L111.801 65.0583L80.0331 83.397ZM86.529 94.7239L118.734 76.1307V113.748L86.5616 132.322V94.8806C86.5616 94.8219 86.529 94.7762 86.529 94.7174V94.7239ZM13.057 59.8029L28.275 68.5903V117.515C28.275 119.846 29.5154 122.007 31.5393 123.169L73.5046 147.396V164.958L13.057 130.063V59.8029ZM86.5616 164.964V147.403L128.527 123.175C130.551 122.007 131.791 119.852 131.791 117.522V68.5968L147.009 59.8094V130.076L86.5616 164.964Z" fill="white"/>
</svg>
