<?xml version="1.0" encoding="UTF-8"?>
<svg width="40px" height="40px" viewBox="0 0 40 40" version="1.1" xmlns="http://www.w3.org/2000/svg" xmlns:xlink="http://www.w3.org/1999/xlink">
    <!-- Generator: sketchtool 53.1 (72631) - https://sketchapp.com -->
    <title>B0BD8FA8-566B-4D62-8366-24335BCDCCD3</title>
    <desc>Created with sketchtool.</desc>
    <defs>
        <circle id="path-1" cx="20" cy="20" r="18"></circle>
    </defs>
    <g id="Symbols" stroke="none" stroke-width="1" fill="none" fill-rule="evenodd">
        <g id="Icon/En">
            <mask id="mask-2" fill="white">
                <use xlink:href="#path-1"></use>
            </mask>
            <use id="Oval" fill="#D8D8D8" xlink:href="#path-1"></use>
            <rect id="Rectangle" fill="#FFFFFF" mask="url(#mask-2)" x="2" y="2" width="37" height="12"></rect>
            <rect id="Rectangle-Copy" fill="#0000FF" mask="url(#mask-2)" x="2" y="14" width="37" height="12"></rect>
            <rect id="Rectangle-Copy-2" fill="#FF0000" mask="url(#mask-2)" x="2" y="26" width="37" height="12"></rect>
            <path d="M0,0 L17,0 L17,17 L0,17 L0,0 Z M23,0 L40,0 L40,17 L23,17 L23,0 Z M23,23 L40,23 L40,40 L23,40 L23,23 Z M0,23 L17,23 L17,40 L0,40 L0,23 Z" id="Combined-Shape" fill="#0000FF" mask="url(#mask-2)"></path>
            <path d="M8.01293945,25 L0,25 L0,23 L17,23 L17,25 L17,38 L15,38 L15,25 L0,40 L0,33.0129395 L8.01293945,25 Z M28.4935303,25 L31.9870605,25 L40,33.0129395 L40,40 L25,25 L28.4935303,25 L40,25 L40,23 L23,23 L23,25 L23,38 L25,38 L25,25 L28.4935303,25 Z M11.5064697,15 L8.01293945,15 L0,6.98706055 L0,0 L15,15 L11.5064697,15 L0,15 L0,17 L17,17 L17,15 L17,0 L15,0 L15,15 L11.5064697,15 Z M31.9870605,15 L40,15 L40,17 L23,17 L23,15 L23,0 L25,0 L25,15 L40,0 L40,6.98706055 L31.9870605,15 Z" id="Combined-Shape" fill="#FFFFFF" mask="url(#mask-2)"></path>
            <path d="M23,17 L40,17 L40,23 L23,23 L23,40 L17,40 L17,23 L0,23 L0,17 L17,17 L17,0 L23,0 L23,17 Z M13.9638672,15 L10.9299316,15 L0,4.07006836 L0,1.03613281 L13.9638672,15 Z M26,15 L39.9638672,1.03613281 L39.9638672,4.07006836 L29.0339355,15 L26,15 Z M13.9638672,25 L0,38.9638672 L0,35.9299316 L10.9299316,25 L13.9638672,25 Z M26,25 L29.0339355,25 L39.9638672,35.9299316 L39.9638672,38.9638672 L26,25 Z" id="Combined-Shape" fill="#FF0000" mask="url(#mask-2)"></path>
        </g>
    </g>
</svg>