<svg viewBox="0 0 40 40" version="1.1" xmlns="http://www.w3.org/2000/svg">
    <g class="checkbox-icon" stroke="none" stroke-width="1" fill="#d9d9d9" fill-rule="evenodd">
        <path d="M30.6525,28.5315 L22.1675,20.0465 L30.6525,11.5605 C31.2385,10.9745 31.2385,10.0255 30.6525,9.4395 C30.0675,8.8535 29.1175,8.8535 28.5315,9.4395 L20.0465,17.9255 L11.5605,9.4395 C10.9745,8.8535 10.0255,8.8535 9.4395,9.4395 C8.8535,10.0255 8.8535,10.9745 9.4395,11.5605 L17.9245,20.0465 L9.4395,28.5315 C8.8535,29.1175 8.8535,30.0665 9.4395,30.6525 C10.0255,31.2385 10.9745,31.2385 11.5605,30.6525 L20.0465,22.1675 L28.5315,30.6525 C29.1175,31.2385 30.0675,31.2385 30.6525,30.6525 C31.2385,30.0665 31.2385,29.1175 30.6525,28.5315" id="Mask" ></path>
    </g>
</svg>
