<svg viewBox="0 0 40 40" version="1.1" xmlns="http://www.w3.org/2000/svg">
    <g id="Logo-/-Sign" stroke="none" stroke-width="1" fill-rule="evenodd">
        <path d="M19.9998771,2 L31.7417248,8.77924078 C33.1044704,9.56588277 33.9443333,11.0197298 33.9443333,12.5924744 L33.9443333,27.4074036 C33.9443333,28.9801482 33.1044704,30.4339952 31.7417248,31.2206372 L19.9998771,37.9998779 L8.25802935,31.2206372 C6.89528371,30.4339952 6.05542082,28.9801482 6.05542082,27.4074036 L6.05542082,12.5924744 C6.05542082,11.0197298 6.89528371,9.56588277 8.25802935,8.77924078 L19.9998771,2 Z M20.0000174,6.41768499 L11.6729813,11.2252744 C10.9908898,11.6197352 10.5709583,12.3471719 10.5709583,13.1340942 L10.5709583,26.8656433 C10.5709583,27.6525657 10.9908898,28.38 11.6729813,28.774463 L20.0000174,33.5821927 L28.3271938,28.774463 C29.0092854,28.38 29.4292169,27.6525657 29.4292169,26.8656433 L29.4292169,13.1340942 C29.4292169,12.3471719 29.0092854,11.6197352 28.3271938,11.2252744 L20.0000174,6.41768499 Z"></path>
        <path d="M19.9998596,9.64723232 L26.0404084,13.1340591 L20.0001404,16.620605 L13.9595916,13.1340591 L19.9998596,9.64723232 Z"></path>
        <path d="M14.2882886,16.9450325 L17.7420692,18.9397081 L17.7420692,28.6326194 L14.2882886,26.6380841 L14.2882886,16.9450325 Z"></path>
        <path d="M25.7117465,16.9450325 L25.7117465,26.6380841 L22.2579658,28.6326194 L22.2579658,18.9397081 L25.7117465,16.9450325 Z"></path>
    </g>
</svg>
