<svg viewBox="0 0 20 20" version="1.1" xmlns="http://www.w3.org/2000/svg" xmlns:xlink="http://www.w3.org/1999/xlink">
    <g id="V2-/-Statistics" stroke="none" stroke-width="1" fill="none" fill-rule="evenodd">
        <path d="M12.1319242,0.57124729 L17.0995777,3.43932338 C18.4188169,4.20098643 19.2315017,5.6085978 19.2315017,7.13192391 L19.2315017,12.8680761 C19.2315017,14.3914022 18.4188169,15.7990136 17.0995777,16.5606766 L12.1319242,19.4287527 C10.8126851,20.1904158 9.18731552,20.1904158 7.86807642,19.4287527 L2.90042291,16.5606766 C1.5811838,15.7990136 0.768499,14.3914022 0.768499,12.8680761 L0.768499,7.13192391 C0.768499,5.6085978 1.5811838,4.20098643 2.90042291,3.43932338 L7.86807642,0.57124729 C9.18731552,-0.190415763 10.8126851,-0.190415763 12.1319242,0.57124729 Z M10.4690803,5.51168 L6.92828033,5.51168 C6.83508033,5.51168 6.79468033,5.55128 6.79468033,5.64528 L6.79468033,14.46328 C6.79468033,14.55648 6.83508033,14.59688 6.92828033,14.59688 L10.3758803,14.59688 C12.3930803,14.59688 13.5286803,13.71528 13.5286803,11.95128 C13.5286803,10.93568 12.9674803,10.14768 12.3126803,9.89368 L12.3126803,9.86688 C13.0210803,9.47968 13.3682803,8.82488 13.3682803,7.93008 C13.3682803,6.43328 12.3930803,5.51168 10.4690803,5.51168 Z M10.3354803,10.73528 C11.1238803,10.73528 11.5646803,11.16328 11.5646803,11.87128 C11.5646803,12.57928 11.1370803,13.00688 10.3354803,13.00688 L8.83908033,13.00688 C8.78548033,13.00688 8.75908033,12.98008 8.75908033,12.92688 L8.75908033,10.81568 C8.75908033,10.76248 8.78548033,10.73528 8.83908033,10.73528 L10.3354803,10.73528 Z M10.2282803,7.10128 C10.9770803,7.10128 11.4174803,7.50208 11.4174803,8.15688 C11.4174803,8.83808 10.9770803,9.22568 10.2282803,9.22568 L8.83908033,9.22568 C8.78548033,9.22568 8.75908033,9.19888 8.75908033,9.14568 L8.75908033,7.18168 C8.75908033,7.12808 8.78548033,7.10128 8.83908033,7.10128 L10.2282803,7.10128 Z" id="grade_b" fill="#E46F00"></path>
    </g>
</svg>
