<svg viewBox="0 0 20 20" version="1.1" xmlns="http://www.w3.org/2000/svg" xmlns:xlink="http://www.w3.org/1999/xlink">
    <g id="V2-/-Statistics" stroke="none" stroke-width="1" fill="none" fill-rule="evenodd">
        <path d="M12.1319242,0.57124729 L17.0995777,3.43932338 C18.4188169,4.20098643 19.2315017,5.6085978 19.2315017,7.13192391 L19.2315017,12.8680761 C19.2315017,14.3914022 18.4188169,15.7990136 17.0995777,16.5606766 L12.1319242,19.4287527 C10.8126851,20.1904158 9.18731552,20.1904158 7.86807642,19.4287527 L2.90042291,16.5606766 C1.5811838,15.7990136 0.768499,14.3914022 0.768499,12.8680761 L0.768499,7.13192391 C0.768499,5.6085978 1.5811838,4.20098643 2.90042291,3.43932338 L7.86807642,0.57124729 C9.18731552,-0.190415763 10.8126851,-0.190415763 12.1319242,0.57124729 Z M10.9092803,5.51136 L9.22608033,5.51136 C9.13248033,5.51136 9.07888033,5.55136 9.05248033,5.64496 L5.92568033,14.46296 C5.89928033,14.55656 5.92568033,14.59656 6.01968033,14.59656 L7.76968033,14.59656 C7.86328033,14.59656 7.91688033,14.55656 7.94328033,14.46296 L8.45128033,12.87336 L11.6308803,12.87336 L12.1520803,14.46296 C12.1788803,14.55656 12.2320803,14.59656 12.3256803,14.59656 L14.0624803,14.59656 C14.1564803,14.59656 14.1828803,14.55656 14.1564803,14.46296 L11.0832803,5.64496 C11.0564803,5.55136 11.0032803,5.51136 10.9092803,5.51136 Z M10.0676803,8.02336 L11.0964803,11.20296 L8.99888033,11.20296 L10.0276803,8.02336 L10.0676803,8.02336 Z" id="grade_a" fill="#00AD00"></path>
    </g>
</svg>
