<svg width="300px" height="300px" viewBox="0 0 300 300" version="1.1" xmlns="http://www.w3.org/2000/svg">
    <g id="No_Image" stroke="none" stroke-width="1" fill-rule="evenodd">
        <rect id="Rectangle" fill="#FFFFFF" x="0" y="0" width="300" height="300"></rect>
        <path d="M149.999625,180.637125 C134.463375,180.637125 121.874625,168.048375 121.874625,152.512125 C121.874625,136.979625 134.463375,124.387125 149.999625,124.387125 C165.535875,124.387125 178.124625,136.979625 178.124625,152.512125 C178.124625,168.048375 165.535875,180.637125 149.999625,180.637125 M202.499625,116.887125 L191.249625,116.887125 C187.109625,116.887125 183.749625,113.530875 183.749625,109.387125 C183.749625,101.107125 177.033375,94.387125 168.749625,94.387125 L131.249625,94.387125 C122.965875,94.387125 116.249625,101.107125 116.249625,109.387125 C116.249625,113.530875 112.889625,116.887125 108.749625,116.887125 L97.499625,116.887125 C89.215875,116.887125 82.499625,123.607125 82.499625,131.887125 L82.499625,180.637125 C82.499625,188.924625 89.215875,195.637125 97.499625,195.637125 L202.499625,195.637125 C210.783375,195.637125 217.499625,188.924625 217.499625,180.637125 L217.499625,131.887125 C217.499625,123.607125 210.783375,116.887125 202.499625,116.887125" id="Mask" fill="#E6E6E6"></path>
    </g>
</svg>
