<svg width="28" height="28" viewBox="0 0 28 28" version="1.1" xmlns="http://www.w3.org/2000/svg" xmlns:xlink="http://www.w3.org/1999/xlink">
    <g id="V2-/-Statistics" stroke="none" stroke-width="1" fill="none" fill-rule="evenodd">
        <g id="grade_c">
            <path d="M17,1.23205081 L23.5573684,5.01794919 C25.4137748,6.08974596 26.5573684,8.07050808 26.5573684,10.2141016 L26.5573684,17.7858984 C26.5573684,19.9294919 25.4137748,21.910254 23.5573684,22.9820508 L17,26.7679492 C15.1435935,27.839746 12.8564065,27.839746 11,26.7679492 L4.44263165,22.9820508 C2.58622518,21.910254 1.44263165,19.9294919 1.44263165,17.7858984 L1.44263165,10.2141016 C1.44263165,8.07050808 2.58622518,6.08974596 4.44263165,5.01794919 L11,1.23205081 C12.8564065,0.160254038 15.1435935,0.160254038 17,1.23205081 Z" id="Polygon" fill-opacity="0.7" fill="#FFFFFF"></path>
            <path d="M16.1319239,4.57124729 L21.0995774,7.43932338 C22.4188165,8.20098643 23.2315013,9.6085978 23.2315013,11.1319239 L23.2315013,16.8680761 C23.2315013,18.3914022 22.4188165,19.7990136 21.0995774,20.5606766 L16.1319239,23.4287527 C14.8126848,24.1904158 13.1873152,24.1904158 11.8680761,23.4287527 L6.90042258,20.5606766 C5.58118348,19.7990136 4.76849867,18.3914022 4.76849867,16.8680761 L4.76849867,11.1319239 C4.76849867,9.6085978 5.58118348,8.20098643 6.90042258,7.43932338 L11.8680761,4.57124729 C13.1873152,3.80958424 14.8126848,3.80958424 16.1319239,4.57124729 Z" id="Mask" fill="#FF0000"></path>
            <path d="M17.3748,16.56588 L15.9184,15.91108 C15.838,15.87148 15.7712,15.88468 15.7316,15.97788 C15.4372,16.65948 14.9564,17.00708 14.2884,17.00708 C13.5936,17.00708 13.1392,16.67308 12.9256,16.00508 C12.8324,15.69748 12.7788,15.05628 12.7788,14.05428 C12.7788,13.05228 12.8324,12.41068 12.9256,12.10348 C13.1392,11.43548 13.5936,11.10148 14.2884,11.10148 C14.9564,11.10148 15.4372,11.44868 15.7316,12.13028 C15.7712,12.22388 15.838,12.23708 15.9184,12.19708 L17.3748,11.54228 C17.468,11.51548 17.4816,11.46228 17.4416,11.38188 C16.9204,10.09948 15.8116,9.36468 14.2752,9.36468 C12.6716,9.36468 11.5228,10.13948 11.0416,11.59588 C10.868,12.09028 10.788,12.91868 10.788,14.05428 C10.788,15.18988 10.868,16.01828 11.0416,16.51228 C11.5228,17.96868 12.6716,18.74348 14.2752,18.74348 C15.8116,18.74348 16.9204,18.00868 17.4416,16.72628 C17.4816,16.64588 17.468,16.59268 17.3748,16.56588" id="Mask" fill="#FFFFFF"></path>
        </g>
    </g>
</svg>
