<svg width="28" height="28" viewBox="0 0 28 28" version="1.1" xmlns="http://www.w3.org/2000/svg" xmlns:xlink="http://www.w3.org/1999/xlink">
    <g id="V2-/-Statistics" stroke="none" stroke-width="1" fill="none" fill-rule="evenodd">
        <g id="grade_b">
            <path d="M17,1.23205081 L23.5573684,5.01794919 C25.4137748,6.08974596 26.5573684,8.07050808 26.5573684,10.2141016 L26.5573684,17.7858984 C26.5573684,19.9294919 25.4137748,21.910254 23.5573684,22.9820508 L17,26.7679492 C15.1435935,27.839746 12.8564065,27.839746 11,26.7679492 L4.44263165,22.9820508 C2.58622518,21.910254 1.44263165,19.9294919 1.44263165,17.7858984 L1.44263165,10.2141016 C1.44263165,8.07050808 2.58622518,6.08974596 4.44263165,5.01794919 L11,1.23205081 C12.8564065,0.160254038 15.1435935,0.160254038 17,1.23205081 Z" id="Polygon" fill-opacity="0.7" fill="#FFFFFF"></path>
            <path d="M16.1319239,4.57124729 L21.0995774,7.43932338 C22.4188165,8.20098643 23.2315013,9.6085978 23.2315013,11.1319239 L23.2315013,16.8680761 C23.2315013,18.3914022 22.4188165,19.7990136 21.0995774,20.5606766 L16.1319239,23.4287527 C14.8126848,24.1904158 13.1873152,24.1904158 11.8680761,23.4287527 L6.90042258,20.5606766 C5.58118348,19.7990136 4.76849867,18.3914022 4.76849867,16.8680761 L4.76849867,11.1319239 C4.76849867,9.6085978 5.58118348,8.20098643 6.90042258,7.43932338 L11.8680761,4.57124729 C13.1873152,3.80958424 14.8126848,3.80958424 16.1319239,4.57124729 Z" id="Mask" fill="#E46F00"></path>
            <path d="M14.33548,17.00688 L12.83908,17.00688 C12.78548,17.00688 12.75908,16.98008 12.75908,16.92688 L12.75908,14.81568 C12.75908,14.76248 12.78548,14.73528 12.83908,14.73528 L14.33548,14.73528 C15.12388,14.73528 15.56468,15.16328 15.56468,15.87128 C15.56468,16.57928 15.13708,17.00688 14.33548,17.00688 L14.33548,17.00688 Z M12.75908,11.18168 C12.75908,11.12808 12.78548,11.10128 12.83908,11.10128 L14.22828,11.10128 C14.97708,11.10128 15.41748,11.50208 15.41748,12.15688 C15.41748,12.83808 14.97708,13.22568 14.22828,13.22568 L12.83908,13.22568 C12.78548,13.22568 12.75908,13.19888 12.75908,13.14568 L12.75908,11.18168 Z M16.31268,13.89368 L16.31268,13.86688 C17.02108,13.47968 17.36828,12.82488 17.36828,11.93008 C17.36828,10.43328 16.39308,9.51168 14.46908,9.51168 L10.92828,9.51168 C10.83508,9.51168 10.79468,9.55128 10.79468,9.64528 L10.79468,18.46328 C10.79468,18.55648 10.83508,18.59688 10.92828,18.59688 L14.37588,18.59688 C16.39308,18.59688 17.52868,17.71528 17.52868,15.95128 C17.52868,14.93568 16.96748,14.14768 16.31268,13.89368 L16.31268,13.89368 Z" id="Mask" fill="#FFFFFF"></path>
        </g>
    </g>
</svg>
