<svg width="28px" height="28px" viewBox="0 0 28 28" version="1.1" xmlns="http://www.w3.org/2000/svg" xmlns:xlink="http://www.w3.org/1999/xlink">
    <g id="V2-/-Statistics" stroke="none" stroke-width="1" fill="none" fill-rule="evenodd">
        <g id="grade_d">
            <path d="M17,1.23205081 L23.5573684,5.01794919 C25.4137748,6.08974596 26.5573684,8.07050808 26.5573684,10.2141016 L26.5573684,17.7858984 C26.5573684,19.9294919 25.4137748,21.910254 23.5573684,22.9820508 L17,26.7679492 C15.1435935,27.839746 12.8564065,27.839746 11,26.7679492 L4.44263165,22.9820508 C2.58622518,21.910254 1.44263165,19.9294919 1.44263165,17.7858984 L1.44263165,10.2141016 C1.44263165,8.07050808 2.58622518,6.08974596 4.44263165,5.01794919 L11,1.23205081 C12.8564065,0.160254038 15.1435935,0.160254038 17,1.23205081 Z" id="BG" fill-opacity="0.7" fill="#FFFFFF"></path>
            <path d="M16.1319239,4.57124729 L21.0995774,7.43932338 C22.4188165,8.20098643 23.2315013,9.6085978 23.2315013,11.1319239 L23.2315013,16.8680761 C23.2315013,18.3914022 22.4188165,19.7990136 21.0995774,20.5606766 L16.1319239,23.4287527 C14.8126848,24.1904158 13.1873152,24.1904158 11.8680761,23.4287527 L6.90042258,20.5606766 C5.58118348,19.7990136 4.76849867,18.3914022 4.76849867,16.8680761 L4.76849867,11.1319239 C4.76849867,9.6085978 5.58118348,8.20098643 6.90042258,7.43932338 L11.8680761,4.57124729 C13.1873152,3.80958424 14.8126848,3.80958424 16.1319239,4.57124729 Z" id="Shape" fill="#BEBEBE"></path>
        </g>
    </g>
</svg>
