<svg viewBox="0 0 40 40" version="1.1" xmlns="http://www.w3.org/2000/svg">
    <g id="Icons/Industry/Retail" stroke="none" stroke-width="1" fill-rule="evenodd">
        <path d="M27.46,8.64 C28.013,8.64 28.46,8.192 28.46,7.64 C28.46,7.088 28.013,6.64 27.46,6.64 C26.908,6.64 26.46,7.088 26.46,7.64 C26.46,8.192 26.908,8.64 27.46,8.64 L27.46,8.64 Z M22.951,21.067 L26.937,21.067 L26.937,17.95 L22.951,17.95 L22.951,21.067 Z M17.958,21.067 L21.95,21.067 L21.95,17.95 L17.958,17.95 L17.958,21.067 Z M32.58,16.95 L27.935,16.95 L27.935,15.458 C27.935,15.182 27.711,14.959 27.436,14.959 C27.16,14.959 26.937,15.182 26.937,15.458 L26.937,16.95 L22.95,16.95 L22.95,15.46 C22.95,15.24 22.811,15.05 22.61,14.99 C22.561,14.97 22.51,14.96 22.45,14.96 C22.17,14.96 21.95,15.18 21.95,15.46 L21.95,16.95 L17.958,16.95 L17.958,15.458 C17.958,15.182 17.734,14.959 17.459,14.959 C17.184,14.959 16.961,15.182 16.961,15.458 L16.961,16.95 L12.87,16.95 C12.771,16.95 12.681,16.98 12.61,17.03 C12.46,17.11 12.37,17.27 12.37,17.45 C12.37,17.73 12.59,17.95 12.87,17.95 L16.961,17.95 L16.961,21.067 L14.128,21.067 C13.853,21.067 13.629,21.29 13.629,21.565 C13.629,21.841 13.853,22.064 14.128,22.064 L16.961,22.064 L16.961,24.078 C16.961,24.353 17.184,24.577 17.459,24.577 C17.734,24.577 17.958,24.353 17.958,24.078 L17.958,22.064 L21.95,22.064 L21.95,24.08 C21.95,24.35 22.17,24.58 22.45,24.58 C22.721,24.58 22.95,24.35 22.95,24.08 L22.95,22.064 L26.937,22.064 L26.937,24.078 C26.937,24.353 27.16,24.577 27.436,24.577 C27.711,24.577 27.935,24.353 27.935,24.078 L27.935,22.064 L31.319,22.064 C31.595,22.064 31.818,21.841 31.818,21.565 C31.818,21.29 31.595,21.067 31.319,21.067 L27.935,21.067 L27.935,17.95 L32.58,17.95 C32.79,17.95 32.971,17.82 33.05,17.63 C33.07,17.57 33.08,17.51 33.08,17.45 C33.08,17.18 32.851,16.95 32.58,16.95 L32.58,16.95 Z M35.971,14.97 L32.87,24.77 C32.731,25.19 32.351,25.47 31.91,25.47 L13.71,25.47 C13.271,25.47 12.891,25.19 12.76,24.77 L9.25,13.67 L35.01,13.67 C35.45,13.67 35.71,13.93 35.82,14.08 C35.931,14.23 36.101,14.55 35.971,14.97 L35.971,14.97 Z M14.431,31.47 C15.26,31.47 15.931,32.14 15.931,32.97 C15.931,33.8 15.26,34.47 14.431,34.47 C13.601,34.47 12.931,33.8 12.931,32.97 C12.931,32.14 13.601,31.47 14.431,31.47 L14.431,31.47 Z M13.3,9.64 C13.3,9.09 13.75,8.64 14.3,8.64 L20.61,8.64 C20.75,8.64 20.891,8.67 21.01,8.73 C21.37,8.88 21.61,9.23 21.61,9.64 L21.61,11.67 L13.3,11.67 L13.3,9.64 Z M21.01,6 C21.01,5.44 21.46,5 22.01,5 L31.96,5 C32.521,5 32.96,5.44 32.96,6 L32.96,11.67 L22.61,11.67 L22.61,9.64 C22.61,8.68 21.931,7.87 21.01,7.68 L21.01,6 Z M30.46,31.47 C31.29,31.47 31.96,32.14 31.96,32.97 C31.96,33.8 31.29,34.47 30.46,34.47 C29.641,34.47 28.96,33.8 28.96,32.97 C28.96,32.14 29.641,31.47 30.46,31.47 L30.46,31.47 Z M35.01,11.67 L33.96,11.67 L33.96,6 C33.96,4.89 33.07,4 31.96,4 L22.01,4 C20.9,4 20.01,4.89 20.01,6 L20.01,7.64 L14.3,7.64 C13.2,7.64 12.3,8.54 12.3,9.64 L12.3,11.67 L8.612,11.67 L6.558,5.154 L6.558,5.153 L3.723,5.153 C3.377,4.557 2.738,4.153 2,4.153 C0.896,4.153 0,5.048 0,6.153 C0,7.257 0.896,8.153 2,8.153 C2.738,8.153 3.377,7.748 3.723,7.153 L5.091,7.153 L12.349,30.172 C11.489,30.802 10.931,31.821 10.931,32.97 C10.931,34.9 12.5,36.47 14.431,36.47 C16.01,36.47 17.351,35.41 17.78,33.97 L17.78,33.968 L27.109,33.968 C27.11,33.969 27.11,33.97 27.11,33.97 C27.54,35.41 28.88,36.47 30.46,36.47 C32.4,36.47 33.96,34.9 33.96,32.97 C33.96,31.04 32.4,29.47 30.46,29.47 C28.881,29.47 27.541,30.529 27.111,31.968 L17.779,31.968 C17.349,30.529 16.01,29.47 14.431,29.47 C14.36,29.47 14.3,29.47 14.231,29.48 C14.23,29.48 14.229,29.48 14.228,29.48 L13.591,27.46 C13.631,27.47 13.67,27.47 13.71,27.47 L31.91,27.47 C33.221,27.47 34.38,26.62 34.771,25.37 L37.87,15.58 C38.481,13.64 37.04,11.67 35.01,11.67 L35.01,11.67 Z M30.46,8.64 C31.013,8.64 31.46,8.192 31.46,7.64 C31.46,7.088 31.013,6.64 30.46,6.64 C29.908,6.64 29.46,7.088 29.46,7.64 C29.46,8.192 29.908,8.64 30.46,8.64 L30.46,8.64 Z" id="Mask"></path>
    </g>
</svg>
