<svg viewBox="0 0 40 40" version="1.1" xmlns="http://www.w3.org/2000/svg">
    <g id="Icons/Items/Share_In" stroke="none" stroke-width="1" fill-rule="evenodd">
        <path d="M16.4433476,8.91107918 C16.4433476,8.08207918 17.1153476,7.41107918 17.9433476,7.41107918 C18.7713476,7.41107918 19.4433476,8.08207918 19.4433476,8.91107918 L19.4433476,18.2900792 L32.4393476,5.29407918 C33.0243476,4.70807918 33.9743476,4.70807918 34.5603476,5.29407918 C35.1463476,5.88007918 35.1463476,6.82907918 34.5603476,7.41507918 L21.5643476,20.4110792 L30.9433476,20.4110792 C31.7713476,20.4110792 32.4433476,21.0820792 32.4433476,21.9110792 C32.4433476,22.7390792 31.7713476,23.4110792 30.9433476,23.4110792 L17.9433476,23.4110792 C17.7473476,23.4110792 17.5503476,23.3710792 17.3663476,23.2940792 C17.3583476,23.2910792 17.3523476,23.2860792 17.3443476,23.2830792 C17.1773476,23.2100792 17.0193476,23.1080792 16.8823476,22.9720792 C16.8823476,22.9720792 16.8823476,22.9710792 16.8813476,22.9710792 C16.7463476,22.8340792 16.6433476,22.6770792 16.5713476,22.5100792 C16.5673476,22.5020792 16.5623476,22.4950792 16.5593476,22.4880792 C16.4833476,22.3040792 16.4433476,22.1070792 16.4433476,21.9110792 L16.4433476,8.91107918 Z M34.8662476,21.7162792 C34.9592476,20.9692792 35.5942476,20.4102792 36.3462476,20.4102792 C37.2432476,20.4102792 37.9532476,21.1952792 37.8432476,22.0852792 C36.6572476,31.6682792 27.9592476,38.9212792 17.8132476,37.7252792 C9.66524761,36.7652792 3.08924761,30.1892792 2.12924761,22.0412792 C0.93324761,11.8942792 8.18524761,3.19627918 17.7682476,2.01127918 C18.6582476,1.90127918 19.4432476,2.61027918 19.4432476,3.50827918 C19.4432476,4.25927918 18.8852476,4.89427918 18.1372476,4.98727918 C10.4662476,5.94227918 4.56924761,12.6982792 5.02424761,20.7232792 C5.45024761,28.2382792 11.6152476,34.4042792 19.1312476,34.8292792 C27.1562476,35.2842792 33.9122476,29.3882792 34.8662476,21.7162792 Z" id="Mask"></path>
    </g>
</svg>
